{"glyphs":{"0":{"ha":929,"x_min":25,"x_max":889,"o":"m 440 1038 q 587 1010 519 1038 q 707 936 654 983 q 813 808 772 881 q 871 653 853 735 q 885 487 889 572 q 856 321 881 401 q 785 169 831 240 q 674 43 739 97 q 562 -23 624 1 q 428 -47 500 -47 q 227 6 307 -47 q 100 146 147 58 q 42 321 58 224 q 33 518 25 418 q 72 714 40 618 q 158 885 103 810 q 276 993 207 951 q 440 1038 344 1035 m 426 93 q 458 95 436 93 q 501 103 479 97 q 540 118 524 108 q 557 143 557 128 q 543 164 557 158 q 518 161 529 169 q 472 147 490 151 q 426 142 454 142 q 405 142 419 142 q 385 147 390 143 q 377 147 381 147 q 367 143 374 146 q 359 133 363 139 q 356 119 356 128 q 364 104 356 110 q 383 97 372 99 q 407 94 394 94 q 426 93 419 93 m 417 181 q 526 215 481 181 q 600 300 571 249 q 642 412 629 351 q 656 524 656 472 q 642 628 656 576 q 597 722 628 681 q 529 784 568 763 q 451 806 490 806 q 376 784 411 806 q 318 717 340 763 q 275 585 289 656 q 261 456 261 514 q 266 369 261 417 q 288 279 271 321 q 335 209 304 238 q 417 181 365 181 m 654 850 q 676 874 676 850 l 676 881 q 671 890 672 889 q 642 919 660 904 q 604 948 625 935 q 561 970 583 961 q 521 979 539 979 q 499 974 507 979 q 490 953 490 968 q 498 939 490 944 q 517 930 506 933 q 538 924 528 926 q 556 918 549 921 q 600 893 583 907 q 636 856 617 879 q 654 850 647 850 m 731 779 q 745 787 738 779 q 753 804 753 794 q 745 819 753 811 q 731 828 738 828 q 713 822 721 828 q 706 807 706 817 q 712 788 706 796 q 731 779 718 779 z "},"1":{"ha":500,"x_min":31,"x_max":488,"o":"m 483 999 q 487 964 488 981 q 483 928 486 947 q 467 767 475 846 q 452 611 458 689 q 442 453 446 533 q 438 289 438 374 q 442 172 438 231 q 446 49 446 113 q 431 -8 446 17 q 394 -47 417 -32 q 344 -63 372 -61 q 292 -55 317 -65 q 246 -19 267 -44 q 217 50 225 7 q 210 104 211 76 q 208 158 208 132 q 209 209 208 185 q 210 251 210 233 q 210 360 210 311 q 213 450 211 408 q 217 528 215 492 q 222 603 219 565 q 188 582 207 588 q 147 576 168 576 q 86 597 114 576 q 44 647 58 617 q 33 710 31 676 q 65 768 36 743 q 135 838 101 803 q 199 913 169 872 q 231 962 215 933 q 267 1017 247 990 q 313 1062 288 1043 q 372 1081 339 1081 q 444 1058 411 1081 q 483 999 476 1036 m 211 814 q 238 834 219 818 q 275 869 257 850 q 307 907 293 889 q 321 935 321 925 q 305 956 321 953 q 278 946 289 958 q 192 856 235 897 q 184 847 186 853 q 182 839 182 842 q 189 821 182 828 q 207 814 196 814 l 211 814 m 344 969 q 363 977 357 969 q 369 993 369 985 q 363 1009 369 1001 q 344 1017 357 1017 q 328 1009 333 1017 q 322 993 322 1001 q 328 977 322 985 q 344 969 333 969 z "},"2":{"ha":864,"x_min":43,"x_max":825,"o":"m 825 776 q 785 615 825 694 q 688 459 746 535 q 565 315 631 383 q 449 186 500 246 q 513 188 481 186 q 575 189 544 189 q 656 189 610 189 q 731 183 701 189 q 803 139 781 172 q 822 69 825 106 q 790 6 818 33 q 711 -22 763 -22 q 645 -20 683 -22 q 579 -18 607 -18 q 454 -23 517 -18 q 328 -33 392 -28 q 269 -40 300 -36 q 208 -44 238 -44 q 127 -14 161 -44 q 93 60 93 17 q 130 147 93 94 q 223 261 167 199 q 344 393 279 324 q 465 531 408 463 q 558 661 521 599 q 594 775 594 724 q 585 815 594 797 q 558 844 575 832 q 520 862 542 856 q 476 868 499 868 q 394 849 432 868 q 328 801 356 831 q 286 733 301 771 q 271 658 271 696 q 275 624 271 639 q 285 594 279 608 q 294 567 290 581 q 299 536 299 553 q 264 462 299 490 q 179 433 229 433 q 113 456 139 433 q 71 511 86 478 q 49 583 56 544 q 43 656 43 622 q 76 812 43 736 q 167 946 110 888 q 300 1040 224 1004 q 463 1075 376 1075 q 599 1054 533 1075 q 715 994 665 1033 q 795 900 765 956 q 825 776 825 844 m 654 975 q 637 968 643 975 q 631 953 631 961 q 637 939 631 946 q 654 932 643 932 q 672 939 665 932 q 678 953 678 946 q 672 968 678 961 q 654 975 667 975 m 582 969 q 598 976 592 969 q 604 990 604 983 q 589 1013 604 1003 q 551 1031 574 1024 q 506 1043 529 1039 q 469 1047 483 1047 q 444 1045 461 1047 q 411 1039 428 1043 q 382 1027 394 1035 q 369 1010 369 1019 q 374 995 369 1004 q 385 986 378 986 q 425 994 404 986 q 469 1003 446 1003 q 501 998 483 1003 q 533 987 518 993 q 559 976 549 981 q 571 971 569 971 q 582 969 574 969 m 561 96 q 576 101 571 96 q 581 113 581 106 q 576 126 581 119 q 563 138 572 133 q 522 144 546 143 q 483 144 499 144 q 465 145 476 144 q 442 144 453 146 q 424 136 432 142 q 417 119 417 131 q 424 106 417 113 q 439 99 431 99 q 463 100 451 99 q 486 101 475 101 q 524 99 506 101 q 561 96 542 96 z "},"3":{"ha":722,"x_min":24,"x_max":693,"o":"m 404 1054 q 566 978 504 1033 q 647 850 628 922 q 639 699 665 778 q 533 553 613 619 l 532 549 q 638 440 594 506 q 688 301 681 374 q 668 170 693 231 q 597 65 643 110 q 487 -8 550 19 q 353 -43 424 -36 q 269 -42 321 -46 q 167 -26 218 -39 q 79 15 117 -12 q 38 88 42 42 q 68 161 35 132 q 147 190 101 190 q 211 178 175 190 q 289 165 247 165 q 397 193 353 165 q 435 231 421 208 q 453 278 450 253 q 447 328 456 303 q 417 375 439 354 q 360 410 393 397 q 290 431 328 424 q 230 464 254 440 q 199 517 206 488 q 207 575 193 546 q 258 625 221 604 q 300 647 278 636 q 343 669 322 657 q 398 722 376 690 q 421 783 419 753 q 400 834 422 813 q 324 856 378 856 q 264 847 292 856 q 211 829 236 839 q 164 811 186 819 q 121 803 142 803 q 80 813 97 803 q 51 838 63 822 q 33 875 39 854 q 25 918 26 896 q 44 980 24 954 q 98 1023 64 1006 q 175 1049 132 1040 q 260 1061 218 1058 q 341 1062 303 1064 q 404 1054 379 1060 m 404 97 q 422 126 428 111 q 393 140 417 140 q 379 138 389 140 q 356 133 369 136 q 328 127 343 129 q 300 125 314 125 q 281 126 288 125 q 265 126 274 128 q 247 113 250 126 q 257 88 243 99 q 280 81 267 81 q 304 81 293 81 q 356 85 331 81 q 404 97 381 90 m 447 960 q 471 983 472 960 q 450 1006 469 996 q 406 1022 431 1015 q 356 1031 381 1028 q 318 1035 331 1035 q 303 1035 313 1035 q 283 1033 293 1035 q 265 1027 272 1031 q 258 1017 258 1024 q 267 997 260 1006 q 286 988 275 988 q 318 988 303 988 q 350 988 333 989 q 374 983 358 988 q 405 973 389 978 q 433 964 421 968 q 447 960 444 960 m 499 947 q 507 932 499 938 q 522 926 515 926 q 539 932 532 926 q 546 947 546 938 q 537 960 544 954 q 519 967 529 967 q 505 960 513 967 q 499 947 497 954 z "},"4":{"ha":836,"x_min":43,"x_max":796,"o":"m 776 726 q 772 553 774 639 q 774 376 771 467 q 778 258 776 317 q 786 140 781 200 q 792 85 789 114 q 796 28 796 57 q 763 -50 796 -18 q 682 -82 731 -82 q 599 -50 631 -82 q 565 28 568 -18 q 560 107 563 68 q 554 186 557 146 q 446 153 503 165 q 335 140 389 140 q 202 169 257 140 q 112 246 147 197 q 60 359 76 294 q 43 497 43 424 q 59 722 43 610 q 85 946 75 835 q 100 1003 86 976 q 159 1045 122 1033 q 231 1050 196 1057 q 290 1019 265 1043 q 315 956 315 994 q 312 892 315 925 q 303 829 308 858 q 283 647 293 742 q 274 469 274 553 q 300 376 274 399 q 366 357 326 353 q 453 383 406 361 q 543 425 500 404 q 544 674 539 551 q 556 924 549 797 q 589 1001 556 968 q 671 1035 622 1035 q 753 1002 719 1035 q 786 924 786 969 q 782 825 786 875 q 776 726 778 775 m 236 951 q 253 957 246 951 q 261 972 261 963 q 253 988 261 979 q 233 1002 244 996 q 211 1013 222 1008 q 193 1017 200 1017 q 175 1010 182 1017 q 168 992 168 1003 q 184 973 168 981 q 211 960 200 965 q 222 954 218 957 q 236 951 225 951 m 415 293 q 442 298 421 293 q 485 309 463 303 q 526 322 508 315 q 547 333 544 329 q 550 342 550 339 q 550 349 550 346 q 543 365 550 360 q 526 371 536 371 q 510 366 526 371 q 472 355 493 361 q 431 342 451 349 q 403 333 411 336 q 388 315 388 332 q 396 297 388 300 q 415 293 404 293 m 707 931 q 724 938 717 931 q 731 956 731 946 q 722 974 731 964 q 700 990 713 983 q 675 1002 688 997 q 656 1007 663 1007 q 637 998 643 1007 q 631 982 631 989 q 641 965 631 971 q 661 958 651 958 q 683 942 675 954 q 707 931 692 931 z "},"5":{"ha":769,"x_min":40,"x_max":732,"o":"m 269 601 q 423 610 342 615 q 573 575 504 606 q 687 485 642 544 q 732 331 732 426 q 713 213 732 268 q 658 111 693 157 q 574 30 622 65 q 471 -28 526 -6 q 405 -50 440 -40 q 333 -65 369 -60 q 260 -67 297 -69 q 190 -54 224 -65 q 141 -38 165 -47 q 98 -15 117 -29 q 67 19 79 -1 q 56 71 56 40 q 65 115 56 94 q 92 151 75 136 q 130 176 108 167 q 176 185 151 185 q 230 174 203 185 q 293 163 257 163 q 364 174 329 163 q 429 204 399 185 q 485 259 464 228 q 506 319 506 290 q 481 367 506 347 q 399 386 456 386 q 293 376 346 386 q 183 367 240 367 q 81 408 122 367 q 40 514 40 449 q 42 615 40 565 q 46 715 43 665 q 49 810 49 763 q 50 906 49 858 q 62 962 50 935 q 94 1009 74 989 q 143 1042 115 1029 q 203 1054 171 1054 q 265 1051 235 1054 q 326 1049 296 1049 q 443 1058 385 1049 q 565 1068 501 1068 q 642 1039 608 1068 q 675 964 675 1010 q 658 893 675 918 q 613 856 640 868 q 551 839 586 843 q 483 832 517 835 q 317 824 400 824 l 276 824 q 273 742 276 782 q 269 661 269 701 l 269 601 m 608 997 q 601 1013 608 1007 q 585 1019 593 1018 q 569 1016 576 1021 q 561 1000 561 1011 q 569 981 561 988 q 585 974 576 974 q 601 979 593 974 q 608 997 608 985 m 494 1010 q 422 1007 458 1010 q 349 1001 385 1004 q 325 979 325 1001 q 333 962 325 969 q 349 954 340 954 q 494 963 421 954 q 512 968 504 963 q 519 985 519 974 q 513 1003 519 996 q 494 1010 506 1010 m 299 74 q 338 78 311 74 q 393 90 365 82 q 442 108 421 97 q 464 135 464 119 q 458 151 464 143 q 443 158 453 158 q 426 154 438 158 q 408 144 415 150 q 377 134 397 139 q 337 126 357 129 q 301 119 317 122 q 281 114 285 117 q 275 96 275 107 q 282 81 275 89 q 299 74 289 74 z "},"6":{"ha":797,"x_min":36,"x_max":754,"o":"m 328 593 q 433 589 379 593 q 535 565 486 585 q 696 453 638 525 q 754 274 754 381 q 726 150 754 208 q 648 49 697 92 q 534 -19 599 6 q 399 -44 469 -44 q 294 -28 346 -44 q 199 17 243 -11 q 120 85 154 46 q 68 171 86 125 q 41 301 46 231 q 47 444 36 371 q 84 589 58 517 q 147 727 110 661 q 230 849 183 793 q 331 944 276 904 q 367 970 347 956 q 410 998 388 985 q 454 1020 432 1011 q 497 1029 476 1029 q 581 996 547 1029 q 614 918 614 963 q 602 871 614 889 q 572 840 590 853 q 533 815 554 826 q 493 790 511 804 q 329 594 392 717 l 328 593 m 479 983 q 462 976 469 983 q 454 961 454 969 q 462 944 454 951 q 479 938 469 938 q 497 944 490 938 q 504 961 504 951 q 497 976 504 969 q 479 983 490 983 m 403 947 q 374 933 396 947 q 331 901 353 919 q 291 863 308 882 q 274 835 274 844 q 281 819 274 826 q 299 811 289 811 q 308 814 301 811 q 317 821 314 817 q 365 865 340 844 q 417 903 389 886 q 431 926 431 913 q 422 940 431 933 q 403 947 414 947 m 471 100 q 468 117 471 111 q 454 128 465 122 q 425 122 439 128 q 396 117 411 117 q 384 117 392 117 q 374 121 376 118 q 355 118 363 121 q 340 106 347 115 l 340 100 q 359 77 340 81 q 393 74 378 74 q 412 75 399 74 q 438 79 425 76 q 461 88 451 82 q 471 100 471 93 m 360 176 q 413 167 383 164 q 467 185 442 171 q 510 224 493 200 q 528 276 528 247 q 511 327 528 307 q 468 358 494 347 q 411 374 442 369 q 354 379 381 379 q 316 378 335 379 q 278 375 297 376 q 274 314 275 343 q 280 260 272 285 q 306 213 288 235 q 360 176 324 192 m 583 450 q 603 456 594 450 q 611 474 611 463 q 595 498 611 486 q 557 518 579 510 q 513 531 535 526 q 479 536 492 536 q 453 533 464 536 q 442 513 442 529 q 449 497 442 504 q 465 490 456 490 q 514 484 494 490 q 547 470 533 478 q 568 456 560 463 q 583 450 576 450 z "},"7":{"ha":701,"x_min":33,"x_max":672,"o":"m 532 1006 q 585 994 560 1006 q 631 965 611 983 q 661 920 650 946 q 672 865 672 894 q 665 814 672 839 q 658 790 664 806 q 644 758 651 775 q 628 724 636 740 q 615 699 619 707 q 542 517 576 615 q 481 321 508 418 q 467 268 476 304 q 449 192 458 232 q 434 117 440 153 q 428 65 428 82 q 419 22 428 43 q 394 -15 410 1 q 357 -40 378 -31 q 313 -50 336 -50 q 232 -17 264 -50 q 200 65 200 17 q 201 74 200 71 q 201 85 201 78 q 229 260 210 172 q 276 434 249 347 q 335 606 303 521 q 401 771 368 690 l 143 756 q 86 768 110 753 q 49 808 63 783 q 35 861 36 832 q 44 916 33 890 q 80 960 56 942 q 143 982 104 979 l 278 992 q 406 1000 342 994 q 532 1006 469 1006 m 342 914 q 369 914 351 914 q 404 917 386 914 q 435 926 422 919 q 449 946 449 932 q 428 968 449 965 q 393 964 408 971 q 365 963 379 963 q 338 963 350 963 q 322 963 331 963 q 305 962 313 964 q 292 955 297 960 q 288 939 288 950 q 293 923 288 928 q 307 916 299 918 q 325 914 315 914 q 342 914 335 914 m 483 953 q 491 935 483 942 q 508 928 499 929 q 524 933 517 928 q 532 950 532 939 q 524 969 532 963 q 508 976 517 975 q 491 971 499 976 q 483 953 483 965 z "},"8":{"ha":824,"x_min":26,"x_max":782,"o":"m 646 489 q 725 410 693 456 q 769 313 757 365 q 772 206 782 261 q 726 100 763 151 q 656 22 697 57 q 567 -35 615 -12 q 465 -70 518 -58 q 358 -79 411 -82 q 242 -56 297 -76 q 144 2 186 -35 q 79 90 103 39 q 58 206 56 142 q 68 266 60 231 q 90 337 76 301 q 122 403 104 372 q 158 451 139 435 q 61 560 96 496 q 31 700 26 624 q 71 844 35 779 q 165 953 107 908 q 296 1022 222 999 q 449 1042 369 1046 q 643 984 568 1035 q 744 856 718 933 q 747 683 771 779 q 644 492 724 588 l 644 489 l 646 489 m 465 1003 q 410 1001 438 1006 q 353 989 383 996 q 341 979 344 986 q 338 965 338 972 q 344 951 339 957 q 357 943 349 944 q 409 950 382 942 q 463 956 436 958 q 489 952 475 956 q 515 947 503 949 q 533 951 525 947 q 542 965 542 956 q 535 983 543 976 q 514 994 526 990 q 488 1001 501 999 q 465 1003 475 1003 m 506 693 q 516 760 522 733 q 488 802 510 788 q 436 819 467 817 q 375 815 406 822 q 318 791 344 808 q 279 747 292 774 q 265 676 261 713 q 310 617 269 639 q 367 594 336 603 q 422 576 397 586 q 469 634 447 607 q 506 693 492 661 m 449 56 q 461 65 457 58 q 465 80 465 72 q 458 93 464 88 q 443 99 453 99 q 405 92 426 100 q 363 85 383 83 q 330 93 346 86 q 300 100 314 100 q 283 97 290 101 q 274 84 276 92 q 275 69 272 76 q 288 57 278 61 q 326 47 304 50 q 364 42 349 43 q 381 42 369 42 q 404 43 392 42 q 428 48 417 44 q 449 56 440 51 m 550 251 q 531 295 551 276 q 483 327 511 314 q 425 348 456 340 q 374 360 394 356 q 344 326 360 347 q 315 282 328 306 q 294 234 301 258 q 292 190 288 210 q 314 156 296 169 q 369 142 332 143 q 419 148 389 140 q 477 170 449 156 q 526 206 506 185 q 550 251 547 226 m 586 910 q 603 915 596 908 q 611 931 611 922 q 606 949 613 942 q 589 957 600 956 q 572 950 579 957 q 563 933 564 943 q 569 917 563 925 q 586 910 576 910 z "},"9":{"ha":803,"x_min":32,"x_max":764,"o":"m 74 847 q 144 940 101 899 q 241 1004 188 981 q 355 1032 294 1028 q 478 1015 415 1036 q 606 936 553 988 q 695 819 660 885 q 747 677 731 753 q 764 526 764 601 q 732 322 764 424 q 638 138 700 219 q 484 4 575 56 q 276 -47 393 -47 q 218 -42 249 -47 q 161 -24 188 -37 q 117 13 135 -11 q 100 72 100 36 q 113 128 100 107 q 146 160 125 149 q 192 176 167 172 q 246 181 218 181 q 337 194 292 181 q 419 235 382 208 q 482 301 456 263 q 518 390 508 340 q 460 383 489 386 q 404 379 432 379 q 229 417 308 379 q 102 519 150 456 q 43 668 54 583 q 74 847 32 753 m 303 94 q 376 104 336 94 q 442 143 417 114 q 450 163 450 153 q 435 182 450 172 q 405 172 418 182 q 376 157 392 163 q 351 150 367 153 q 321 145 336 147 q 293 141 306 143 q 276 135 281 139 q 269 118 269 129 q 281 99 269 103 q 303 94 292 94 m 369 990 q 334 985 354 990 q 314 957 314 981 q 322 942 314 946 q 340 938 331 938 l 346 938 q 360 940 349 939 q 375 942 371 942 q 419 933 394 942 q 461 913 444 924 l 461 911 q 468 905 464 908 q 478 901 472 901 q 495 908 488 901 q 503 924 503 914 q 488 951 503 939 q 451 972 472 964 q 406 985 429 981 q 369 990 383 990 m 411 607 q 525 622 467 607 q 508 683 521 650 q 476 744 496 717 q 429 786 457 771 q 365 794 401 801 q 290 756 313 786 q 273 692 267 725 q 314 633 279 658 q 411 607 349 607 m 549 860 q 566 867 558 860 q 574 882 574 875 q 566 899 574 892 q 549 907 558 907 q 533 899 540 907 q 525 882 525 892 q 533 867 525 875 q 549 860 540 860 z "},"\u0000":{"ha":0,"x_min":0,"x_max":0,"o":""},"\r":{"ha":406,"x_min":0,"x_max":0,"o":""}," ":{"ha":406,"x_min":0,"x_max":0,"o":""},"~":{"ha":997,"x_min":50,"x_max":943,"o":"m 825 775 q 906 742 872 775 q 940 661 940 708 q 942 630 940 644 q 943 599 943 615 q 926 470 943 532 q 876 358 910 408 q 792 274 843 308 q 671 228 740 239 q 567 231 611 218 q 493 273 524 243 q 443 347 463 303 q 411 447 424 392 q 383 524 399 504 q 349 535 367 544 q 315 494 332 526 q 286 411 299 461 q 277 366 281 388 q 265 326 274 344 q 241 292 257 307 q 193 265 225 276 q 178 264 186 265 q 164 263 171 263 q 109 276 132 263 q 73 312 86 289 q 55 363 60 335 q 56 424 50 392 q 94 546 65 482 q 166 663 122 610 q 267 752 210 717 q 390 788 324 788 q 475 772 439 788 q 537 731 511 757 q 581 669 563 704 q 611 596 599 635 q 647 511 629 542 q 681 480 665 481 q 706 511 696 479 q 715 614 715 543 q 714 636 715 625 q 713 661 713 647 q 720 703 711 683 q 745 740 729 724 q 782 765 761 756 q 825 775 803 775 m 253 638 q 267 649 256 638 q 281 664 278 660 q 302 675 289 671 q 328 683 315 679 q 349 693 340 688 q 358 707 358 699 q 353 724 358 717 q 338 732 347 732 q 306 726 326 732 q 267 711 286 721 q 232 688 247 701 q 217 658 217 675 q 217 654 217 656 q 218 651 218 653 q 226 638 218 643 q 240 633 233 633 q 253 638 244 633 m 422 681 q 438 688 431 681 q 446 704 446 694 q 438 722 446 714 q 422 729 431 729 q 405 723 413 729 q 397 706 397 717 q 404 688 397 694 q 422 681 411 681 m 663 361 q 685 367 671 361 q 711 381 699 372 q 733 401 724 390 q 743 421 743 411 q 736 438 743 432 q 718 444 729 444 q 691 430 710 444 q 657 408 672 415 q 649 403 653 407 q 642 397 644 400 q 640 385 640 393 q 653 364 640 369 q 663 361 656 361 z "},"¤":{"ha":1115,"x_min":47,"x_max":1064,"o":"m 949 936 q 1030 903 996 936 q 1064 822 1064 871 q 1058 787 1064 803 q 1042 758 1051 771 q 1019 731 1032 744 q 994 704 1007 718 q 972 685 983 694 q 949 665 961 675 q 976 623 964 647 q 995 572 988 599 q 1007 519 1003 546 q 1011 469 1011 492 q 1005 408 1011 440 q 986 342 999 375 q 957 281 974 310 q 919 231 940 251 q 956 201 936 217 q 992 169 975 186 q 1019 131 1008 151 q 1029 85 1029 110 q 996 4 1029 38 q 915 -29 963 -29 q 856 -12 879 -29 q 810 28 833 4 q 772 61 790 46 q 733 94 753 76 q 729 96 731 96 q 725 97 728 96 q 629 72 678 82 q 531 61 581 61 q 453 69 493 61 q 378 94 413 76 q 358 77 376 90 q 316 49 339 64 q 272 18 293 33 q 242 -3 250 3 q 218 -22 229 -14 q 189 -32 207 -29 q 176 -35 185 -33 q 163 -37 168 -37 q 81 -3 115 -37 q 47 78 47 31 q 54 118 47 101 q 74 149 61 135 q 101 174 86 163 q 133 199 117 186 q 204 250 168 225 q 182 324 189 281 q 177 412 175 367 q 192 499 179 457 q 226 569 204 540 q 189 601 207 586 q 151 633 171 617 q 114 660 132 647 q 81 686 96 672 q 56 718 65 700 q 47 764 47 736 q 56 808 47 786 q 80 844 65 829 q 115 869 94 860 q 157 879 135 879 q 190 876 176 879 q 218 863 204 872 q 302 803 263 835 q 379 739 342 771 q 452 776 414 758 q 535 803 490 793 q 636 813 581 813 q 763 800 692 814 q 806 839 785 815 q 848 884 826 863 q 894 921 869 906 q 949 936 918 936 m 735 747 q 718 740 725 747 q 711 724 711 732 q 718 707 711 714 q 735 700 725 700 q 752 707 744 700 q 760 724 760 714 q 752 740 760 732 q 735 747 744 747 m 643 769 q 606 768 633 769 q 550 761 579 767 q 498 747 521 756 q 475 724 475 738 q 481 705 475 713 q 501 697 488 697 q 517 700 506 697 q 540 707 528 703 q 565 715 553 711 q 586 719 578 718 q 615 721 601 721 q 643 721 628 721 q 660 728 653 721 q 668 744 668 735 q 661 763 668 756 q 643 769 654 769 m 543 189 q 562 188 551 189 q 581 190 572 188 q 595 197 589 192 q 601 214 601 203 q 594 231 601 224 q 576 239 586 239 q 510 241 539 239 q 444 256 481 243 q 431 261 442 261 q 411 252 415 261 q 407 231 407 243 q 425 213 407 221 q 467 200 443 206 q 513 192 490 194 q 543 189 535 189 m 692 332 q 743 377 721 347 q 774 441 765 407 q 775 509 783 475 q 732 567 767 543 q 638 590 693 593 q 530 562 582 586 q 441 495 478 538 q 404 401 404 453 q 404 376 404 388 q 408 353 404 364 q 463 303 424 317 q 538 290 501 290 q 613 301 569 290 q 692 332 656 313 z "},"`":{"ha":471,"x_min":53,"x_max":417,"o":"m 142 1026 q 177 1020 160 1028 q 206 1001 194 1013 q 226 981 215 990 q 246 960 236 971 q 292 912 268 936 q 339 867 315 888 q 365 845 351 854 q 389 825 378 836 q 408 794 399 815 q 417 760 417 774 q 390 698 417 725 q 326 671 363 671 q 290 679 304 671 q 241 713 271 688 q 180 769 211 739 q 121 829 149 800 q 79 874 93 858 q 53 938 53 901 q 68 988 53 963 q 107 1021 83 1014 q 142 1026 122 1029 m 218 871 q 234 878 228 871 q 240 894 240 885 q 235 911 240 906 q 206 938 219 924 q 178 968 193 953 q 160 978 175 978 q 142 972 149 978 q 135 956 135 967 q 145 934 135 949 q 169 906 156 919 q 197 881 183 892 q 218 871 211 871 m 285 824 q 301 831 294 824 q 308 847 308 838 q 301 864 308 857 q 285 871 294 871 q 267 864 275 871 q 260 847 260 857 q 267 831 260 838 q 285 824 275 824 z "},"?":{"ha":906,"x_min":40,"x_max":863,"o":"m 506 1068 q 622 1056 560 1068 q 738 1015 685 1043 q 827 940 792 986 q 863 826 863 894 q 849 753 863 789 q 815 685 836 718 q 768 623 794 653 q 715 568 742 593 q 670 526 693 549 q 629 476 647 503 q 600 421 611 450 q 589 358 589 392 q 591 326 589 340 q 593 296 593 311 q 563 222 593 247 q 492 196 532 197 q 416 217 453 194 q 367 288 379 239 q 361 403 351 347 q 397 510 371 458 q 462 611 422 563 q 546 704 501 660 q 605 772 583 742 q 625 821 626 801 q 597 851 624 840 q 513 861 571 861 q 438 853 482 861 q 353 827 393 846 q 287 778 313 808 q 268 704 261 749 q 282 674 271 686 q 305 650 293 663 q 326 621 317 638 q 335 578 335 604 q 303 506 335 538 q 226 475 271 475 q 147 500 182 475 q 89 562 113 525 q 53 640 65 599 q 40 717 40 682 q 81 867 40 801 q 189 978 122 933 q 339 1045 256 1022 q 506 1068 422 1068 m 525 990 q 542 997 533 990 q 550 1014 550 1003 q 532 1033 550 1031 q 501 1035 514 1035 q 467 1033 489 1035 q 422 1028 446 1032 q 374 1020 397 1025 q 338 1008 351 1015 q 326 998 331 1004 q 320 985 321 992 q 325 973 319 978 q 343 968 331 968 q 363 971 350 968 q 390 977 375 974 q 418 984 404 981 q 442 989 432 988 q 481 990 461 990 q 525 990 501 990 m 604 974 q 621 981 615 974 q 626 996 626 988 q 621 1011 626 1004 q 604 1018 615 1018 q 585 1011 592 1018 q 579 996 579 1004 q 585 981 579 988 q 604 974 592 974 m 438 369 q 446 372 440 369 q 453 378 451 375 q 459 389 458 381 q 460 404 460 397 q 468 436 460 419 q 476 465 476 453 q 460 488 476 483 q 442 485 447 488 q 432 471 438 482 q 419 428 424 453 q 414 389 414 404 q 421 375 414 381 q 438 369 428 369 m 619 35 q 610 -3 619 15 q 587 -36 601 -22 q 553 -58 572 -50 q 514 -67 535 -67 q 429 -39 465 -67 q 393 35 393 -11 q 427 110 393 79 q 507 142 461 142 q 585 112 551 142 q 619 35 619 82 m 543 40 q 571 40 556 31 q 578 65 586 49 q 547 96 571 85 q 503 107 522 107 q 485 100 493 107 q 478 83 478 93 q 492 65 478 72 q 518 53 503 60 q 543 40 533 46 z "},"_":{"ha":1010,"x_min":49,"x_max":954,"o":"m 954 -11 q 922 -92 954 -60 q 842 -125 889 -125 q 636 -124 738 -125 q 429 -129 535 -124 q 310 -139 369 -133 q 190 -154 250 -144 q 160 -158 179 -158 q 119 -149 139 -158 q 83 -125 99 -140 q 58 -90 68 -110 q 49 -46 49 -69 q 59 6 49 -19 q 93 44 69 31 q 132 67 111 64 q 392 96 260 86 q 656 106 524 106 q 749 106 703 106 q 842 103 796 106 q 910 78 882 101 q 951 19 938 56 q 953 3 951 11 q 954 -11 954 -4 m 701 7 q 715 15 708 7 q 722 32 722 24 q 715 47 722 40 q 699 54 707 53 q 624 60 658 57 q 549 64 589 64 q 533 57 542 64 q 525 40 525 50 l 525 39 q 532 22 525 28 q 549 15 539 15 q 624 13 589 15 q 699 7 658 10 l 701 7 m 781 3 q 797 10 789 3 q 804 26 804 18 q 797 44 804 36 q 781 51 789 51 q 763 44 771 51 q 756 26 756 36 q 763 10 756 18 q 781 3 771 3 z "},"]":{"ha":590,"x_min":47,"x_max":540,"o":"m 47 -21 q 81 53 47 22 q 163 85 115 85 l 310 85 q 310 441 310 263 q 311 799 311 619 l 311 944 q 276 944 296 944 q 233 944 256 944 q 190 945 211 944 q 153 949 169 946 q 81 978 111 956 q 51 1051 51 1000 q 85 1125 51 1094 q 165 1156 118 1156 q 213 1156 183 1156 q 274 1155 242 1156 q 339 1153 307 1154 q 396 1150 371 1151 q 451 1137 425 1147 q 497 1109 476 1126 q 528 1068 517 1092 q 540 1015 540 1044 l 540 674 q 539 367 540 521 q 538 63 538 214 q 512 -57 538 -18 q 442 -110 486 -96 q 338 -124 397 -125 q 213 -124 279 -124 l 163 -124 q 81 -94 115 -124 q 47 -21 47 -64 m 176 1100 q 162 1092 169 1100 q 154 1078 154 1085 q 160 1063 154 1069 q 176 1056 167 1056 q 194 1063 189 1056 q 200 1079 200 1069 q 193 1094 200 1088 q 176 1100 186 1100 m 371 1089 q 363 1104 371 1100 q 346 1111 356 1108 q 319 1112 338 1111 q 281 1111 300 1113 q 249 1104 263 1110 q 235 1086 235 1099 q 242 1072 235 1079 q 260 1065 250 1065 q 301 1066 281 1065 q 346 1067 322 1067 q 363 1073 356 1064 q 371 1089 371 1082 m 313 15 q 329 42 332 19 l 329 43 q 326 51 328 49 q 321 56 324 53 q 303 59 317 58 q 272 59 289 60 q 240 57 256 58 q 219 54 225 56 q 203 44 210 53 q 199 26 197 35 q 210 11 200 17 q 226 10 211 10 q 258 11 240 10 q 292 14 276 13 q 313 15 308 15 z "},"\\":{"ha":610,"x_min":35,"x_max":561,"o":"m 35 1038 q 65 1113 35 1085 q 134 1146 96 1140 q 208 1133 172 1151 q 257 1068 244 1114 q 281 997 264 1049 q 319 876 297 946 q 369 722 342 806 q 423 551 396 638 q 475 382 450 464 q 519 233 500 300 q 549 121 538 167 q 561 63 561 75 q 532 -17 561 13 q 465 -53 503 -47 q 391 -39 428 -58 q 339 29 354 -19 q 310 131 322 88 q 287 212 297 175 q 265 283 276 249 q 242 357 254 318 q 216 443 231 396 q 182 554 201 490 q 165 611 178 571 q 136 703 153 651 q 101 810 119 754 q 69 915 83 867 q 44 997 54 963 q 35 1038 35 1031 m 218 1040 q 210 1065 218 1054 q 188 1085 201 1076 q 160 1097 175 1093 q 132 1101 144 1101 q 103 1099 118 1101 q 88 1076 88 1096 q 96 1059 88 1065 q 114 1053 104 1053 q 149 1049 135 1053 q 179 1029 163 1046 l 175 1032 q 183 1026 178 1029 q 190 1024 188 1024 q 208 1026 201 1024 q 218 1040 214 1029 z "},"[":{"ha":590,"x_min":60,"x_max":553,"o":"m 553 -21 q 519 -94 553 -64 q 438 -124 485 -124 l 388 -124 q 262 -124 321 -124 q 158 -110 203 -125 q 88 -57 114 -96 q 63 63 63 -18 q 61 367 63 214 q 60 674 60 521 l 60 1015 q 72 1068 60 1044 q 103 1109 83 1092 q 149 1137 124 1126 q 204 1150 175 1147 q 261 1153 229 1151 q 326 1155 293 1154 q 387 1156 358 1156 q 435 1156 415 1156 q 515 1125 482 1156 q 549 1051 549 1094 q 519 978 549 1000 q 447 949 489 956 q 410 945 431 946 q 367 944 389 944 q 324 944 344 944 q 289 944 304 944 l 289 799 q 290 441 289 619 q 290 85 290 263 l 438 85 q 519 53 485 85 q 553 -21 553 22 m 424 1100 q 407 1094 414 1100 q 400 1079 400 1088 q 406 1063 400 1069 q 424 1056 411 1056 q 440 1063 433 1056 q 446 1078 446 1069 q 438 1092 446 1085 q 424 1100 431 1100 m 229 1089 q 237 1073 229 1082 q 254 1067 244 1064 q 299 1066 278 1067 q 340 1065 319 1065 q 358 1072 350 1065 q 365 1086 365 1079 q 351 1104 365 1099 q 319 1111 338 1110 q 281 1112 300 1113 q 254 1111 263 1111 q 237 1104 244 1108 q 229 1089 229 1100 m 288 15 q 308 14 292 15 q 342 11 324 13 q 374 10 360 10 q 390 11 388 10 q 401 26 400 17 q 397 44 403 35 q 381 54 390 53 q 359 57 374 56 q 328 59 344 58 q 297 59 311 60 q 279 56 283 58 q 274 51 276 53 q 271 43 272 49 l 271 42 q 288 15 268 19 z "},"Z":{"ha":953,"x_min":35,"x_max":921,"o":"m 506 179 q 672 174 589 179 q 836 153 754 168 q 897 116 872 146 q 921 54 921 86 q 886 -23 921 7 q 803 -53 851 -53 q 780 -50 792 -53 q 758 -46 768 -47 q 651 -33 711 -36 q 527 -30 592 -29 q 397 -35 463 -31 q 274 -46 332 -40 q 226 -54 250 -50 q 178 -58 201 -58 q 83 -26 119 -58 q 46 58 46 6 q 60 132 46 92 q 100 215 75 172 q 156 301 125 257 q 221 389 188 346 q 316 508 272 454 q 401 611 360 561 q 483 713 442 661 q 571 826 524 765 q 424 819 497 826 q 276 803 351 813 q 249 799 265 801 q 213 793 232 796 q 177 788 194 790 q 150 786 160 786 q 108 794 129 786 q 71 817 88 803 q 44 849 54 831 q 35 889 35 868 q 58 954 35 922 q 118 992 81 986 q 398 1027 256 1017 q 681 1038 540 1038 q 737 1037 710 1038 q 788 1031 764 1036 q 835 1013 813 1026 q 878 975 857 1000 q 897 911 897 944 q 890 878 897 897 q 874 847 883 858 q 818 778 847 811 q 758 713 789 744 q 554 445 657 578 q 360 174 451 313 q 432 177 394 175 q 506 179 469 179 m 656 1004 q 641 1001 647 1004 q 635 990 635 997 q 641 978 635 983 q 656 974 647 974 q 667 978 663 974 q 672 990 672 983 q 667 1001 672 997 q 656 1004 663 1004 m 388 964 q 486 966 436 964 q 583 975 536 968 q 598 978 592 975 q 604 990 604 982 q 598 1003 604 997 q 583 1008 592 1008 q 485 1003 535 1008 q 388 997 436 997 q 375 992 378 997 q 372 979 372 986 q 388 964 372 964 m 544 103 q 558 108 551 103 q 564 121 564 114 q 553 133 564 129 q 526 138 542 138 q 497 139 511 139 q 474 139 482 139 q 451 139 469 139 q 411 138 432 139 q 373 135 390 136 q 354 129 356 133 q 350 125 351 128 q 349 119 349 122 q 355 106 349 113 q 367 100 361 100 q 417 103 392 100 q 469 106 442 106 q 507 104 489 106 q 544 103 525 103 z "},"Y":{"ha":1083,"x_min":18,"x_max":1054,"o":"m 847 1010 q 901 1051 867 1040 q 970 1054 936 1061 q 1029 1023 1004 1047 q 1054 960 1054 999 q 1038 906 1054 932 q 1008 854 1022 881 q 933 739 976 801 q 857 622 889 676 q 787 507 822 564 q 715 393 751 450 q 697 364 706 379 q 681 338 689 349 q 684 197 678 271 q 690 57 690 124 q 676 8 690 31 q 640 -29 663 -15 q 590 -47 618 -43 q 536 -39 563 -50 q 493 -10 507 -28 q 474 31 479 8 q 468 78 468 53 q 467 126 468 103 q 467 169 467 139 q 466 232 467 200 q 463 292 465 264 q 458 329 461 321 q 440 355 451 340 q 417 385 429 369 q 392 416 404 401 q 371 442 379 431 q 202 658 286 550 q 36 876 118 767 q 18 926 18 896 q 53 1001 18 971 q 133 1031 88 1031 q 185 1016 160 1031 q 226 978 210 1001 q 272 918 249 947 q 318 861 294 889 q 437 705 376 782 q 557 553 497 628 l 557 554 q 701 783 624 664 q 847 1010 778 901 m 269 811 q 281 822 282 811 q 276 840 279 833 q 250 879 268 854 q 213 929 232 904 q 178 973 194 954 q 160 992 163 992 l 154 992 q 136 975 136 992 q 138 967 136 969 q 156 946 146 956 q 172 925 165 936 q 199 889 186 906 q 226 853 213 872 q 243 828 232 844 q 269 811 254 811 m 318 763 q 330 767 325 763 q 335 778 335 771 q 330 790 335 785 q 318 794 325 794 q 304 790 311 794 q 297 778 297 785 q 304 766 297 769 q 318 763 311 763 m 965 988 q 978 975 972 981 q 994 974 983 969 q 1007 988 1007 976 q 999 1003 1007 993 q 981 1022 992 1013 q 960 1038 971 1031 q 942 1044 949 1044 q 925 1028 925 1044 q 942 1009 925 1021 q 965 988 958 997 z "},"X":{"ha":890,"x_min":36,"x_max":863,"o":"m 576 524 q 660 407 621 465 q 739 289 699 349 q 797 204 768 246 q 850 118 825 163 q 860 62 863 90 q 844 10 858 33 q 806 -29 831 -14 q 746 -44 781 -44 q 692 -29 718 -44 q 654 10 667 -14 q 555 162 601 85 q 451 314 508 239 q 432 280 443 297 q 402 231 421 263 q 353 149 383 200 q 274 18 322 99 q 233 -20 258 -6 q 175 -35 207 -35 q 133 -27 153 -35 q 97 -6 113 -19 q 71 27 81 8 q 61 69 61 46 q 65 99 61 83 q 79 125 69 114 q 195 319 142 221 q 310 515 249 417 q 304 521 307 518 q 300 526 301 524 l 179 690 q 115 769 147 731 q 54 849 83 808 q 42 874 47 858 q 36 901 36 890 q 72 980 36 949 q 157 1011 108 1011 q 191 1003 176 1011 q 222 988 206 996 q 245 963 229 982 q 282 919 261 944 q 326 863 303 893 q 371 804 350 832 q 408 753 392 776 q 433 721 425 731 q 478 794 457 760 q 519 860 499 828 q 562 924 540 892 q 608 994 583 957 q 647 1033 621 1019 q 706 1047 674 1047 q 764 1033 739 1047 q 802 994 789 1018 q 817 942 815 971 q 806 886 818 914 q 775 844 789 863 q 747 807 761 825 q 720 770 733 789 q 693 726 707 751 q 635 624 665 675 q 576 524 604 572 m 301 772 q 315 778 308 772 q 322 792 322 785 q 304 821 322 797 q 263 872 286 844 q 219 925 240 900 q 193 958 199 950 q 188 961 193 960 q 181 963 183 963 q 173 961 176 963 q 165 958 169 960 q 161 951 163 954 q 160 942 160 947 q 174 922 160 940 q 207 882 189 904 q 241 840 225 860 q 261 815 257 819 q 269 807 264 814 q 279 792 274 800 q 290 778 285 785 q 299 772 294 772 l 301 772 m 344 722 q 356 725 351 722 q 361 733 361 728 q 358 749 361 742 q 344 757 354 757 q 331 751 338 757 q 325 738 325 744 q 332 726 325 731 q 344 722 339 722 m 576 208 q 588 213 583 208 q 593 225 593 218 q 585 242 593 229 q 567 270 578 256 q 547 297 557 285 q 533 315 538 310 q 518 324 528 324 q 506 318 511 324 q 501 306 501 313 q 509 288 501 300 q 527 261 517 275 q 547 234 538 247 q 561 215 557 221 q 576 208 564 208 z "},"W":{"ha":1364,"x_min":56,"x_max":1315,"o":"m 1315 365 q 1313 290 1315 329 q 1303 211 1311 250 q 1282 135 1296 172 q 1246 67 1268 97 q 1167 -8 1213 17 q 1072 -33 1121 -32 q 972 -14 1022 -35 q 881 49 922 7 q 819 120 851 78 q 758 208 788 163 q 701 300 728 254 q 656 382 675 346 q 592 263 632 332 q 500 129 553 193 q 384 21 447 65 q 253 -24 321 -24 q 175 -3 210 -24 q 117 49 140 17 q 84 129 96 79 q 66 234 72 179 q 58 342 60 289 q 56 432 56 396 q 58 603 56 519 q 63 775 60 688 q 67 863 64 819 q 72 950 69 906 q 76 978 72 965 q 89 1001 79 990 q 131 1039 106 1025 q 188 1053 157 1053 q 227 1045 207 1053 q 263 1024 247 1038 q 290 994 279 1011 q 300 957 300 976 q 297 874 300 917 q 290 789 293 832 q 285 608 288 699 q 282 426 282 518 q 309 258 282 265 q 419 406 336 251 q 453 479 436 439 q 488 561 471 519 q 523 643 506 603 q 557 715 540 683 q 596 751 575 736 q 647 767 617 767 q 742 724 707 767 q 758 695 749 715 q 776 651 767 675 q 795 605 786 628 q 810 569 804 582 q 863 467 828 531 q 938 339 897 403 q 1053 206 1019 210 q 1088 347 1088 201 q 1079 564 1088 457 q 1053 778 1071 671 q 1046 816 1050 793 q 1038 863 1042 839 q 1030 910 1033 888 q 1026 946 1026 932 q 1035 984 1026 965 q 1059 1017 1044 1003 q 1094 1040 1074 1032 q 1136 1049 1114 1049 q 1203 1029 1172 1049 q 1247 975 1233 1010 q 1272 850 1263 913 q 1289 725 1281 788 q 1308 547 1300 638 q 1315 365 1315 457 m 147 1003 q 149 992 147 997 q 158 986 149 990 q 177 978 167 982 q 197 970 188 974 q 206 967 206 967 q 219 972 213 967 q 225 982 225 976 q 217 995 225 989 q 200 1006 210 1001 q 179 1013 190 1010 q 163 1015 168 1015 q 147 1003 150 1015 m 236 921 q 249 926 244 921 q 254 937 254 931 q 250 948 254 943 q 236 953 246 953 q 224 948 228 953 q 220 937 219 943 q 225 926 221 931 q 236 921 229 921 m 726 582 q 738 543 726 572 q 763 482 749 514 q 792 421 778 450 q 815 382 807 392 q 835 375 825 375 q 849 392 849 375 l 849 394 q 846 399 849 396 q 799 492 818 447 q 763 589 781 536 q 743 600 757 600 q 732 595 738 600 q 726 582 726 590 m 857 328 q 868 332 863 328 q 874 343 874 336 q 870 355 874 350 q 857 360 867 360 q 844 356 850 360 q 839 346 839 353 q 845 334 839 340 q 857 328 851 328 m 1179 964 q 1199 981 1199 964 q 1188 996 1199 989 q 1163 1008 1178 1003 q 1135 1016 1149 1013 q 1113 1019 1121 1019 q 1093 1003 1093 1019 q 1100 990 1093 993 q 1117 986 1107 988 q 1167 969 1144 985 q 1179 964 1175 964 z "},"V":{"ha":979,"x_min":35,"x_max":949,"o":"m 835 1101 q 916 1067 883 1101 q 949 985 949 1033 q 930 907 949 972 q 882 749 911 842 q 817 547 853 656 q 746 341 781 439 q 682 168 711 243 q 636 67 653 93 q 615 33 625 49 q 589 1 604 17 q 490 -42 544 -43 q 392 6 436 -42 q 338 89 358 42 q 299 181 318 136 q 239 353 264 264 q 186 531 214 443 q 130 702 158 618 q 69 872 101 786 q 47 920 60 896 q 35 971 35 944 q 69 1053 35 1019 q 151 1086 103 1086 q 208 1070 179 1086 q 249 1029 236 1054 q 303 910 278 972 q 349 781 328 847 q 390 650 371 715 q 428 524 410 585 q 459 415 444 468 q 493 310 474 361 q 563 502 531 406 q 625 696 594 599 q 675 858 650 779 q 724 1019 700 938 q 764 1078 731 1056 q 835 1101 797 1101 m 183 1010 q 186 1001 183 1004 q 206 967 197 985 q 224 931 215 950 q 238 892 233 911 q 253 851 243 872 q 271 836 256 836 q 285 844 281 836 q 289 858 289 851 q 279 892 289 867 q 256 947 269 918 q 229 999 243 975 q 207 1029 215 1024 l 203 1029 q 189 1023 194 1029 q 183 1010 183 1017 m 301 765 q 313 772 308 765 q 317 783 317 778 q 301 801 317 801 q 283 783 283 801 q 288 771 283 776 q 301 765 293 765 m 543 249 q 560 261 557 249 q 571 294 561 268 q 591 351 581 321 q 610 404 601 381 q 618 428 618 428 l 618 432 q 611 440 618 436 q 597 444 604 444 l 596 444 q 590 441 593 444 q 585 436 588 438 q 571 403 581 428 q 551 350 561 378 q 533 298 540 322 q 525 268 525 274 q 531 255 525 261 q 543 249 536 249 z "},"U":{"ha":1019,"x_min":47,"x_max":972,"o":"m 804 1056 q 858 1045 838 1056 q 899 1013 879 1035 q 910 996 906 1001 q 917 975 914 990 q 960 696 947 836 q 972 413 972 556 q 963 302 972 358 q 931 194 953 246 q 874 98 908 142 q 788 25 839 54 q 644 -33 721 -15 q 488 -51 567 -51 q 280 -6 364 -51 q 144 115 196 39 q 69 292 92 190 q 47 506 47 393 q 49 612 47 556 q 56 725 51 668 q 67 838 60 782 q 83 943 74 894 q 94 969 86 957 q 111 992 101 982 q 151 1016 131 1007 q 194 1025 171 1025 q 274 991 243 1025 q 306 914 306 957 q 300 885 306 896 q 280 717 285 804 q 275 540 275 631 q 278 410 275 476 q 301 290 281 344 q 366 202 321 236 q 497 168 411 168 q 685 226 626 168 q 744 417 744 285 q 741 591 744 504 q 726 765 738 678 q 717 807 724 782 q 706 858 711 832 q 696 908 700 885 q 692 944 692 931 q 708 1000 692 976 q 750 1042 724 1024 q 776 1051 764 1046 q 804 1056 789 1056 m 185 963 q 207 949 196 956 q 229 931 218 942 q 250 918 242 918 q 262 924 257 918 q 267 936 267 929 q 258 953 267 943 q 236 973 249 964 q 210 988 224 982 q 190 994 197 994 q 177 990 182 994 q 172 978 172 985 q 185 963 172 965 m 254 843 q 269 848 264 842 q 276 862 275 854 q 272 876 276 869 q 258 882 268 882 q 245 876 250 882 q 239 864 240 871 q 242 851 238 857 q 254 843 246 844 m 490 106 q 503 110 496 106 q 510 121 510 114 q 503 134 510 129 q 490 139 497 139 q 429 147 458 144 q 368 161 400 150 q 345 173 357 164 q 322 182 333 182 q 308 161 308 176 q 340 135 317 146 q 391 118 363 125 q 447 108 419 111 q 490 106 474 106 m 800 1006 q 816 998 804 1001 q 832 992 828 994 q 839 983 838 988 q 850 979 840 979 q 868 996 868 979 q 860 1012 868 1004 q 840 1026 851 1019 q 815 1035 828 1032 q 794 1039 803 1039 q 784 1034 789 1039 q 779 1022 779 1029 q 785 1009 779 1013 q 800 1006 792 1006 m 882 925 q 896 929 889 925 q 903 940 903 933 q 896 954 903 947 q 882 961 889 961 q 871 954 875 961 q 867 940 867 947 q 882 925 867 925 z "},"T":{"ha":1004,"x_min":39,"x_max":972,"o":"m 972 925 q 963 881 972 901 q 937 844 953 860 q 900 819 921 829 q 856 810 879 810 q 733 814 793 810 q 610 818 672 818 q 597 619 597 729 q 604 402 597 510 q 622 203 611 294 q 642 61 632 113 q 640 24 646 42 q 621 -7 633 7 q 592 -32 608 -21 q 557 -49 575 -43 q 543 -50 551 -49 q 526 -51 535 -51 q 455 -20 485 -51 q 414 56 425 11 q 390 192 400 107 q 374 382 379 278 q 371 599 369 486 q 382 821 372 713 q 269 819 324 821 q 156 818 214 818 q 110 827 131 818 q 73 852 89 836 q 48 889 57 868 q 39 933 39 910 q 48 974 39 954 q 72 1010 57 994 q 106 1037 86 1026 q 146 1047 125 1047 q 226 1048 186 1047 q 310 1049 267 1049 q 581 1047 446 1049 q 856 1038 717 1044 q 885 1035 871 1038 q 913 1024 899 1032 q 956 983 940 1008 q 972 925 972 957 m 786 969 q 801 986 801 969 q 786 1004 801 1004 q 714 1008 750 1004 q 642 1013 678 1011 q 615 1015 628 1013 q 589 1017 601 1017 q 581 1013 586 1017 q 575 1004 575 1010 l 575 1003 q 578 992 575 997 q 588 983 581 986 q 664 973 624 976 q 744 969 704 969 l 786 969 m 846 969 q 863 986 863 969 q 846 1004 863 1004 q 833 999 839 1004 q 826 986 826 993 q 833 974 826 978 q 846 969 839 969 z "},"S":{"ha":864,"x_min":42,"x_max":826,"o":"m 826 243 q 806 138 826 185 q 749 55 785 90 q 666 -5 714 19 q 564 -42 618 -29 q 490 -53 533 -49 q 397 -55 446 -57 q 297 -44 347 -53 q 201 -21 246 -36 q 119 17 156 -6 q 64 74 83 40 q 49 129 49 100 q 58 172 49 151 q 82 208 67 193 q 117 233 97 224 q 160 242 138 242 q 194 236 179 242 q 223 224 210 231 q 251 208 236 217 q 282 194 265 200 q 353 171 317 179 q 428 163 390 163 q 518 175 478 163 q 577 211 558 188 q 586 268 596 235 q 525 343 576 301 q 404 402 467 379 q 282 454 342 425 q 192 510 236 476 q 115 586 149 544 q 62 676 82 628 q 42 776 42 724 q 82 921 42 857 q 187 1024 122 985 q 331 1073 251 1063 q 492 1058 411 1083 q 594 1018 542 1043 q 690 960 647 993 q 760 890 732 928 q 788 810 788 851 q 778 767 788 788 q 754 731 769 746 q 717 706 739 715 q 669 696 694 696 q 629 703 646 696 q 600 724 613 711 q 576 751 588 736 q 551 779 565 765 q 494 817 531 799 q 426 843 458 836 q 340 846 378 856 q 288 811 301 836 q 292 749 274 786 q 372 672 310 713 q 515 594 436 632 q 663 509 593 557 q 779 398 732 461 q 826 243 826 335 m 649 931 q 637 926 642 931 q 632 915 632 922 q 637 903 632 908 q 649 899 642 899 q 663 903 657 899 q 669 915 669 908 q 663 928 669 925 q 649 931 657 931 m 439 1050 q 422 1047 429 1050 q 415 1032 415 1043 q 428 1015 415 1021 q 498 993 468 1004 q 564 960 528 982 q 574 955 567 960 q 581 947 581 950 l 582 947 q 590 942 586 943 q 596 942 593 942 q 614 960 614 942 q 608 972 614 967 q 560 1003 579 993 q 524 1020 542 1014 q 487 1033 506 1026 q 439 1050 468 1039 m 476 100 q 488 106 483 103 q 493 119 493 110 q 478 135 493 135 q 440 135 458 135 q 401 138 421 135 q 376 143 389 140 q 351 146 363 146 q 335 132 335 146 q 350 115 335 121 q 385 105 365 108 q 425 101 406 101 q 453 100 444 100 l 476 100 z "},"R":{"ha":1104,"x_min":22,"x_max":1071,"o":"m 750 318 q 816 276 782 297 q 894 236 850 256 q 939 222 917 228 q 982 210 961 217 q 1022 192 1003 203 q 1053 160 1040 181 q 1066 134 1061 146 q 1071 107 1071 122 q 1037 32 1071 63 q 954 1 1003 1 q 857 21 913 1 q 745 69 801 40 q 638 134 689 99 q 553 201 586 169 q 530 225 542 213 q 506 249 518 238 q 490 247 496 247 q 475 246 483 247 l 475 50 q 465 10 475 29 q 440 -24 456 -10 q 403 -48 425 -39 q 360 -57 382 -57 q 320 -49 339 -57 q 286 -28 301 -42 q 262 3 271 -14 q 253 42 253 21 l 253 232 q 193 241 221 232 q 147 269 165 250 q 122 315 128 288 q 129 378 117 342 q 176 429 146 417 q 247 442 207 442 q 234 637 239 540 q 218 831 229 733 q 178 819 199 825 q 139 814 158 814 q 63 840 92 814 q 28 901 35 867 q 41 969 22 935 q 108 1018 60 1003 q 159 1033 133 1026 q 214 1047 185 1040 q 253 1089 226 1074 q 313 1104 281 1104 q 352 1097 329 1104 q 388 1078 375 1089 q 432 1084 407 1081 q 479 1088 457 1088 q 615 1082 544 1088 q 752 1060 685 1076 q 879 1012 819 1043 q 983 928 939 981 q 1041 834 1019 885 q 1063 725 1063 783 q 1038 598 1063 658 q 970 485 1013 538 q 872 392 928 433 q 757 322 817 351 l 750 318 m 818 996 q 806 992 811 996 q 801 981 801 988 q 806 969 801 974 q 818 964 811 964 q 835 981 835 964 q 818 996 835 996 m 535 1061 q 518 1043 518 1061 q 535 1029 518 1029 q 644 1019 590 1029 q 750 989 697 1008 q 767 1001 765 989 q 758 1024 769 1014 q 649 1051 706 1042 q 535 1061 593 1061 m 476 388 q 503 389 485 388 q 541 393 522 390 q 574 402 560 396 q 589 418 589 408 q 583 430 589 426 q 569 433 576 433 q 542 429 557 433 q 514 424 526 425 q 489 420 503 421 q 463 419 475 419 q 449 414 456 419 q 443 401 443 408 q 456 389 443 390 q 476 388 469 388 m 468 456 q 597 488 526 467 q 728 547 668 508 q 805 628 779 582 q 828 718 831 674 q 792 801 825 763 q 694 857 760 839 q 607 873 651 868 q 525 878 563 878 q 439 874 482 878 q 456 665 449 768 q 468 456 464 561 m 965 147 q 976 152 972 147 q 979 163 979 157 q 967 178 979 174 q 949 184 963 179 q 921 194 936 189 q 893 203 906 200 q 881 207 881 207 q 864 190 864 207 q 877 176 864 183 q 907 162 890 168 q 940 151 924 156 q 965 147 957 147 z "},"Q":{"ha":1092,"x_min":40,"x_max":1053,"o":"m 40 389 q 61 558 40 469 q 122 731 82 647 q 218 887 161 815 q 348 1003 275 958 q 508 1060 421 1049 q 694 1035 594 1071 q 843 946 776 1003 q 956 815 910 889 q 1028 657 1003 742 q 1053 486 1053 572 q 997 215 1053 344 q 828 -7 940 85 q 863 -28 840 -15 q 909 -55 885 -40 q 953 -84 933 -69 q 978 -110 972 -99 q 988 -133 983 -121 q 992 -164 992 -146 q 960 -242 992 -208 q 885 -275 929 -275 q 814 -255 856 -275 q 731 -208 772 -235 q 652 -151 689 -181 q 594 -106 615 -122 q 571 -106 582 -106 q 546 -107 560 -107 q 337 -72 431 -107 q 177 29 243 -36 q 76 185 111 94 q 40 389 40 276 m 596 1007 q 599 994 596 1000 q 611 986 603 988 q 740 918 685 974 q 763 901 757 901 q 782 918 782 901 q 779 929 782 921 q 742 965 760 951 q 705 988 724 978 q 665 1004 686 997 q 619 1021 644 1011 q 605 1017 614 1021 q 596 1007 596 1014 m 486 43 q 504 58 504 43 q 499 72 504 65 q 486 78 494 78 q 408 94 440 78 q 338 135 376 111 q 322 142 329 139 q 310 146 315 146 q 298 140 303 146 q 293 126 293 133 q 294 121 293 124 q 297 115 296 118 q 386 64 333 85 q 486 43 439 43 m 269 444 q 269 342 265 393 q 291 247 272 292 q 347 169 310 203 q 449 118 385 135 q 569 110 508 103 q 678 153 631 117 q 740 213 714 179 q 781 283 765 247 q 647 272 718 267 q 508 298 576 276 q 377 357 439 319 q 269 444 315 394 m 479 558 q 551 515 507 532 q 644 492 596 499 q 740 491 693 486 q 824 511 788 496 q 794 653 824 586 q 711 768 764 719 q 619 821 665 810 q 534 822 574 832 q 466 783 494 811 q 427 719 438 756 q 428 640 417 682 q 479 558 439 597 m 822 851 q 834 858 828 851 q 840 872 840 864 q 834 883 840 879 q 822 888 828 888 q 810 882 814 888 q 806 872 806 876 q 810 858 806 864 q 822 851 814 851 z "},"P":{"ha":1083,"x_min":40,"x_max":1054,"o":"m 522 1082 q 712 1060 617 1081 q 883 992 807 1039 q 1006 869 958 946 q 1054 681 1054 793 q 1032 540 1054 607 q 971 414 1010 472 q 879 307 932 356 q 764 221 826 258 q 632 159 701 183 q 492 125 563 135 q 500 19 500 71 q 467 -54 500 -22 q 388 -86 435 -86 q 321 -68 344 -86 q 286 -22 297 -50 q 272 42 275 7 q 268 113 269 78 q 226 117 249 115 q 186 124 204 118 q 127 161 151 131 q 103 228 103 192 q 137 305 103 274 q 217 336 171 336 q 231 334 224 336 q 243 332 238 332 l 249 332 q 233 576 239 454 q 219 821 226 697 q 159 808 185 810 q 97 821 133 806 q 57 860 74 833 q 40 910 40 886 q 85 1000 40 965 q 169 1035 111 1019 q 294 1060 228 1050 q 422 1076 360 1071 q 522 1082 485 1082 m 550 1051 q 538 1045 544 1051 q 532 1032 532 1039 q 538 1021 532 1025 q 550 1017 544 1017 q 652 1007 599 1014 q 750 979 706 1000 l 760 979 l 761 979 q 773 985 769 979 q 776 994 776 990 q 746 1019 776 1008 q 676 1037 715 1029 q 599 1048 636 1044 q 550 1051 563 1051 m 492 272 q 524 276 500 272 q 572 288 547 281 q 617 305 597 294 q 636 326 636 315 q 631 336 636 331 q 619 342 626 342 q 602 336 615 342 q 572 324 589 331 q 535 313 554 318 q 504 307 517 307 q 492 306 499 307 q 482 303 485 306 q 478 296 481 300 q 475 289 475 292 q 481 278 475 283 q 492 272 486 272 m 475 342 q 603 383 539 354 q 718 456 667 413 q 801 557 769 500 q 833 681 833 614 q 804 777 833 740 q 731 833 775 814 q 632 859 686 853 q 528 865 578 865 q 485 865 506 865 q 443 863 465 865 q 459 601 450 731 q 475 342 468 472 m 826 960 q 840 965 833 960 q 846 978 846 971 q 840 990 846 986 q 826 993 833 993 q 810 978 810 993 q 815 965 810 971 q 826 960 819 960 z "},"}":{"ha":713,"x_min":42,"x_max":679,"o":"m 43 13 q 70 53 54 39 q 105 73 86 67 q 145 81 124 79 q 190 83 167 82 q 208 85 197 83 q 230 91 219 86 q 249 108 240 96 q 261 144 258 121 q 260 250 261 197 q 258 356 258 303 q 272 431 258 396 q 310 497 286 465 q 242 581 261 532 q 222 682 222 629 q 234 785 222 733 q 246 890 246 838 q 231 949 246 928 q 167 969 215 969 q 124 977 144 969 q 88 998 103 985 q 63 1028 72 1011 q 53 1067 53 1046 q 65 1113 53 1093 q 98 1146 78 1133 q 144 1165 118 1158 q 197 1171 169 1171 q 331 1147 279 1171 q 410 1084 382 1124 q 447 994 438 1044 q 457 888 457 943 q 453 780 457 833 q 449 682 449 726 q 462 644 449 658 q 496 623 475 631 q 542 610 517 615 q 593 597 568 604 q 639 576 618 589 q 671 539 660 563 q 678 520 676 529 q 679 500 679 511 q 655 441 679 469 q 596 406 631 413 q 549 397 569 399 q 515 388 529 394 q 492 369 500 382 q 485 329 485 356 q 487 242 485 285 q 489 154 489 199 q 465 32 489 83 q 398 -52 442 -19 q 291 -100 354 -85 q 150 -115 228 -115 q 110 -106 132 -115 q 85 -95 97 -104 q 63 -74 72 -86 q 47 -48 53 -61 q 42 -24 42 -35 q 42 -6 42 -14 q 43 13 43 3 m 206 1122 q 188 1117 196 1122 q 181 1103 181 1111 q 188 1088 181 1094 q 206 1082 196 1082 q 222 1088 214 1082 q 229 1103 229 1094 q 222 1117 229 1111 q 206 1122 214 1122 m 374 979 q 391 985 383 979 q 399 1001 399 992 q 388 1033 399 1014 q 361 1069 376 1051 q 327 1099 346 1086 q 294 1113 308 1113 q 278 1106 286 1113 q 271 1090 271 1100 q 278 1076 271 1083 q 294 1063 285 1069 q 312 1049 303 1056 q 326 1038 321 1043 q 342 1019 338 1029 q 351 994 346 1008 q 374 979 361 979 m 197 -12 q 227 -9 208 -12 q 263 1 246 -6 q 294 16 281 7 q 307 36 307 25 q 299 52 307 46 q 283 58 292 58 q 269 53 275 58 q 253 43 263 49 q 231 33 244 38 q 196 28 218 28 q 181 22 185 28 q 175 16 176 21 q 174 7 174 11 q 181 -6 174 0 q 197 -12 189 -12 z "},"|":{"ha":383,"x_min":61,"x_max":329,"o":"m 176 1028 q 256 995 225 1028 q 290 917 288 963 q 296 808 293 851 q 301 721 299 764 q 306 624 304 678 q 312 485 308 571 q 319 273 315 400 q 329 -46 324 146 q 321 -90 329 -69 q 297 -127 313 -111 q 261 -152 282 -143 q 217 -161 240 -161 q 135 -128 167 -161 q 101 -46 103 -94 q 97 60 99 19 q 93 131 94 101 q 90 183 92 160 q 86 235 88 206 q 83 306 85 264 q 78 413 81 347 q 68 665 75 539 q 61 917 61 790 q 96 995 61 963 q 176 1028 131 1028 m 236 900 q 251 908 244 900 q 257 925 257 915 q 235 966 257 944 q 192 994 214 988 q 167 993 181 997 q 153 974 153 989 q 156 959 153 964 q 171 949 158 954 q 191 941 183 949 q 205 924 199 933 q 218 908 211 915 q 236 900 225 900 z "},"{":{"ha":713,"x_min":42,"x_max":679,"o":"m 678 13 q 678 -6 678 3 q 679 -24 679 -14 q 674 -48 679 -35 q 658 -74 668 -61 q 636 -95 649 -86 q 611 -106 624 -104 q 571 -115 589 -115 q 430 -100 493 -115 q 323 -52 367 -85 q 256 32 279 -19 q 232 154 232 83 q 234 242 232 199 q 236 329 236 285 q 228 369 236 356 q 206 388 221 382 q 172 397 192 394 q 125 406 151 399 q 66 441 90 413 q 42 500 42 469 q 43 520 42 511 q 50 539 44 529 q 82 576 61 563 q 128 597 103 589 q 178 610 153 604 q 225 623 204 615 q 259 644 246 631 q 272 682 272 657 q 268 780 272 726 q 264 888 264 833 q 274 994 264 943 q 311 1084 283 1044 q 390 1147 339 1124 q 524 1171 440 1171 q 576 1165 550 1171 q 623 1146 603 1158 q 656 1113 643 1133 q 668 1067 668 1093 q 658 1028 668 1046 q 633 998 649 1011 q 597 977 618 985 q 554 969 576 969 q 490 949 506 969 q 475 890 475 928 q 487 785 475 838 q 499 682 499 733 q 479 581 499 629 q 411 497 460 532 q 449 431 435 465 q 463 356 463 396 q 461 250 463 303 q 460 144 460 197 q 472 108 463 121 q 491 91 481 96 q 513 85 501 86 q 531 83 524 83 q 575 81 553 82 q 616 73 597 79 q 651 53 635 67 q 678 13 667 39 m 515 1122 q 499 1117 507 1122 q 492 1103 492 1111 q 499 1088 492 1094 q 515 1082 507 1082 q 533 1088 525 1082 q 540 1103 540 1094 q 533 1117 540 1111 q 515 1122 525 1122 m 347 979 q 369 994 360 979 q 379 1019 375 1008 q 394 1038 383 1029 q 409 1049 400 1043 q 427 1063 418 1056 q 443 1076 436 1069 q 450 1090 450 1083 q 442 1106 450 1100 q 426 1113 435 1113 q 393 1099 411 1113 q 360 1069 375 1086 q 333 1033 344 1051 q 322 1001 322 1014 q 330 985 322 992 q 347 979 338 979 m 524 -12 q 540 -6 532 -12 q 547 7 547 0 q 546 16 547 11 q 540 22 544 21 q 525 28 536 28 q 490 33 503 28 q 467 43 476 38 q 452 53 458 49 q 438 58 446 58 q 422 52 429 58 q 414 36 414 46 q 427 16 414 25 q 458 1 440 7 q 494 -9 475 -6 q 524 -12 513 -12 z "},"z":{"ha":772,"x_min":31,"x_max":738,"o":"m 738 792 q 720 731 738 761 q 681 672 703 701 q 523 436 601 556 q 356 185 444 317 q 486 188 422 185 q 617 192 550 192 q 698 158 671 192 q 725 85 725 125 q 698 11 725 44 q 617 -22 671 -22 q 509 -23 569 -22 q 386 -24 449 -24 q 263 -26 324 -25 q 154 -26 201 -26 q 93 -22 118 -26 q 54 1 68 -17 q 35 43 39 19 q 36 92 32 67 q 50 140 40 117 q 71 183 60 164 q 110 244 81 200 q 181 346 140 289 q 265 465 221 403 q 345 578 308 526 q 406 665 382 631 q 431 703 431 700 l 346 703 l 142 703 q 59 736 86 703 q 31 810 32 769 q 57 885 31 851 q 135 918 83 918 l 493 918 q 567 917 525 918 q 647 905 610 917 q 711 867 685 893 q 738 792 738 842 m 572 869 q 556 865 563 869 q 549 849 549 860 q 555 833 549 840 q 572 825 561 825 q 589 833 581 825 q 597 847 597 840 q 589 863 597 856 q 572 869 581 869 m 283 858 q 291 839 283 847 q 310 831 299 831 q 373 829 340 831 q 436 828 406 828 l 475 828 q 492 835 483 828 q 500 851 500 843 q 492 867 500 860 q 475 874 483 874 q 410 875 442 874 q 346 876 378 876 l 310 876 q 293 872 303 876 q 283 858 283 867 m 479 144 q 452 144 471 144 q 413 142 433 143 q 374 139 392 142 q 351 132 356 136 q 346 118 346 124 q 354 103 346 111 q 369 96 363 96 q 396 97 376 96 q 436 98 415 97 q 474 101 457 99 q 496 107 492 103 q 504 124 504 113 q 497 138 504 131 q 479 144 490 144 z "},"y":{"ha":824,"x_min":36,"x_max":783,"o":"m 768 471 q 776 299 768 385 q 783 129 783 214 q 781 49 783 89 q 768 -31 778 10 q 719 -154 751 -96 q 638 -257 686 -212 q 527 -328 590 -301 q 389 -354 464 -354 q 281 -338 335 -354 q 185 -285 226 -322 q 147 -243 161 -265 q 132 -190 132 -221 q 164 -114 132 -146 q 244 -82 196 -82 q 288 -91 269 -82 q 326 -115 307 -100 q 397 -137 364 -139 q 458 -117 431 -135 q 506 -68 485 -99 q 539 -1 526 -37 q 556 72 551 35 q 556 139 561 108 q 413 96 485 101 q 276 115 340 90 q 160 194 211 140 q 81 329 108 249 q 43 517 50 417 q 36 725 36 618 l 36 779 q 69 856 38 824 q 149 889 100 889 q 227 858 192 889 q 263 779 263 828 q 263 728 263 764 q 265 649 263 693 q 272 554 267 604 q 285 458 276 504 q 317 373 294 406 q 369 326 340 340 q 427 316 397 313 q 483 338 457 319 q 524 390 508 357 q 540 467 540 422 q 546 617 542 542 q 554 768 550 693 q 588 845 556 814 q 668 876 619 876 q 710 869 690 876 q 747 847 731 861 q 772 816 763 833 q 782 778 782 799 q 782 753 782 764 q 781 731 782 743 q 770 601 772 667 q 768 471 768 536 m 168 789 q 193 814 193 789 q 172 836 190 831 q 132 851 154 842 q 113 846 121 854 q 106 831 106 838 q 114 814 106 819 q 133 802 122 807 q 156 792 144 797 q 168 789 164 789 m 521 -200 q 535 -178 536 -190 q 518 -156 533 -165 q 497 -160 507 -156 q 473 -170 486 -165 q 444 -180 460 -175 q 407 -185 428 -185 q 381 -183 393 -185 q 357 -176 368 -182 l 350 -176 q 332 -183 339 -176 q 325 -200 325 -189 q 336 -217 325 -211 q 362 -225 347 -222 q 391 -228 376 -228 q 413 -229 406 -229 q 465 -222 431 -229 q 521 -200 499 -215 m 706 776 q 722 782 714 776 q 729 797 729 788 q 719 815 729 806 q 696 833 710 825 q 669 847 682 842 q 647 853 656 853 q 628 847 636 853 q 619 831 619 842 q 625 817 619 822 q 639 808 631 813 q 677 790 658 804 q 706 776 696 776 z "},"x":{"ha":904,"x_min":38,"x_max":883,"o":"m 772 888 q 851 858 818 888 q 883 785 883 828 q 875 744 883 765 q 851 708 867 724 q 706 575 774 646 q 578 425 638 504 q 606 384 590 406 q 645 329 622 363 q 701 247 668 296 q 782 122 735 197 q 794 68 794 99 q 761 -7 794 24 q 679 -37 728 -37 q 644 -31 660 -37 q 614 -14 628 -25 q 597 -1 603 -6 q 585 15 592 4 q 516 129 553 72 q 438 239 479 186 q 353 128 394 186 q 267 7 313 69 q 247 -13 257 -4 q 225 -31 238 -22 q 198 -39 211 -33 q 169 -44 185 -44 q 119 -33 146 -44 q 82 -3 93 -22 q 61 25 68 7 q 54 58 54 43 q 71 114 54 89 q 186 269 129 192 q 303 425 243 347 q 239 507 271 467 q 174 588 207 547 q 140 626 160 604 q 101 669 121 647 q 65 712 82 690 q 42 753 49 733 q 40 766 42 760 q 38 779 38 772 q 69 855 38 824 q 149 886 100 886 q 203 873 178 886 q 246 839 228 860 l 358 707 q 401 656 381 682 q 443 604 421 631 q 501 674 464 631 q 583 762 539 718 q 669 841 626 806 q 742 886 713 876 q 757 887 749 886 q 772 888 765 888 m 317 643 q 333 649 325 643 q 340 663 340 654 q 328 683 340 668 q 301 713 317 697 q 269 743 285 729 q 247 764 254 757 q 231 771 238 771 q 215 765 222 771 q 207 747 207 758 q 222 726 207 743 q 256 690 238 708 q 293 658 275 672 q 317 643 311 643 z "},"w":{"ha":1364,"x_min":40,"x_max":1326,"o":"m 1258 847 q 1278 810 1269 839 q 1295 743 1288 782 q 1309 659 1303 704 q 1319 572 1315 614 q 1324 496 1322 531 q 1326 444 1326 461 q 1322 340 1326 393 q 1302 235 1317 286 q 1261 138 1288 183 q 1192 56 1235 92 q 1091 -6 1142 15 q 976 -28 1040 -28 q 808 24 881 -28 q 689 151 735 76 q 636 78 668 113 q 564 17 604 43 q 477 -24 524 -8 q 383 -39 431 -39 q 215 9 281 -39 q 110 131 149 57 q 56 294 71 206 q 40 464 40 382 q 45 550 40 499 q 58 657 50 601 q 76 764 67 713 q 96 849 86 815 q 138 903 108 881 q 206 926 167 926 q 290 894 257 926 q 322 817 322 863 q 317 782 322 800 q 308 746 313 764 q 282 597 294 671 q 269 444 269 524 q 274 360 269 403 q 292 278 278 318 q 331 206 306 231 q 385 181 357 182 q 443 200 414 179 q 496 265 472 221 q 526 353 515 304 q 542 451 538 401 q 549 545 547 500 q 550 622 550 590 q 549 663 550 642 q 547 706 547 685 q 557 749 547 728 q 584 788 567 771 q 624 816 601 806 q 672 826 647 826 q 735 808 707 826 q 775 758 763 790 q 785 720 785 740 q 789 678 786 700 q 815 483 801 581 q 868 296 829 386 q 917 217 886 243 q 981 192 949 192 q 1043 222 1014 193 q 1086 304 1072 250 q 1102 455 1106 375 q 1089 614 1099 535 q 1081 655 1086 632 q 1069 701 1075 678 q 1060 746 1064 725 q 1056 781 1056 767 q 1065 822 1056 801 q 1088 857 1074 842 q 1123 881 1103 872 q 1165 890 1143 890 q 1217 879 1192 890 q 1258 847 1243 868 m 226 842 q 248 849 240 836 q 249 874 256 863 q 228 888 242 885 q 193 896 215 892 q 177 888 183 896 q 171 872 171 879 q 177 860 171 867 q 190 851 183 853 q 207 847 199 849 q 226 842 215 846 m 431 106 q 462 115 440 106 q 505 136 483 124 q 542 164 526 149 q 558 192 558 179 q 551 208 558 201 q 535 215 544 215 q 518 207 526 215 q 476 171 503 190 q 424 151 449 151 q 410 140 415 147 q 404 129 404 133 q 413 111 404 117 q 431 106 421 106 m 697 736 q 713 742 706 736 q 721 758 721 749 q 705 785 724 775 q 669 794 686 794 q 648 783 656 794 q 653 760 640 772 q 697 736 669 742 m 996 106 q 1028 114 1007 106 q 1069 135 1049 122 q 1106 162 1090 147 q 1121 189 1121 176 q 1114 204 1121 197 q 1097 211 1107 211 q 1078 202 1090 211 q 1053 181 1067 193 q 1023 160 1039 169 q 990 151 1007 151 q 976 140 982 147 q 969 129 969 133 q 978 111 969 117 q 996 106 986 106 m 1208 794 q 1225 801 1218 794 q 1232 817 1232 807 q 1222 836 1232 828 q 1199 851 1213 844 q 1171 860 1185 857 q 1147 863 1157 863 q 1131 855 1139 863 q 1124 839 1124 847 q 1128 826 1124 831 q 1138 820 1132 822 q 1148 817 1143 818 q 1156 815 1153 817 q 1184 805 1171 815 q 1208 794 1197 794 z "},"v":{"ha":804,"x_min":32,"x_max":771,"o":"m 558 882 q 618 924 582 913 q 688 927 654 935 q 747 894 722 919 q 769 826 771 868 q 767 809 769 819 q 764 790 765 799 q 744 637 753 714 q 722 483 735 560 q 691 329 710 406 q 642 176 672 253 q 607 103 628 140 q 557 35 586 65 q 489 -16 528 4 q 399 -36 450 -36 q 269 6 324 -36 q 178 114 214 47 q 134 223 151 164 q 103 345 117 282 q 81 472 90 408 q 63 596 72 536 q 56 647 61 613 q 45 719 50 682 q 36 790 40 757 q 32 835 32 822 q 42 874 32 856 q 67 908 51 893 q 104 931 83 922 q 149 940 125 940 q 217 920 185 940 q 260 864 249 900 q 276 760 268 815 q 292 650 285 706 q 307 540 299 594 q 324 439 315 486 q 351 308 338 372 q 397 185 365 244 q 433 267 417 217 q 465 376 450 317 q 492 499 479 435 q 513 623 504 563 q 529 736 522 683 q 540 826 536 789 q 547 855 543 839 q 558 882 551 871 m 183 838 q 201 844 193 838 q 208 861 208 851 q 199 878 208 869 q 177 896 190 888 q 150 909 164 904 q 129 914 136 914 q 104 893 104 914 q 110 879 104 885 q 122 871 115 874 q 135 868 131 868 q 151 856 142 863 q 167 847 160 850 q 183 838 175 838 m 504 199 q 502 216 504 210 q 490 228 500 222 l 485 228 q 458 214 463 228 q 450 186 454 200 q 421 147 440 167 l 421 144 q 415 128 415 138 q 438 108 414 108 q 458 119 447 108 q 480 146 469 131 q 497 176 490 161 q 504 199 504 192 m 693 825 q 716 830 707 825 q 725 850 725 835 q 716 867 725 857 q 693 885 707 876 q 666 899 679 893 q 644 906 653 906 q 619 889 629 906 l 619 886 q 629 868 619 869 q 646 860 639 867 q 671 843 660 853 q 693 825 682 833 z "},"u":{"ha":792,"x_min":39,"x_max":760,"o":"m 617 932 q 679 913 650 932 q 719 861 708 893 q 728 840 724 850 q 732 818 732 831 q 733 795 732 807 q 735 772 735 783 q 749 617 739 694 q 760 461 760 540 q 751 342 760 401 q 720 228 742 282 q 664 126 699 174 q 578 44 629 79 q 474 1 526 17 q 370 -15 422 -15 q 267 7 318 -14 q 165 74 215 28 q 102 153 126 108 q 64 246 78 197 q 44 347 50 294 q 39 449 39 399 q 42 504 39 468 q 50 585 44 540 q 64 677 56 629 q 82 767 72 725 q 104 841 92 810 q 131 885 117 872 q 211 919 165 919 q 290 884 258 919 q 322 800 322 849 q 316 764 322 785 q 307 725 310 743 q 267 425 267 576 q 269 372 267 400 q 280 317 272 344 q 301 267 288 290 q 335 228 314 243 q 413 215 378 201 q 475 261 449 228 q 519 353 507 301 q 532 474 532 406 q 528 559 532 515 q 521 643 524 603 q 510 731 517 686 q 504 818 504 775 q 537 899 504 865 q 617 932 569 932 m 190 861 q 219 850 207 856 q 246 832 231 844 q 260 824 254 824 q 273 831 267 824 q 279 844 279 838 q 269 864 279 854 q 244 881 258 874 q 216 892 231 888 q 192 896 201 896 q 179 890 185 896 q 174 876 174 883 q 178 865 174 868 q 190 861 183 863 m 299 788 q 293 801 299 796 q 281 808 288 807 q 270 806 275 810 q 265 792 265 801 q 270 778 265 783 q 281 773 275 774 q 293 776 288 772 q 299 788 299 779 m 482 165 q 491 170 489 165 q 492 181 493 175 q 486 193 490 188 q 475 199 482 199 q 442 190 468 199 q 375 179 417 182 q 363 176 368 183 q 358 163 358 169 q 363 150 358 153 q 367 147 364 147 q 375 144 371 147 l 388 144 q 435 149 413 144 q 482 165 458 154 m 599 896 q 603 880 599 888 q 617 872 607 872 q 650 860 639 872 q 672 849 661 849 q 689 865 689 849 q 681 883 689 875 q 660 898 672 892 q 636 907 649 904 q 617 910 624 910 q 605 906 611 910 q 599 896 599 901 m 710 813 q 704 827 710 822 q 692 832 699 832 q 679 827 685 832 q 674 813 674 822 q 679 801 674 806 q 692 797 685 797 q 704 800 699 796 q 710 813 710 804 z "},"t":{"ha":808,"x_min":22,"x_max":775,"o":"m 660 219 q 741 188 707 219 q 775 108 775 156 q 772 76 775 93 q 760 47 768 60 q 725 14 749 28 q 671 -11 701 0 q 557 -35 615 -31 q 443 -27 499 -40 q 340 20 388 -14 q 260 113 293 54 q 219 210 233 161 q 199 307 206 258 q 192 406 193 356 q 190 508 190 456 q 163 509 176 508 q 133 510 149 510 q 55 544 88 510 q 22 625 22 578 q 31 666 22 646 q 53 702 39 686 q 85 728 67 718 q 126 738 104 738 q 163 737 144 738 q 201 736 182 736 q 207 867 201 801 q 219 1008 213 933 q 239 1075 221 1050 q 282 1111 257 1100 q 336 1120 307 1122 q 390 1106 365 1118 q 431 1071 414 1093 q 447 1018 447 1049 q 443 951 447 985 q 438 903 440 932 q 434 844 436 875 q 431 783 432 813 q 429 731 429 753 q 482 731 451 731 q 544 733 513 732 q 606 735 575 735 q 660 736 636 736 q 703 726 682 736 q 738 701 724 717 q 762 663 753 685 q 771 619 771 642 q 763 579 771 599 q 742 544 756 560 q 708 518 728 528 q 667 508 689 508 q 609 508 642 508 q 542 506 576 507 q 476 503 508 504 q 419 503 444 503 q 420 439 419 475 q 424 365 421 403 q 433 293 426 328 q 451 236 440 258 q 477 202 461 215 q 518 189 493 189 q 554 194 536 189 q 590 204 572 199 q 624 215 607 210 q 660 219 642 219 m 679 685 q 663 678 671 685 q 656 663 656 672 q 663 644 656 651 q 679 636 669 636 q 697 644 689 636 q 704 661 704 651 q 696 676 704 668 q 679 685 688 685 m 354 1026 q 382 1025 374 1014 q 385 1049 390 1036 q 367 1072 382 1057 q 343 1086 353 1086 q 324 1081 332 1088 q 313 1067 315 1075 q 313 1051 310 1060 q 328 1040 317 1043 q 333 1038 329 1040 q 342 1033 336 1036 q 354 1026 347 1029 m 458 674 q 463 653 458 661 q 482 644 468 644 q 544 641 513 643 q 606 639 576 639 q 622 644 614 639 q 631 658 631 649 q 625 679 631 671 q 606 688 619 688 q 544 691 576 689 q 482 693 513 693 q 467 688 475 693 q 458 674 458 682 m 511 103 q 529 104 518 103 q 550 108 540 106 q 567 117 560 111 q 574 135 574 124 q 566 150 574 142 q 550 158 558 158 q 547 158 549 158 q 544 157 546 157 q 526 154 535 157 q 511 151 518 151 q 487 155 499 151 q 464 161 475 158 q 456 164 456 164 q 440 169 451 169 q 426 162 432 169 q 419 146 419 154 q 431 126 419 133 q 456 113 442 118 q 486 105 471 107 q 511 103 501 103 z "},"s":{"ha":636,"x_min":36,"x_max":607,"o":"m 268 660 q 283 610 268 633 q 322 569 299 588 q 369 533 344 550 q 414 503 394 517 q 492 435 454 472 q 558 358 531 399 q 603 237 599 300 q 581 118 607 174 q 505 22 556 63 q 383 -32 454 -18 q 327 -39 361 -36 q 254 -40 293 -42 q 176 -33 215 -39 q 106 -11 138 -26 q 56 28 75 4 q 36 88 36 51 q 70 162 36 132 q 151 192 104 192 q 165 192 158 192 q 178 190 171 192 q 228 178 204 183 q 276 169 251 172 q 322 174 299 167 q 358 194 344 181 q 373 229 372 208 q 353 275 374 250 q 274 342 325 308 q 172 419 224 376 q 83 520 121 463 q 46 660 46 578 q 72 775 46 721 q 141 869 97 829 q 242 933 185 910 q 364 957 300 957 q 435 949 396 957 q 510 924 475 940 q 570 881 546 907 q 594 817 594 854 q 586 778 594 797 q 563 745 578 760 q 528 722 549 731 q 486 713 508 713 q 451 718 467 713 q 424 731 436 724 q 399 743 411 738 q 375 749 388 749 q 302 727 336 749 q 268 660 268 706 m 497 876 q 481 869 489 876 q 474 856 474 863 q 480 839 474 846 q 497 832 486 832 q 513 839 506 832 q 519 856 519 846 q 513 869 519 863 q 497 876 506 876 m 236 885 q 244 868 236 875 q 261 861 251 861 q 294 869 271 861 q 342 876 318 876 q 383 870 363 876 q 417 864 404 864 q 442 888 442 864 q 436 899 442 893 q 422 906 431 906 q 383 918 403 915 q 344 921 364 921 q 318 919 336 921 q 282 914 300 918 q 250 903 264 910 q 236 885 236 896 m 306 88 q 326 88 314 88 q 348 90 338 88 q 366 99 358 93 q 374 115 374 104 q 365 131 374 126 q 346 135 356 135 q 326 133 336 135 q 306 131 317 131 q 274 136 290 131 q 243 142 258 142 q 227 135 235 142 q 219 119 219 128 q 230 101 219 108 q 254 92 240 94 q 283 88 268 89 q 306 88 297 88 z "},"r":{"ha":781,"x_min":40,"x_max":738,"o":"m 196 808 q 215 815 207 808 q 222 833 222 821 q 217 847 222 839 q 204 854 211 854 q 174 861 189 860 q 143 863 160 863 q 126 856 133 863 q 119 840 119 850 q 135 818 119 819 q 165 817 150 817 q 181 813 172 817 q 196 808 189 808 m 640 743 q 624 736 632 743 q 617 722 617 729 q 623 706 617 713 q 640 699 629 699 q 656 706 649 699 q 663 722 663 713 q 656 736 663 729 q 640 743 649 743 m 379 751 q 387 735 379 742 q 404 728 394 728 q 438 735 414 728 q 485 743 461 743 q 526 737 506 743 q 560 731 547 731 q 585 754 585 731 q 579 766 585 760 q 565 772 574 772 q 526 785 546 782 q 488 788 507 788 q 461 786 479 788 q 425 781 443 785 q 393 769 407 776 q 379 751 379 763 m 268 719 q 374 795 313 767 q 507 824 436 824 q 578 815 539 824 q 653 790 618 807 q 713 747 689 774 q 738 683 738 721 q 729 645 738 664 q 706 612 721 626 q 672 588 692 597 q 629 579 651 579 q 594 584 610 579 q 566 595 579 589 q 542 607 553 601 q 518 615 531 613 q 440 608 483 622 q 360 555 397 593 q 301 455 324 517 q 282 307 278 393 q 286 183 285 240 q 288 85 288 125 q 254 3 288 38 q 175 -31 221 -31 q 67 39 99 -31 q 61 62 63 51 q 60 85 60 72 q 58 179 60 124 q 55 299 57 235 q 50 433 53 364 q 45 566 47 501 q 42 686 43 631 q 40 781 40 742 q 50 824 40 803 q 76 861 60 846 q 113 886 92 876 q 157 896 133 896 q 198 888 178 896 q 233 865 218 879 q 258 831 249 850 q 268 790 268 813 l 268 719 z "},"q":{"ha":868,"x_min":36,"x_max":849,"o":"m 742 783 q 783 774 764 783 q 817 748 803 764 q 840 713 832 732 q 849 672 849 693 q 845 640 849 657 q 839 610 842 624 q 832 544 835 576 q 826 479 829 513 q 804 272 813 375 q 796 64 796 169 q 806 -93 796 -14 q 815 -249 815 -172 q 807 -290 815 -269 q 784 -326 799 -310 q 749 -351 769 -342 q 707 -361 729 -361 q 669 -355 689 -361 q 634 -337 650 -349 q 606 -310 618 -325 q 592 -276 594 -294 q 572 -94 578 -185 q 568 93 565 -3 q 472 38 524 57 q 369 18 421 18 q 265 38 317 18 q 168 97 214 57 q 112 161 136 124 q 71 241 88 199 q 45 328 54 283 q 36 413 36 372 q 67 603 36 510 q 160 771 97 696 q 283 868 215 840 q 421 892 350 896 q 563 857 492 888 q 699 779 635 826 l 704 781 q 723 782 714 781 q 742 783 732 783 m 315 832 q 303 824 308 832 q 299 810 299 817 q 306 793 299 799 q 324 788 314 788 q 342 790 332 788 q 364 793 353 793 q 381 794 374 793 q 396 794 388 794 q 442 790 421 794 q 479 778 463 785 q 509 767 496 772 q 533 763 522 763 q 545 772 540 767 q 550 788 550 778 q 530 814 550 803 q 483 831 510 825 q 430 840 456 838 q 392 843 404 843 q 353 841 372 843 q 315 832 335 839 m 392 156 q 422 160 403 156 q 458 174 440 165 q 488 193 475 182 q 501 217 501 204 q 496 232 501 225 q 481 239 490 239 l 476 239 q 451 228 463 236 q 426 211 440 219 q 400 205 414 207 q 376 196 386 203 q 368 179 368 188 q 375 163 368 171 q 392 156 382 156 m 267 426 q 300 290 267 329 q 379 255 333 250 q 474 303 425 260 q 553 415 522 347 q 578 503 572 458 q 573 584 585 549 q 527 642 561 619 q 433 665 493 665 q 359 643 390 665 q 307 586 328 621 q 276 509 286 551 q 267 426 267 467 m 604 731 q 621 738 614 731 q 628 756 628 746 q 621 772 628 765 q 604 779 614 779 q 588 772 594 779 q 581 756 581 765 q 604 731 581 731 z "},"o":{"ha":851,"x_min":35,"x_max":819,"o":"m 249 893 q 328 919 286 910 q 414 928 371 928 q 499 918 457 928 q 578 889 540 908 q 681 820 636 863 q 756 725 725 778 q 803 612 788 672 q 819 489 819 551 q 809 380 819 436 q 777 270 799 324 q 724 169 756 217 q 649 89 692 122 q 595 53 622 67 q 538 24 568 39 q 478 6 511 13 q 415 -1 446 -1 q 255 40 325 -1 q 135 147 185 81 q 60 294 86 213 q 35 460 35 376 q 48 583 35 519 q 88 704 61 646 q 154 812 114 763 q 249 893 194 861 m 378 164 q 391 171 386 164 q 396 185 396 178 q 390 197 393 192 q 378 201 388 201 l 382 201 q 354 210 367 206 q 325 221 342 214 q 310 232 318 225 q 293 239 301 239 q 278 221 278 239 q 290 201 278 211 q 319 182 303 190 q 353 169 336 174 q 378 164 369 164 m 351 250 q 403 226 375 229 q 463 238 432 224 q 519 278 494 251 q 559 340 543 306 q 583 410 575 374 q 592 479 592 447 q 582 559 592 519 q 544 631 572 599 q 440 701 490 696 q 349 674 389 706 q 286 584 310 642 q 263 465 263 526 q 284 347 263 406 q 351 250 306 288 m 604 786 q 622 804 622 786 q 618 818 622 815 q 542 869 588 850 q 453 889 497 889 q 436 871 436 889 q 453 854 436 854 q 481 851 464 854 q 515 841 497 847 q 547 827 532 835 q 569 810 561 819 l 572 810 l 574 807 q 589 793 582 800 q 604 786 596 786 m 649 754 q 662 758 656 754 q 668 771 668 763 q 662 784 668 778 q 649 790 656 790 q 637 783 642 790 q 632 771 632 776 q 637 758 632 763 q 649 754 642 754 z "},"p":{"ha":896,"x_min":-6,"x_max":858,"o":"m 301 943 q 449 928 374 943 q 594 881 525 913 q 719 803 663 850 q 810 693 775 756 q 853 515 858 607 q 804 342 849 424 q 683 199 760 261 q 513 108 606 136 q 449 92 481 99 q 386 83 418 85 q 372 83 378 83 q 358 78 365 82 q 368 31 361 63 q 383 -33 375 0 q 396 -96 390 -67 q 401 -137 401 -125 q 387 -192 401 -168 q 347 -235 372 -217 q 319 -244 332 -239 q 290 -250 307 -250 q 211 -220 240 -250 q 174 -143 182 -190 q 103 269 125 60 q 92 689 81 478 l 79 690 q 19 731 43 700 q -6 800 -6 761 q 39 890 -6 858 q 94 915 60 904 q 165 931 128 925 q 240 940 203 938 q 301 943 276 943 m 394 900 q 384 895 389 900 q 379 883 379 890 q 387 868 379 872 q 406 863 394 864 q 428 862 417 861 q 449 863 440 863 q 499 851 472 860 q 547 833 526 843 q 572 819 561 826 q 596 808 583 813 q 599 808 597 808 q 601 807 600 807 l 603 807 q 622 824 622 807 q 614 839 622 833 q 508 885 564 871 q 394 900 453 900 m 354 249 q 379 249 361 249 q 416 253 397 250 q 449 263 435 257 q 463 279 463 268 q 456 290 463 286 q 443 294 450 294 q 407 288 428 294 q 364 281 386 281 q 351 282 358 281 q 335 283 343 283 q 323 278 328 282 q 318 267 318 275 q 330 249 318 250 q 354 249 342 249 m 536 371 q 598 436 575 400 q 624 511 621 472 q 608 587 628 550 q 542 653 589 624 q 428 700 490 685 q 321 715 367 715 q 315 647 315 683 q 315 579 315 610 q 319 443 315 511 q 326 306 324 375 q 437 322 382 306 q 536 371 492 338 m 658 776 q 678 794 678 776 q 672 808 678 801 q 658 814 667 814 q 647 807 651 814 q 643 794 643 800 q 658 776 643 776 z "},"n":{"ha":924,"x_min":19,"x_max":876,"o":"m 238 857 q 326 915 278 890 q 428 953 375 940 q 535 966 481 967 q 640 947 589 965 q 761 871 715 921 q 833 759 807 821 q 867 628 858 697 q 876 493 876 558 q 876 390 876 447 q 871 274 875 333 q 858 159 867 215 q 836 60 850 103 q 797 3 826 25 q 726 -19 767 -19 q 644 12 679 -19 q 610 88 610 43 q 613 143 610 114 q 621 200 617 172 q 638 354 629 278 q 647 508 647 431 q 622 660 647 606 q 557 733 596 714 q 472 742 518 753 q 388 696 426 731 q 322 608 349 661 q 294 489 294 554 q 300 435 294 461 q 308 382 306 410 q 315 315 311 353 q 324 239 319 278 q 331 163 328 200 q 333 97 333 126 q 324 57 333 76 q 299 23 315 38 q 263 -1 283 8 q 218 -10 242 -10 q 177 -2 197 -10 q 140 19 157 6 q 114 51 124 33 q 104 89 104 68 q 99 290 104 182 q 83 501 93 399 q 59 692 74 604 q 28 832 44 779 q 29 878 19 857 q 58 914 39 900 q 104 934 78 928 q 156 934 131 940 q 204 909 182 928 q 238 857 226 890 m 154 849 q 168 854 164 849 q 171 868 172 860 q 165 884 169 876 q 153 896 160 892 q 125 906 140 903 q 103 908 110 908 q 78 888 78 908 q 86 869 78 872 q 107 865 94 865 q 131 856 114 863 q 154 849 147 849 m 635 854 q 647 862 643 854 q 651 876 651 869 q 633 899 651 889 q 591 917 615 910 q 542 930 567 925 q 506 935 518 935 q 480 929 493 935 q 467 908 467 924 q 492 888 467 888 q 536 887 511 888 q 579 876 561 886 q 602 862 586 874 q 628 850 618 850 q 631 852 629 850 q 635 854 632 854 m 696 819 q 713 826 706 819 q 721 843 721 833 q 713 858 721 851 q 696 865 706 865 q 680 858 688 865 q 672 843 672 851 q 680 826 672 833 q 696 819 688 819 z "},"m":{"ha":1228,"x_min":50,"x_max":1167,"o":"m 899 854 q 985 840 944 854 q 1059 799 1026 825 q 1115 738 1092 772 q 1146 664 1138 703 q 1158 586 1154 628 q 1165 501 1163 544 q 1167 416 1167 458 q 1167 338 1167 374 q 1164 214 1167 275 q 1158 93 1161 153 q 1124 22 1156 53 q 1044 -8 1093 -8 q 965 21 997 -8 q 932 93 932 50 q 936 201 932 146 q 940 308 940 256 q 940 358 940 325 q 939 432 940 392 q 907 593 936 540 q 842 644 878 646 q 776 588 807 643 q 738 425 744 533 l 738 86 q 724 36 738 60 q 681 -1 704 14 q 625 -15 657 -15 q 543 13 576 -15 q 510 86 510 42 q 510 133 510 99 q 513 213 511 167 q 513 314 514 260 q 511 422 513 368 q 493 560 508 510 q 456 631 478 611 q 410 642 435 650 q 362 606 385 635 q 319 531 339 578 q 292 425 300 483 q 287 313 285 374 q 297 174 289 251 q 305 131 300 154 q 310 86 310 107 q 276 14 310 43 q 196 -15 243 -15 q 134 1 161 -15 q 94 46 107 18 q 81 96 88 60 q 70 179 75 132 q 62 279 65 226 q 56 380 58 332 q 51 465 53 428 q 50 519 50 503 q 50 572 50 535 q 51 651 50 608 q 54 738 51 694 q 63 813 57 782 q 103 876 69 854 q 182 899 138 899 q 220 890 201 899 q 253 869 239 882 q 277 840 268 857 q 286 807 286 824 q 382 848 332 836 q 481 854 432 860 q 577 825 531 849 q 661 758 624 801 q 768 827 710 800 q 899 854 826 854 m 196 826 q 207 835 203 833 q 211 849 211 838 q 195 870 211 860 q 168 881 179 881 l 158 881 q 147 872 151 876 q 143 861 143 868 q 156 842 143 850 q 176 828 168 833 q 188 826 185 828 l 196 826 m 508 761 q 525 767 518 761 q 532 781 532 772 q 519 802 532 793 q 487 816 506 811 q 449 824 468 821 q 419 826 431 826 q 385 821 400 826 q 369 796 369 815 q 396 781 376 781 q 405 781 399 781 q 415 783 411 782 l 440 783 q 478 772 464 783 q 508 761 493 761 m 579 724 q 596 731 589 724 q 603 746 603 738 q 594 758 603 751 q 579 765 586 765 q 562 760 569 765 q 554 749 554 756 q 560 731 554 738 q 579 724 567 724 m 978 753 q 994 774 994 763 q 982 793 994 785 q 953 808 969 801 q 919 817 936 814 q 892 821 901 821 q 878 820 885 821 q 861 819 871 819 q 849 810 854 815 q 843 796 843 806 q 847 787 843 792 q 854 779 851 782 q 861 775 857 779 q 896 776 881 775 q 932 771 911 778 q 953 759 947 765 q 978 753 958 753 m 1036 713 q 1053 719 1046 713 q 1061 733 1061 725 q 1053 747 1061 740 q 1036 753 1046 753 q 1022 747 1029 753 q 1014 733 1014 740 q 1036 713 1014 713 z "},"a":{"ha":860,"x_min":32,"x_max":843,"o":"m 778 375 q 785 278 778 328 q 811 183 792 228 q 832 140 821 160 q 843 93 843 119 q 808 10 843 42 q 725 -21 774 -21 q 674 -7 696 -21 q 636 28 651 7 q 610 74 621 49 q 592 122 600 99 q 567 97 578 110 q 543 72 556 85 q 449 6 499 31 q 339 -19 400 -19 q 184 24 246 -19 q 87 138 122 68 q 42 295 51 208 q 43 468 32 382 q 84 631 54 554 q 160 756 114 707 q 269 835 204 806 q 404 864 335 864 q 576 824 493 864 q 718 711 660 783 q 768 633 746 678 q 790 544 790 589 q 784 460 790 504 q 778 375 778 417 m 339 139 q 364 143 349 139 q 394 155 379 147 q 421 172 410 163 q 432 190 432 181 q 414 210 432 210 q 399 202 404 210 q 388 194 393 194 q 371 184 382 188 q 349 177 360 181 q 329 169 338 174 q 321 160 321 165 l 321 158 q 339 139 321 139 m 263 400 q 285 268 263 308 q 342 228 307 228 q 417 268 376 229 q 494 375 457 307 q 528 479 525 431 q 517 563 532 528 q 475 620 503 599 q 415 644 447 642 q 351 626 383 646 q 297 561 319 607 q 270 481 278 525 q 263 400 263 438 m 561 743 q 576 749 571 743 q 582 761 582 756 q 565 785 582 774 q 524 806 547 797 q 479 821 501 815 q 447 826 457 826 q 422 823 436 826 q 407 804 407 819 q 415 794 407 797 q 429 790 422 790 l 432 790 q 439 792 435 792 l 464 792 q 485 786 472 792 q 510 774 497 781 q 535 759 524 767 q 554 746 547 751 q 557 745 556 746 q 560 744 558 744 l 561 743 m 619 710 q 636 728 636 710 q 631 740 636 735 q 619 746 626 746 q 606 740 613 746 q 600 728 600 735 q 606 714 600 718 q 619 710 613 710 z "},"b":{"ha":808,"x_min":36,"x_max":778,"o":"m 403 756 q 549 726 481 756 q 668 647 617 697 q 749 528 719 596 q 778 381 778 460 q 737 220 778 293 q 630 95 696 147 q 483 14 564 43 q 321 -15 401 -15 q 274 -12 299 -15 q 229 -3 249 -10 q 207 -12 217 -6 q 183 -18 197 -18 q 88 26 117 -18 q 58 132 58 69 q 46 189 50 144 q 40 288 42 233 q 37 398 38 343 q 36 486 36 453 q 39 562 36 510 q 48 680 42 614 q 63 817 54 746 q 82 949 71 888 q 107 1054 93 1010 q 138 1111 121 1099 q 176 1133 157 1125 q 218 1142 194 1142 q 301 1108 268 1142 q 333 1024 333 1075 q 326 985 333 1004 q 315 946 319 965 q 305 896 311 924 q 294 840 299 868 q 285 783 289 811 q 281 735 281 756 q 308 742 292 739 q 341 749 324 746 q 374 754 358 753 q 403 756 390 756 m 242 1071 q 253 1062 249 1068 q 262 1049 258 1056 q 269 1039 265 1043 q 281 1035 274 1035 q 294 1040 289 1035 q 299 1053 299 1046 q 291 1072 299 1063 q 272 1091 283 1082 q 249 1107 261 1100 q 231 1117 238 1114 q 217 1115 219 1117 q 211 1104 215 1114 q 210 1102 211 1103 q 208 1099 208 1101 q 221 1083 208 1088 q 242 1071 233 1078 m 392 160 q 396 171 396 164 l 396 172 q 392 183 396 176 q 382 189 389 189 q 341 188 361 189 q 299 189 321 188 l 297 189 q 284 183 289 189 q 279 172 279 176 q 286 158 279 163 q 303 153 293 154 q 324 151 314 151 q 340 151 333 151 q 358 152 349 151 q 379 153 368 153 q 386 156 382 156 q 392 160 390 157 m 542 340 q 548 409 554 375 q 523 469 542 443 q 474 512 504 496 q 407 528 443 528 q 367 522 389 528 q 326 506 346 517 q 290 483 306 496 q 265 453 274 469 l 265 381 q 267 302 265 342 q 275 222 269 263 q 298 216 288 219 q 321 213 308 213 q 386 221 353 213 q 450 246 419 229 q 504 286 481 263 q 542 340 528 310 m 560 644 q 581 661 581 644 q 561 685 581 675 q 516 703 542 696 q 465 715 490 711 q 431 719 440 719 q 395 716 414 719 q 376 692 376 713 q 394 679 381 679 q 414 681 404 679 q 435 683 424 683 q 480 677 458 683 q 518 664 501 671 q 546 651 535 657 q 560 644 557 644 m 606 607 q 617 610 611 607 q 622 618 622 614 q 619 635 622 628 q 606 643 615 643 q 592 637 599 643 q 586 625 586 631 q 593 612 586 617 q 606 607 600 607 z "},"c":{"ha":846,"x_min":24,"x_max":821,"o":"m 796 286 q 814 256 807 276 q 821 221 821 236 q 806 161 821 185 q 767 110 790 138 q 622 6 706 40 q 446 -28 538 -28 q 282 11 363 -28 q 135 133 192 56 q 53 303 78 210 q 35 520 24 407 q 107 731 47 633 q 252 880 163 822 q 454 938 342 938 q 601 908 533 938 q 721 821 668 878 q 758 768 740 799 q 776 708 776 738 q 741 625 776 657 q 657 593 706 593 q 601 612 624 593 q 560 652 579 631 q 517 692 540 674 q 457 711 494 711 q 426 707 444 711 q 396 697 407 703 q 306 622 338 675 q 266 504 274 568 q 273 376 258 440 q 320 266 288 311 q 402 204 353 221 q 514 221 451 188 q 560 253 539 235 q 603 289 582 272 q 649 317 625 306 q 706 329 674 329 q 757 317 729 329 q 796 286 785 306 m 615 861 q 598 853 606 861 q 590 838 590 846 q 615 813 590 813 q 630 820 622 813 q 638 838 638 828 q 630 853 638 846 q 615 861 622 861 m 464 917 q 438 915 456 917 q 402 908 419 913 q 372 896 385 904 q 358 875 358 888 q 363 860 358 869 q 375 850 368 850 q 384 852 379 850 q 393 854 389 854 l 396 857 q 428 866 411 861 q 464 871 446 871 q 501 866 483 871 q 539 854 518 861 q 546 849 540 849 q 551 849 550 849 q 556 850 553 850 q 568 858 563 850 q 574 874 574 865 q 560 894 574 886 q 529 908 547 903 q 492 915 511 913 q 464 917 474 917 m 446 117 q 463 124 456 117 q 471 140 471 132 q 465 158 471 153 q 450 164 458 163 q 432 165 442 165 q 417 164 422 164 q 392 171 406 167 q 367 178 379 175 q 352 187 358 182 q 340 196 346 192 q 328 203 335 200 q 311 207 321 207 q 298 197 303 201 q 293 182 293 192 q 313 154 293 167 q 358 133 332 142 q 409 121 383 125 q 446 117 435 117 z "},"d":{"ha":825,"x_min":42,"x_max":800,"o":"m 774 1029 q 758 844 765 936 q 749 660 751 753 q 751 474 746 568 q 774 285 757 381 q 781 245 776 268 q 789 199 785 222 q 797 153 793 175 q 800 115 800 131 q 792 73 800 93 q 769 37 783 53 q 734 11 754 21 q 690 1 714 1 q 663 4 676 1 q 635 14 649 7 q 544 -15 590 -3 q 450 -26 497 -26 q 286 10 361 -26 q 157 106 211 46 q 72 245 103 167 q 42 408 42 324 q 48 492 42 447 q 67 583 54 538 q 101 671 81 628 q 149 749 121 714 q 225 817 182 790 q 318 856 268 844 q 421 864 368 867 q 526 843 474 861 q 538 987 533 908 q 558 1128 543 1065 q 598 1189 565 1167 q 667 1211 631 1211 q 749 1177 717 1211 q 782 1094 782 1143 q 779 1063 782 1078 q 774 1029 776 1047 m 453 797 q 431 776 431 797 q 436 758 431 765 q 453 750 442 750 q 470 758 463 750 q 478 774 478 765 q 470 790 478 782 q 453 797 463 797 m 213 740 q 220 724 213 731 q 238 718 228 718 q 253 725 242 718 q 280 741 265 732 q 309 757 294 750 q 336 764 324 764 q 353 763 343 764 q 374 764 364 763 q 390 770 383 765 q 397 788 397 775 q 385 808 397 804 q 360 813 372 813 q 323 808 347 813 q 274 793 299 803 q 231 770 249 783 q 213 740 213 757 m 299 561 q 272 449 278 511 q 283 332 267 388 q 339 239 299 276 q 450 201 379 201 q 501 209 474 201 q 551 226 528 217 q 531 412 540 318 q 521 600 521 506 q 460 624 492 614 q 398 633 428 635 q 342 616 368 632 q 299 561 315 600 m 497 128 q 521 128 506 128 q 551 132 536 129 q 576 142 565 135 q 586 163 586 150 q 579 176 586 168 q 564 185 572 185 q 545 182 554 185 q 529 179 536 179 q 505 176 517 176 q 482 176 493 176 q 472 174 478 176 q 464 168 465 172 q 464 140 458 153 q 497 128 469 128 m 706 1115 q 723 1122 717 1115 q 729 1140 729 1129 q 721 1158 729 1150 q 701 1171 713 1165 q 678 1178 690 1176 q 660 1181 667 1181 q 632 1177 647 1181 q 617 1157 617 1174 q 624 1139 617 1147 q 640 1131 631 1131 q 653 1132 647 1131 q 665 1133 658 1133 q 688 1124 676 1133 q 706 1115 699 1115 z "},"e":{"ha":821,"x_min":42,"x_max":778,"o":"m 424 922 q 556 896 492 922 q 669 824 621 869 q 748 718 718 779 q 778 588 778 657 q 756 476 778 526 q 698 387 735 425 q 611 324 661 349 q 506 289 561 299 q 467 283 486 286 q 429 279 449 281 q 406 276 418 278 q 383 275 394 275 q 339 275 361 275 q 294 278 317 275 q 328 213 306 236 q 397 190 351 190 q 443 195 421 190 q 485 206 465 200 q 525 217 506 213 q 563 222 544 222 q 644 190 610 222 q 678 113 678 158 q 664 51 678 82 q 619 13 651 29 q 550 -16 588 -4 q 475 -33 513 -28 q 414 -39 438 -39 q 239 1 310 -39 q 124 109 168 42 q 61 264 81 176 q 42 444 42 351 q 65 610 42 525 q 134 764 88 694 q 253 878 181 833 q 424 922 325 922 m 324 164 q 306 156 314 164 q 299 138 299 147 q 315 117 299 125 q 351 106 331 110 q 392 101 372 101 q 422 100 413 100 q 451 102 436 100 q 465 124 465 104 q 458 140 465 131 q 442 149 450 149 q 414 149 428 149 q 385 150 400 149 q 353 158 369 151 q 324 164 338 164 m 494 522 q 536 554 524 535 q 547 596 549 574 q 529 640 544 618 q 488 678 514 661 q 446 691 468 688 q 401 690 424 694 q 360 676 379 686 q 326 647 340 665 q 289 577 303 617 q 274 506 275 538 q 315 504 293 506 q 360 503 336 503 q 424 506 385 503 q 494 522 463 510 m 561 782 q 576 788 568 782 q 583 806 583 793 q 566 834 583 819 q 525 860 549 849 q 478 878 501 871 q 446 885 456 885 l 410 885 q 392 878 400 885 q 385 863 385 871 l 385 861 q 390 844 385 851 q 406 836 394 836 l 447 836 q 483 828 464 836 q 517 809 501 819 q 545 790 533 799 q 561 782 557 782 m 639 732 q 656 739 649 732 q 664 754 664 746 q 656 772 664 764 q 639 779 649 779 q 623 772 629 779 q 617 754 617 764 q 623 739 617 746 q 639 732 629 732 z "},"f":{"ha":833,"x_min":50,"x_max":811,"o":"m 811 875 q 803 834 811 854 q 780 798 794 814 q 746 772 765 782 q 706 763 726 763 q 660 763 682 763 q 614 763 638 764 q 548 757 575 761 q 503 740 521 753 q 477 701 486 726 q 467 632 468 676 q 466 606 467 619 q 465 574 465 593 q 465 530 465 556 q 465 467 465 504 q 546 474 506 469 q 625 478 586 478 q 688 463 663 478 q 725 424 713 447 q 738 372 738 400 q 726 319 739 344 q 688 275 714 294 q 625 250 663 256 q 576 247 601 249 q 525 242 550 244 q 497 239 511 239 q 468 239 482 239 q 472 142 471 190 q 476 46 474 94 q 480 -1 478 24 q 482 -46 482 -25 q 449 -127 482 -93 q 368 -161 415 -161 q 313 -149 335 -161 q 278 -118 292 -137 q 259 -73 265 -99 q 251 -18 253 -47 q 242 108 247 46 q 239 233 238 171 q 180 234 208 233 q 128 242 151 235 q 85 267 104 250 q 53 318 65 285 q 51 334 53 325 q 50 350 50 343 q 59 392 50 371 q 83 429 68 413 q 119 456 99 446 q 164 465 140 465 q 201 465 182 465 q 238 464 219 464 q 237 572 238 513 q 243 692 236 632 q 269 806 250 751 q 329 899 289 860 q 395 945 357 926 q 476 974 433 964 q 563 989 518 985 q 649 993 607 993 q 704 988 675 993 q 757 969 733 982 q 796 933 781 956 q 811 875 811 910 m 608 442 q 585 442 601 442 q 551 442 568 443 q 522 436 535 440 q 510 422 510 432 q 517 401 510 411 q 535 392 524 392 q 556 392 542 392 q 584 392 569 392 q 610 396 599 393 q 625 403 622 399 q 633 419 633 408 q 626 435 633 429 q 608 442 618 442 m 644 907 q 650 915 649 908 q 651 924 651 921 q 645 940 651 933 q 631 947 639 947 q 598 945 621 947 q 550 939 575 943 q 504 928 525 935 q 479 913 483 921 q 478 901 478 908 q 485 885 478 894 q 497 876 492 876 q 503 878 501 876 q 507 881 504 881 q 567 894 535 890 q 631 899 599 899 q 638 901 633 899 q 644 907 643 903 m 706 896 q 723 903 715 896 q 731 921 731 911 q 723 937 731 929 q 706 944 715 944 q 689 937 696 944 q 682 921 682 929 q 688 903 682 910 q 706 896 694 896 z "},"g":{"ha":801,"x_min":46,"x_max":764,"o":"m 110 699 q 200 803 143 756 q 325 881 257 851 q 467 914 393 910 q 607 889 540 918 q 668 839 643 874 q 704 742 693 804 q 748 483 732 615 q 764 213 764 351 q 753 71 764 142 q 715 -63 742 0 q 646 -176 689 -126 q 539 -251 603 -225 q 370 -276 461 -285 q 200 -219 279 -267 q 137 -171 164 -197 q 106 -118 110 -144 q 107 -66 101 -92 q 127 -20 113 -40 q 165 13 142 0 q 217 25 188 25 q 292 4 258 25 q 359 -33 326 -17 q 425 -47 392 -49 q 496 0 458 -46 q 527 68 519 29 q 535 147 535 107 q 374 101 464 101 q 288 115 329 101 q 209 151 246 128 q 142 207 172 175 q 92 278 113 239 q 56 382 67 328 q 49 491 46 436 q 67 599 51 546 q 110 699 82 651 m 253 728 q 266 735 256 728 q 288 751 276 742 q 313 768 300 760 q 332 779 325 776 q 417 796 371 796 q 433 803 426 796 q 439 821 439 811 q 433 837 439 829 q 417 844 426 844 q 317 825 364 844 q 233 767 269 806 q 226 751 226 761 q 234 733 226 739 q 253 728 242 728 m 271 444 q 296 366 271 393 q 355 336 321 339 q 423 353 389 333 q 475 415 457 374 q 496 500 490 454 q 499 589 501 546 q 462 672 493 657 q 390 665 431 686 q 301 574 331 633 q 271 444 271 515 m 501 792 q 519 797 511 792 q 526 813 526 803 q 521 832 526 824 q 501 840 515 840 q 485 833 493 840 q 478 815 478 825 q 486 800 478 808 q 501 792 494 792 m 397 -143 q 424 -137 413 -143 q 436 -117 436 -132 q 428 -100 436 -107 q 414 -93 421 -93 q 355 -87 381 -93 q 304 -61 329 -81 l 306 -64 q 289 -56 297 -56 q 272 -63 279 -56 q 265 -81 265 -71 q 282 -106 265 -94 q 321 -125 299 -117 q 365 -138 343 -133 q 397 -143 386 -143 z "},"h":{"ha":775,"x_min":49,"x_max":724,"o":"m 410 836 q 577 791 515 836 q 670 675 639 746 q 710 517 701 604 q 719 347 719 431 q 722 223 719 285 q 724 96 724 161 q 688 15 724 42 q 610 -12 653 -12 q 533 15 568 -12 q 497 96 497 42 q 494 274 497 186 q 490 449 490 361 q 457 567 490 531 q 384 599 424 603 q 311 554 344 594 q 278 443 278 514 q 278 272 278 357 q 276 103 278 186 q 241 17 276 44 q 163 -10 206 -11 q 84 21 119 -8 q 49 103 49 50 q 49 388 49 246 q 50 674 50 531 q 51 857 50 765 q 54 1040 51 949 q 85 1121 54 1088 q 167 1154 117 1154 q 210 1145 189 1154 q 247 1121 232 1136 q 272 1085 263 1106 q 282 1040 282 1064 q 280 924 282 982 q 278 807 278 865 q 341 830 304 824 q 410 836 378 836 m 199 1049 q 215 1072 215 1057 q 208 1090 215 1083 q 189 1101 200 1097 q 166 1108 178 1106 q 144 1111 154 1110 q 121 1089 121 1111 q 135 1067 121 1074 q 145 1063 136 1067 q 165 1057 154 1060 q 186 1051 176 1054 q 199 1049 196 1049 m 533 711 q 549 719 542 711 q 557 736 557 726 q 538 765 557 751 q 492 787 518 778 q 441 801 467 796 q 401 807 415 807 q 385 801 394 807 q 376 786 376 794 l 376 785 q 383 767 376 775 q 397 760 389 760 q 449 752 425 760 q 490 735 472 744 q 518 719 507 726 q 533 711 529 711 m 590 657 q 608 663 600 657 q 615 678 615 668 q 609 697 615 689 q 590 704 603 704 q 574 697 581 704 q 567 679 567 689 q 575 665 567 672 q 590 657 583 657 z "},"i":{"ha":338,"x_min":40,"x_max":288,"o":"m 283 903 q 249 823 283 856 q 168 790 215 790 q 101 813 128 790 q 60 872 74 836 q 58 888 60 881 q 56 903 56 894 q 89 984 56 950 q 168 1018 122 1018 q 249 984 215 1018 q 283 903 283 950 m 211 917 q 226 924 221 917 q 232 940 232 931 q 231 949 232 943 q 226 957 229 956 q 164 983 204 983 q 140 958 140 983 q 144 944 140 949 q 155 939 149 940 q 168 937 161 938 q 181 933 175 936 q 194 923 188 929 q 211 917 201 917 m 268 600 q 278 361 268 479 q 288 122 288 243 q 254 41 288 75 q 175 7 221 7 q 67 76 99 7 q 61 99 63 89 q 60 122 60 110 q 50 356 60 240 q 40 590 40 472 q 50 634 40 613 q 76 671 60 656 q 113 696 92 686 q 157 706 133 706 q 198 697 178 706 q 233 674 218 689 q 258 641 249 660 q 268 600 268 622 m 196 618 q 215 624 207 618 q 222 643 222 631 q 217 656 222 649 q 204 664 211 664 q 174 671 189 669 q 143 672 160 672 q 126 666 133 672 q 119 650 119 660 q 135 628 119 629 q 165 626 150 626 q 181 622 172 626 q 196 618 189 618 z "},"j":{"ha":354,"x_min":-264,"x_max":311,"o":"m 264 924 q 231 842 264 875 q 150 808 199 808 q 81 833 110 808 q 40 893 51 857 q 37 945 31 919 q 60 991 43 971 q 100 1024 76 1011 q 150 1036 124 1036 q 231 1003 197 1036 q 264 924 264 971 m 213 925 q 222 934 218 928 q 226 947 226 940 q 217 966 226 956 q 196 985 208 976 q 171 999 183 993 q 150 1006 158 1006 q 132 999 139 1006 q 125 981 125 992 q 127 974 125 976 q 132 969 129 972 q 147 958 135 963 q 165 947 158 954 q 181 931 175 940 q 201 921 188 921 q 207 922 204 921 q 213 925 210 924 m 153 676 q 225 654 193 676 q 267 593 257 632 q 269 578 269 585 q 272 564 269 571 q 301 317 292 442 q 311 71 311 193 q 294 -92 311 -12 q 237 -234 276 -172 q 131 -333 197 -296 q -31 -371 65 -371 q -88 -369 -58 -371 q -147 -361 -118 -368 q -203 -340 -176 -354 q -247 -301 -229 -326 q -264 -243 -264 -272 q -227 -160 -264 -190 q -142 -131 -190 -131 q -117 -133 -128 -131 q -93 -136 -106 -136 q 4 -122 -31 -136 q 57 -78 39 -107 q 79 -6 75 -50 q 83 96 83 38 q 73 323 83 213 q 44 563 63 433 q 50 604 42 583 q 74 641 58 625 q 111 667 90 657 q 153 676 132 676 m -15 -211 q -3 -208 -11 -210 q 13 -204 6 -207 q 26 -196 21 -201 q 29 -181 31 -190 l 28 -179 q 20 -165 26 -171 q 4 -161 14 -158 q -32 -167 -14 -164 q -68 -172 -50 -171 q -90 -173 -78 -174 q -111 -175 -101 -172 q -121 -183 -115 -175 q -126 -196 -126 -190 l -125 -200 q -108 -219 -122 -215 q -76 -222 -94 -224 q -42 -217 -58 -221 q -15 -211 -25 -214 m 200 574 q 224 597 224 574 q 223 608 224 603 q 218 614 222 613 q 187 636 210 628 q 147 644 164 644 q 129 638 136 644 q 122 619 122 631 q 127 606 122 610 q 138 600 132 601 q 152 598 144 599 q 164 594 160 597 q 182 581 174 589 q 200 574 190 574 z "},"k":{"ha":743,"x_min":46,"x_max":721,"o":"m 606 899 q 650 890 629 899 q 687 865 671 881 q 712 828 703 849 q 721 785 721 807 q 717 756 721 771 q 707 729 714 742 q 675 677 694 706 q 634 619 656 649 q 590 563 613 590 q 550 518 568 536 q 536 501 543 510 q 524 485 529 493 q 548 437 532 469 q 583 364 564 404 q 622 279 601 324 q 658 194 642 235 q 684 124 674 154 q 694 81 694 93 q 689 51 694 65 q 679 22 683 38 q 640 -17 664 0 q 586 -33 615 -33 q 533 -22 558 -33 q 492 11 508 -11 q 463 69 471 35 q 440 132 454 103 q 390 243 417 189 q 333 353 364 297 q 306 340 319 344 q 281 329 293 336 q 278 267 279 296 q 277 209 278 238 q 276 151 276 181 q 274 89 275 122 q 242 8 272 42 q 163 -26 211 -26 q 80 7 114 -26 q 46 89 46 40 q 47 140 46 117 q 49 185 49 163 q 51 229 50 207 q 53 279 53 251 q 54 476 54 379 q 54 672 54 574 l 54 968 q 88 1048 54 1015 q 169 1081 122 1081 q 210 1072 190 1081 q 247 1049 231 1064 q 272 1015 263 1035 q 282 974 282 996 l 282 582 q 328 617 311 603 q 360 647 346 632 q 388 678 374 661 q 426 721 403 696 q 454 760 439 735 q 486 810 469 785 q 519 856 503 835 q 550 883 536 876 q 579 894 564 890 q 606 899 594 899 m 193 988 q 210 995 203 988 q 218 1013 218 1003 l 218 1018 q 194 1042 213 1031 q 160 1053 175 1053 q 147 1046 153 1053 q 138 1035 142 1039 q 142 1017 138 1018 q 156 1006 146 1015 q 157 1003 157 1006 q 160 1001 157 1001 q 175 994 169 1000 l 183 992 q 189 988 186 989 q 193 988 192 988 m 415 601 q 438 620 424 607 q 465 649 451 633 q 490 679 479 664 q 500 703 500 694 q 494 721 500 714 q 476 728 488 728 q 458 717 465 728 q 423 674 439 692 q 383 635 407 657 q 378 626 379 632 q 376 618 376 621 q 400 594 376 594 l 408 594 q 412 598 410 597 q 415 601 414 599 m 536 747 q 551 755 544 747 q 557 772 557 763 q 551 788 557 781 q 536 796 544 796 q 519 788 526 796 q 511 772 511 781 q 517 754 511 761 q 536 747 524 747 z "},"l":{"ha":335,"x_min":39,"x_max":297,"o":"m 267 786 q 270 490 267 639 q 288 188 274 340 q 294 128 290 158 q 297 71 297 99 q 265 -3 297 28 q 183 -33 232 -33 q 121 -16 149 -33 q 78 29 93 1 q 72 49 72 40 q 69 71 71 58 q 47 423 56 249 q 39 775 39 597 q 41 881 39 828 q 46 988 43 935 q 80 1060 47 1031 q 160 1090 113 1090 q 241 1060 208 1090 q 274 988 274 1031 q 270 888 274 939 q 267 786 267 836 m 183 999 q 208 1021 208 999 q 201 1036 208 1029 q 182 1047 193 1043 q 159 1054 171 1051 q 139 1057 147 1057 q 123 1050 131 1057 q 115 1035 115 1043 q 133 1014 115 1021 q 151 1009 142 1010 q 171 1003 161 1008 q 183 999 175 999 z "},"!":{"ha":321,"x_min":53,"x_max":272,"o":"m 63 990 q 95 1066 63 1040 q 167 1092 128 1092 q 240 1068 207 1093 q 272 990 272 1043 q 267 651 272 821 q 263 313 263 482 q 260 285 263 299 q 249 258 257 272 q 209 221 233 235 q 157 207 185 207 q 83 238 113 207 q 53 313 53 268 q 56 651 53 482 q 63 990 60 821 m 178 996 q 187 984 185 989 q 201 979 189 979 q 222 990 218 979 q 222 1013 226 1000 q 190 1048 214 1035 q 142 1061 167 1061 q 127 1055 133 1061 q 121 1040 121 1049 q 127 1024 121 1029 q 142 1017 133 1019 q 161 1010 151 1014 q 178 996 171 1006 m 211 897 q 226 903 218 897 q 233 918 233 908 q 211 939 233 939 q 195 933 203 939 q 188 918 188 926 q 195 903 188 908 q 211 897 203 897 m 158 150 q 219 134 196 150 q 255 94 243 118 q 266 42 267 69 q 254 -10 265 14 q 221 -51 243 -35 q 167 -67 199 -67 q 110 -51 133 -67 q 76 -10 88 -35 q 65 42 65 14 q 76 94 65 69 q 107 134 86 118 q 158 150 128 150 m 186 56 q 210 50 196 42 q 224 75 224 58 q 216 94 224 86 q 197 106 208 101 q 174 113 186 111 q 154 115 163 115 q 138 109 144 115 q 131 94 131 103 q 139 76 131 81 q 158 71 147 71 q 175 67 168 68 q 186 56 182 65 z "},"\"":{"ha":578,"x_min":50,"x_max":521,"o":"m 79 960 q 79 1019 69 993 q 109 1060 89 1044 q 156 1079 129 1075 q 206 1074 182 1083 q 249 1043 231 1065 q 274 983 268 1021 q 274 897 278 949 q 253 797 269 846 q 207 714 236 749 q 135 679 178 679 q 74 696 97 679 q 50 750 50 713 q 61 799 50 776 q 82 846 72 822 q 94 897 92 869 q 79 960 96 925 m 210 956 q 226 963 219 956 q 233 979 233 969 q 223 1016 233 994 q 197 1042 213 1038 q 175 1042 186 1044 q 164 1019 164 1039 q 171 1004 164 1014 q 182 989 178 994 q 186 978 185 983 q 190 967 188 972 q 196 959 192 963 q 210 956 200 956 m 322 960 q 323 1019 314 993 q 352 1060 332 1044 q 399 1079 372 1075 q 449 1074 425 1083 q 492 1043 474 1065 q 517 983 511 1021 q 517 897 521 949 q 496 797 513 846 q 450 714 479 749 q 378 679 421 679 q 317 696 340 679 q 293 750 293 713 q 304 799 293 776 q 325 846 315 822 q 337 897 335 869 q 322 960 339 925 m 453 956 q 469 963 463 956 q 476 979 476 969 q 466 1016 476 994 q 440 1042 456 1038 q 418 1042 429 1044 q 407 1019 407 1039 q 414 1004 407 1014 q 425 989 421 994 q 429 978 428 983 q 433 967 431 972 q 439 959 435 963 q 453 956 443 956 z "},"#":{"ha":1383,"x_min":38,"x_max":1331,"o":"m 1331 710 q 1298 631 1331 664 q 1219 599 1265 599 q 1113 598 1165 599 q 1006 593 1061 597 l 990 463 q 1076 462 1035 463 q 1161 458 1117 461 q 1242 424 1208 456 q 1276 342 1276 392 q 1267 298 1276 318 q 1242 263 1258 278 q 1206 238 1226 247 q 1161 231 1185 229 l 968 236 q 957 153 961 196 q 950 67 953 111 q 917 -14 947 19 q 836 -47 886 -47 q 757 -14 790 -47 q 724 67 724 19 q 728 151 724 107 q 739 236 732 196 q 633 230 686 235 q 528 228 581 225 q 522 149 525 196 q 507 63 519 103 q 456 -3 492 17 q 381 -17 419 -22 q 314 13 343 -12 q 285 83 285 39 q 289 147 285 115 q 296 211 293 179 q 223 201 261 208 q 149 194 185 194 q 77 221 104 194 q 44 283 50 247 q 52 355 38 318 q 107 413 67 392 q 149 422 119 418 q 210 429 178 426 q 274 435 243 432 q 321 439 304 438 q 326 499 324 469 q 332 560 328 528 q 293 554 315 557 q 248 549 271 551 q 204 544 225 546 q 171 542 183 542 q 89 575 122 542 q 56 657 56 608 q 58 680 56 668 q 67 701 61 692 q 78 727 68 715 q 103 749 89 739 q 132 764 117 758 q 160 769 147 769 q 256 776 207 769 q 350 789 304 783 q 357 888 354 838 q 363 986 360 938 q 372 1030 363 1008 q 396 1067 381 1051 q 432 1092 411 1082 q 478 1101 453 1101 q 519 1093 499 1101 q 555 1070 539 1085 q 581 1036 571 1056 q 590 996 590 1017 q 585 901 590 949 q 578 807 581 853 q 692 813 636 810 q 806 818 747 815 q 824 945 815 882 q 844 1071 832 1008 q 869 1122 850 1103 q 914 1147 889 1140 q 966 1150 939 1154 q 1016 1131 993 1146 q 1053 1092 1039 1117 q 1068 1036 1068 1068 q 1063 1010 1068 1025 q 1056 967 1060 990 q 1049 917 1053 943 q 1042 867 1046 892 q 1036 824 1039 843 q 1128 826 1082 826 q 1219 826 1175 826 q 1263 817 1242 826 q 1298 791 1283 807 q 1322 753 1313 775 q 1331 710 1331 732 m 663 786 q 638 785 654 786 q 605 783 622 785 q 573 777 588 781 q 553 769 558 774 q 547 753 547 764 q 555 736 547 743 q 569 729 563 729 q 592 731 575 729 q 628 735 610 732 q 663 740 647 738 q 679 746 678 743 q 684 755 681 749 q 688 764 688 761 q 680 780 688 774 q 663 786 672 786 m 464 1033 q 485 1020 469 1028 q 510 1013 501 1013 q 526 1020 518 1013 q 533 1036 533 1028 l 533 1040 q 518 1063 528 1054 q 497 1075 508 1071 q 469 1077 483 1082 q 454 1051 454 1072 q 464 1033 454 1040 m 631 383 q 624 405 631 397 q 609 415 618 413 q 588 418 600 418 q 565 418 576 418 q 536 418 550 418 q 511 411 522 418 q 500 383 497 400 q 526 367 503 367 q 563 367 543 368 q 601 365 583 365 q 631 383 622 365 m 778 588 q 669 583 724 586 q 561 575 614 579 q 555 517 558 547 q 549 458 551 486 l 763 464 l 778 588 m 978 1046 q 999 1061 992 1046 q 996 1088 1007 1076 q 976 1106 989 1096 q 950 1121 964 1115 q 929 1119 938 1124 q 918 1108 921 1115 q 918 1090 915 1100 q 932 1075 921 1081 q 955 1056 944 1065 q 978 1046 965 1046 z "},"$":{"ha":742,"x_min":32,"x_max":707,"o":"m 707 319 q 689 242 707 278 q 642 178 671 207 q 574 129 613 150 q 496 96 536 108 q 493 40 496 68 q 479 -10 490 13 q 446 -48 468 -33 q 385 -62 424 -62 q 309 -34 340 -62 q 278 38 278 -6 q 281 56 278 47 q 285 75 285 64 q 217 84 256 76 q 145 106 179 92 q 88 144 111 121 q 65 204 65 168 q 96 272 65 242 q 169 301 126 301 q 207 295 185 301 q 240 278 229 289 q 288 267 263 271 q 338 263 313 263 q 435 274 404 263 q 465 304 465 286 q 438 344 465 322 q 358 389 410 367 q 244 436 303 413 q 139 492 186 460 q 62 567 92 524 q 32 675 32 611 q 52 756 32 717 q 105 824 72 794 q 179 875 138 854 q 265 903 221 896 l 268 904 q 263 948 271 928 q 256 992 256 968 q 264 1027 256 1010 q 286 1058 272 1044 q 319 1081 300 1072 q 360 1089 339 1089 q 420 1074 397 1089 q 456 1037 443 1060 q 472 985 468 1014 q 476 929 476 957 q 475 915 476 919 q 544 910 508 918 q 613 893 581 901 q 669 860 647 885 q 692 801 692 836 q 660 731 692 758 q 583 703 628 703 q 534 710 558 703 q 488 722 510 718 q 454 725 471 725 q 419 725 438 725 q 322 715 361 725 q 270 686 282 704 q 280 644 258 668 q 367 594 301 621 l 376 592 q 481 552 424 575 q 589 497 539 529 q 673 421 639 464 q 707 319 707 378 m 563 856 q 546 850 553 856 q 539 836 539 844 q 563 815 539 815 q 576 822 569 815 q 583 836 583 829 q 576 850 583 844 q 563 856 569 856 m 338 871 q 321 864 328 867 q 314 850 314 861 q 319 836 314 843 q 335 829 325 829 l 338 829 q 392 831 365 831 q 447 831 419 831 q 464 829 454 831 q 483 829 474 828 q 498 835 492 831 q 504 850 504 839 q 497 865 504 860 q 481 871 489 871 q 425 872 453 872 q 369 872 397 872 q 353 872 363 872 q 338 871 344 871 m 383 189 q 415 194 393 189 q 460 206 438 199 q 499 222 482 213 q 515 243 515 232 q 508 256 515 251 q 490 261 500 261 q 472 254 482 261 q 453 246 461 247 q 414 235 435 238 q 374 226 393 233 q 360 208 360 219 q 367 195 360 201 q 383 189 375 189 z "},"%":{"ha":1176,"x_min":28,"x_max":1153,"o":"m 746 633 q 901 605 822 632 q 1040 528 981 578 q 1126 407 1099 478 q 1125 246 1153 336 q 1081 156 1110 199 q 1014 81 1053 114 q 929 29 975 49 q 835 10 883 10 q 718 31 769 10 q 630 91 667 53 q 572 183 593 129 q 549 304 551 238 q 470 155 507 232 q 394 3 433 78 q 358 -37 382 -22 q 307 -51 333 -51 q 269 -44 288 -51 q 236 -22 251 -36 q 212 10 221 -8 q 203 49 203 28 q 207 80 203 61 q 218 110 211 99 q 260 197 239 151 q 303 286 281 242 q 342 361 324 324 q 383 436 361 399 q 258 431 321 419 q 143 478 194 443 q 60 569 92 514 q 28 693 28 624 q 48 817 28 760 q 107 917 68 875 q 201 983 146 958 q 325 1007 256 1007 q 415 994 368 1007 q 501 956 461 981 q 572 894 542 931 q 611 813 601 858 l 613 810 q 638 848 618 818 q 682 910 658 878 q 727 971 706 943 q 758 1003 749 999 q 828 1008 793 1015 q 888 978 864 1000 q 918 924 913 957 q 899 857 924 892 q 867 808 888 838 q 822 745 846 778 q 777 682 799 713 q 746 633 756 651 m 235 693 q 255 649 235 664 q 302 635 275 635 q 357 648 329 635 q 399 689 385 661 q 410 726 407 707 q 406 760 413 744 q 385 785 400 775 q 343 796 369 796 q 263 767 292 796 q 235 693 235 739 m 407 917 q 431 938 431 917 q 419 958 431 950 q 391 972 407 967 q 358 980 375 978 q 333 982 342 982 q 313 981 325 982 q 289 975 301 979 q 267 965 276 971 q 253 951 257 960 q 255 935 253 940 q 268 924 257 931 q 285 925 278 924 l 286 926 q 310 934 297 931 q 333 938 322 938 q 357 935 346 938 q 383 926 368 932 q 395 920 386 924 q 407 917 404 917 m 479 865 q 494 872 488 865 q 501 888 501 879 q 493 902 501 894 q 479 910 485 910 q 464 904 471 910 q 457 890 457 899 q 462 872 457 879 q 479 865 467 865 m 753 338 q 758 279 749 307 q 788 235 768 251 q 834 222 807 219 q 890 253 861 224 q 915 288 906 268 q 923 327 924 307 q 909 366 922 347 q 867 400 896 385 q 822 412 842 413 q 787 401 801 411 q 764 375 772 392 q 753 338 756 358 m 968 475 q 990 499 990 475 q 974 524 990 511 q 934 547 957 538 q 888 563 911 557 q 853 569 865 569 q 838 563 844 569 q 831 546 831 556 q 838 531 831 538 q 853 524 844 524 q 894 516 875 524 q 928 499 913 508 q 953 483 943 490 q 968 475 964 475 z "},"&":{"ha":1043,"x_min":39,"x_max":1015,"o":"m 981 178 q 1009 126 1003 158 q 1007 65 1015 94 q 976 13 999 35 q 917 -10 953 -10 q 873 0 897 -10 q 823 23 849 10 q 774 51 797 36 q 735 75 751 65 q 579 -11 660 19 q 403 -42 499 -42 q 267 -26 333 -42 q 151 25 201 -10 q 69 115 100 60 q 39 247 39 169 q 52 331 39 289 q 88 410 65 372 q 140 482 110 449 q 204 540 171 515 q 163 642 179 590 q 146 751 146 693 q 176 885 146 824 q 256 990 206 946 q 370 1060 306 1035 q 504 1085 435 1085 q 616 1069 560 1085 q 717 1023 672 1054 q 791 945 763 992 q 819 836 819 899 q 802 753 819 792 q 758 683 785 715 q 696 622 731 650 q 628 571 661 594 q 568 531 599 551 q 506 494 538 511 q 596 417 549 451 q 690 347 643 382 q 712 406 704 374 q 731 465 719 438 q 765 510 743 492 q 826 528 786 528 q 903 495 875 528 q 932 418 932 463 q 926 378 932 403 q 910 326 919 353 q 890 275 901 299 q 871 239 879 251 q 926 212 894 226 q 981 178 957 197 m 669 1001 q 654 994 661 1001 q 647 978 647 988 q 654 963 647 969 q 669 957 661 957 q 684 963 678 957 q 690 978 690 969 q 684 994 690 988 q 669 1001 678 1001 m 517 1047 q 488 1046 508 1047 q 449 1040 468 1044 q 414 1029 429 1036 q 399 1011 399 1022 q 406 996 399 1003 q 422 989 413 989 q 469 997 439 989 q 525 1004 499 1004 q 557 999 540 1004 q 581 993 574 993 q 585 990 582 990 q 589 989 588 989 q 610 1000 603 989 q 613 1010 613 1004 q 601 1030 613 1022 q 573 1042 589 1038 q 541 1047 557 1046 q 517 1047 525 1047 m 546 771 q 593 844 600 811 q 508 878 586 878 q 428 858 467 878 q 371 800 390 838 q 355 729 354 767 q 376 661 356 692 q 462 714 419 686 q 546 771 504 742 m 328 104 q 348 108 339 104 q 357 129 357 113 q 351 140 357 133 q 339 149 346 146 q 233 185 283 158 q 222 189 229 189 q 207 183 214 189 q 200 167 200 176 q 217 144 200 156 q 255 124 233 133 q 297 110 276 115 q 328 104 318 104 m 399 168 q 428 171 408 168 q 470 178 449 174 q 511 188 492 182 q 538 200 531 193 q 427 280 482 239 q 328 371 372 321 q 263 300 275 336 q 265 235 250 264 q 316 187 279 206 q 399 168 353 168 z "},"'":{"ha":322,"x_min":50,"x_max":278,"o":"m 79 960 q 79 1019 69 993 q 109 1060 89 1044 q 156 1079 129 1075 q 206 1074 182 1083 q 249 1043 231 1065 q 274 983 268 1021 q 274 897 278 949 q 253 797 269 846 q 207 714 236 749 q 135 679 178 679 q 74 696 97 679 q 50 750 50 713 q 61 799 50 776 q 82 846 72 822 q 94 897 92 869 q 79 960 96 925 m 210 956 q 226 963 219 956 q 233 979 233 969 q 223 1016 233 994 q 197 1042 213 1038 q 175 1042 186 1044 q 164 1019 164 1039 q 171 1004 164 1014 q 182 989 178 994 q 186 978 185 983 q 190 967 188 972 q 196 959 192 963 q 210 956 200 956 z "},"(":{"ha":685,"x_min":43,"x_max":654,"o":"m 586 1010 q 457 915 515 975 q 358 781 399 856 q 295 624 317 707 q 278 462 274 542 q 316 312 283 382 q 415 192 349 242 q 479 153 444 171 q 546 119 514 135 q 585 99 565 108 q 619 76 604 89 q 644 47 635 64 q 651 4 653 29 q 640 -35 650 -17 q 615 -67 631 -53 q 578 -89 599 -81 q 535 -96 557 -97 q 485 -85 507 -94 q 439 -65 464 -75 q 244 56 329 -17 q 106 228 153 132 q 51 427 60 324 q 69 637 43 531 q 147 841 94 743 q 274 1023 199 939 q 442 1168 350 1107 q 492 1195 467 1183 q 540 1206 517 1207 q 622 1172 590 1204 q 653 1096 654 1139 q 633 1047 651 1071 q 586 1010 614 1024 m 461 1133 q 444 1129 451 1135 q 436 1115 438 1124 q 442 1099 436 1106 q 460 1092 447 1092 q 477 1097 469 1090 q 485 1113 485 1104 q 477 1126 486 1118 q 461 1133 468 1133 m 257 932 q 267 913 256 921 q 293 913 279 906 q 303 922 300 917 q 310 932 307 928 q 349 991 328 964 q 401 1042 369 1018 q 408 1056 406 1044 q 402 1070 408 1063 q 386 1078 396 1078 q 353 1060 375 1078 q 310 1017 332 1042 q 273 967 289 992 q 257 932 257 943 m 499 43 q 522 57 515 42 q 513 83 528 72 q 460 108 485 94 q 407 138 435 122 q 386 140 397 149 q 375 121 375 132 q 377 110 375 115 q 383 101 379 104 q 406 88 389 97 q 441 68 422 78 q 476 51 460 58 q 499 43 493 43 z "},")":{"ha":685,"x_min":33,"x_max":644,"o":"m 101 1010 q 55 1047 74 1024 q 35 1096 36 1071 q 42 1137 33 1117 q 65 1172 50 1157 q 101 1196 81 1186 q 147 1206 122 1206 q 196 1195 171 1207 q 246 1168 221 1183 q 413 1024 338 1108 q 541 841 489 939 q 619 637 593 743 q 636 427 644 531 q 581 228 628 324 q 443 56 535 132 q 249 -65 358 -17 q 202 -85 224 -75 q 153 -96 181 -94 q 109 -89 129 -97 q 73 -67 89 -81 q 47 -35 57 -53 q 36 4 38 -17 q 44 47 35 29 q 68 76 53 64 q 103 99 83 89 q 142 119 122 108 q 208 153 174 135 q 272 192 243 171 q 372 312 339 242 q 409 462 404 382 q 392 624 414 542 q 330 781 371 707 q 231 915 289 856 q 101 1010 172 975 m 226 1133 q 210 1126 219 1133 q 203 1113 201 1118 q 210 1097 203 1104 q 228 1092 218 1090 q 246 1099 240 1092 q 251 1115 251 1106 q 243 1129 250 1124 q 226 1133 236 1135 m 431 932 q 415 967 431 943 q 377 1017 399 992 q 334 1060 356 1042 q 301 1078 313 1078 q 285 1070 292 1078 q 279 1056 279 1063 q 286 1042 282 1044 q 339 991 318 1018 q 378 932 360 964 q 384 922 381 928 q 394 913 388 917 q 420 913 408 906 q 431 932 432 921 m 189 43 q 211 51 194 43 q 247 68 228 58 q 282 88 265 78 q 304 101 299 97 q 310 110 308 104 q 313 121 313 115 q 301 140 313 132 q 281 138 290 149 q 228 108 253 122 q 175 83 203 94 q 166 57 160 72 q 189 43 172 42 z "},"*":{"ha":613,"x_min":53,"x_max":561,"o":"m 489 1042 q 539 1020 517 1038 q 561 971 561 1003 q 548 931 561 947 q 516 899 535 914 q 477 872 497 885 q 444 844 457 860 q 474 822 457 833 q 505 799 490 811 q 529 772 519 786 q 539 736 539 757 q 519 686 539 708 q 471 664 499 664 q 422 681 443 664 q 378 714 401 699 q 373 675 375 693 q 364 636 371 657 q 345 618 353 625 q 321 606 338 611 q 310 603 315 603 q 301 601 306 603 q 251 623 272 601 q 231 674 231 644 q 231 692 231 682 q 232 711 232 701 q 209 697 222 704 q 181 681 196 689 q 152 669 167 674 q 126 664 138 664 q 74 685 94 664 q 53 736 53 707 q 65 774 53 758 q 94 800 76 789 q 133 820 113 811 q 168 839 153 829 q 181 846 174 844 q 146 863 164 854 q 112 884 128 872 q 86 910 96 896 q 76 946 76 925 q 97 996 76 972 q 144 1019 117 1019 q 202 1001 176 1019 q 256 968 228 983 q 263 1003 260 985 q 274 1038 267 1022 q 294 1064 281 1054 q 333 1074 308 1074 q 384 1052 363 1074 q 406 1001 406 1031 l 401 994 q 443 1022 425 1007 q 489 1042 461 1036 m 356 964 q 367 970 363 964 q 372 983 372 976 q 372 1001 372 992 q 371 1021 372 1011 q 365 1037 369 1031 q 350 1044 360 1043 q 339 1039 344 1042 q 333 1025 333 1036 q 333 1008 333 1018 q 335 988 333 999 q 342 971 338 978 q 356 964 347 964 z "},"+":{"ha":846,"x_min":53,"x_max":792,"o":"m 683 524 q 765 484 738 519 q 792 407 792 449 q 765 331 792 365 q 683 297 738 297 l 514 297 q 512 226 514 264 q 498 157 510 189 q 462 104 486 125 q 394 83 438 83 q 313 116 346 83 q 279 196 279 149 q 283 240 279 217 q 286 286 286 263 q 225 283 254 286 q 165 281 196 281 q 123 290 143 281 q 87 314 103 299 q 62 350 71 329 q 53 394 53 371 q 62 437 53 417 q 86 472 71 457 q 122 498 101 488 q 165 510 142 508 q 225 513 196 511 q 286 514 254 514 q 276 586 283 550 q 268 658 268 622 q 277 700 268 679 q 301 737 286 721 q 337 763 317 753 q 379 774 357 774 q 416 767 397 774 q 451 750 435 761 q 479 723 468 739 q 494 689 490 707 q 504 623 503 657 q 508 557 506 589 q 511 540 511 547 q 511 524 511 533 l 683 524 m 600 428 q 616 435 608 428 q 624 451 624 443 q 618 469 624 463 q 600 476 613 476 l 514 482 q 498 475 506 482 q 490 458 490 468 q 497 440 490 447 q 514 433 503 433 l 600 428 m 689 428 q 706 435 699 428 q 714 451 714 443 q 706 469 714 461 q 689 476 699 476 q 667 456 667 476 q 672 436 667 444 q 689 428 678 428 z "},",":{"ha":371,"x_min":43,"x_max":319,"o":"m 319 149 q 313 58 319 115 q 289 -55 307 1 q 239 -152 271 -111 q 156 -193 207 -193 q 76 -159 110 -193 q 43 -79 43 -125 q 51 -40 43 -54 q 67 -3 58 -25 q 85 58 78 25 q 92 122 92 90 q 86 171 92 149 q 81 213 81 193 q 112 292 81 257 q 192 328 143 328 q 251 312 226 328 q 291 270 276 296 q 313 213 306 244 q 319 149 319 181 m 225 197 q 247 198 235 193 q 260 217 260 203 q 245 258 260 238 q 211 289 231 278 q 193 295 203 297 q 178 285 183 293 q 172 267 172 278 q 182 251 172 257 q 193 245 188 247 q 204 236 199 243 q 214 217 211 229 q 225 197 217 204 z "},"-":{"ha":949,"x_min":39,"x_max":907,"o":"m 796 604 q 858 588 833 604 q 895 545 883 571 q 907 490 907 519 q 894 435 907 461 q 857 393 882 410 q 796 376 832 376 q 600 376 697 376 q 404 371 503 376 q 279 364 342 369 q 153 358 217 358 q 73 391 107 358 q 39 471 39 424 q 58 534 39 507 q 110 576 76 561 q 154 585 122 581 q 229 592 186 589 q 321 598 272 596 q 414 602 369 600 q 493 605 458 604 q 544 606 528 606 q 669 606 607 606 q 796 604 732 606 m 689 519 q 704 527 697 519 q 711 543 711 535 q 686 567 711 564 q 636 569 661 569 q 622 569 632 569 q 600 569 613 569 q 574 567 588 568 q 551 564 561 565 q 528 536 528 556 q 556 517 529 517 q 595 519 575 517 q 636 521 615 521 q 663 521 651 521 q 688 519 675 521 l 689 519 m 772 511 q 789 519 782 511 q 796 536 796 526 q 790 553 796 546 q 772 560 783 560 q 755 552 763 560 q 747 536 747 544 q 755 519 747 526 q 772 511 763 511 z "},".":{"ha":315,"x_min":35,"x_max":263,"o":"m 263 100 q 235 26 263 54 q 169 -9 207 -3 q 96 2 132 -15 q 43 64 60 19 q 38 116 35 89 q 56 165 42 143 q 94 201 71 188 q 147 215 117 215 q 228 181 194 215 q 263 100 263 147 m 164 117 q 181 101 172 103 q 197 104 190 99 q 208 119 204 110 q 207 136 211 128 q 191 161 201 149 q 165 179 181 174 q 143 179 153 183 q 133 158 133 175 q 144 139 133 150 q 164 117 156 128 z "},"/":{"ha":610,"x_min":36,"x_max":563,"o":"m 563 1038 q 553 997 563 1031 q 528 915 543 963 q 496 810 514 867 q 461 703 478 754 q 432 611 444 651 q 415 554 419 571 q 381 443 396 490 q 355 357 367 396 q 332 283 343 318 q 310 212 321 249 q 287 131 300 175 q 258 29 274 88 q 206 -39 243 -19 q 132 -53 169 -58 q 65 -17 94 -47 q 36 63 36 13 q 48 121 36 75 q 78 233 60 167 q 122 382 97 300 q 174 551 147 464 q 228 722 201 638 q 277 876 254 806 q 317 997 300 946 q 340 1068 333 1049 q 389 1133 353 1114 q 463 1146 425 1151 q 532 1113 501 1140 q 563 1038 563 1085 m 379 1040 q 390 1026 383 1029 q 407 1024 396 1024 q 415 1026 410 1024 q 422 1032 419 1029 l 418 1029 q 449 1049 435 1046 q 483 1053 463 1053 q 501 1059 493 1053 q 510 1076 510 1065 q 494 1099 510 1096 q 465 1101 479 1101 q 438 1097 453 1101 q 409 1085 422 1093 q 388 1065 396 1076 q 379 1040 379 1054 z "},";":{"ha":399,"x_min":43,"x_max":319,"o":"m 290 633 q 263 559 290 588 q 197 524 235 531 q 124 535 160 518 q 71 597 88 553 q 66 649 63 622 q 84 699 69 676 q 122 735 99 721 q 175 749 144 749 q 256 715 222 749 q 290 633 290 681 m 192 650 q 209 634 200 636 q 225 638 218 632 q 235 652 232 643 q 235 669 239 661 q 219 694 229 682 q 193 713 208 707 q 171 713 181 717 q 161 692 161 708 q 172 672 161 683 q 192 650 183 661 m 319 149 q 313 58 319 115 q 289 -55 307 1 q 239 -152 271 -111 q 156 -193 207 -193 q 76 -159 110 -193 q 43 -79 43 -125 q 51 -40 43 -54 q 67 -3 58 -25 q 85 58 78 25 q 92 122 92 90 q 86 171 92 149 q 81 213 81 193 q 112 292 81 257 q 192 328 143 328 q 251 312 226 328 q 291 270 276 296 q 313 213 306 244 q 319 149 319 181 m 225 197 q 247 198 235 193 q 260 217 260 203 q 245 258 260 238 q 211 289 231 278 q 193 295 203 297 q 178 285 183 293 q 172 267 172 278 q 182 251 172 257 q 193 245 188 247 q 204 236 199 243 q 214 217 211 229 q 225 197 217 204 z "},"<":{"ha":718,"x_min":44,"x_max":676,"o":"m 365 950 q 384 947 374 950 q 406 939 394 943 q 424 932 414 936 q 454 919 433 928 q 512 897 475 911 q 610 858 549 882 q 649 832 633 849 q 665 788 665 815 q 642 735 665 754 q 588 717 619 717 q 561 723 581 717 q 515 740 542 729 q 458 762 489 750 q 401 785 428 774 q 355 803 375 796 q 329 814 335 811 q 299 849 307 826 q 297 894 292 872 q 319 933 301 917 q 365 950 338 950 m 568 810 q 579 822 579 810 q 572 833 579 829 q 557 840 569 835 q 529 850 544 844 l 490 864 q 478 856 478 864 q 492 842 478 850 q 522 827 506 835 q 553 815 539 819 q 568 810 568 810 m 554 542 q 603 521 586 542 q 623 474 621 500 q 610 424 625 447 q 560 397 594 401 q 495 391 536 394 q 406 385 454 388 q 308 379 358 382 q 217 374 258 376 q 147 371 175 372 q 115 369 119 369 q 70 384 88 368 q 49 423 53 400 q 53 469 44 446 q 86 507 63 493 q 101 512 96 510 q 115 514 107 514 q 249 521 182 517 q 382 529 315 525 q 467 536 422 531 q 554 542 513 542 m 472 479 q 510 480 492 479 q 547 482 528 481 q 560 494 560 482 q 556 502 560 497 q 547 507 551 507 q 510 506 528 507 q 472 503 492 504 q 461 492 461 503 q 472 479 461 479 m 606 206 q 631 200 618 206 q 653 185 643 194 q 670 164 664 176 q 676 139 676 151 q 671 102 676 117 q 649 75 665 88 q 626 65 644 72 q 581 47 608 57 q 524 25 554 36 q 465 3 493 14 q 416 -15 438 -7 q 388 -25 394 -22 q 369 -32 376 -28 q 351 -36 363 -36 q 299 -12 318 -36 q 279 42 279 11 q 291 75 279 57 q 315 100 303 93 q 348 114 325 104 q 400 135 371 124 q 462 159 429 146 q 523 182 494 172 q 574 199 551 192 q 606 206 596 206 m 547 126 q 563 133 556 129 q 586 143 571 136 q 600 157 600 147 q 593 165 600 164 q 583 167 586 167 q 569 164 579 167 q 549 156 560 161 q 531 146 539 151 q 524 135 524 140 q 536 124 524 124 q 547 126 539 124 z "},"=":{"ha":982,"x_min":43,"x_max":938,"o":"m 822 739 q 864 731 843 739 q 901 708 885 722 q 928 673 918 693 q 938 631 938 653 q 931 595 938 614 q 914 561 925 576 q 888 535 903 546 q 854 519 872 524 q 612 491 733 497 q 368 485 490 485 q 263 488 317 485 q 158 493 210 490 q 76 527 110 494 q 43 608 43 560 q 52 651 43 631 q 76 688 61 672 q 113 712 92 703 q 158 721 135 721 q 267 716 214 718 q 378 714 321 714 q 469 714 422 714 q 560 717 515 714 q 677 724 618 719 q 793 738 736 728 q 808 739 801 739 q 822 739 814 739 m 546 635 q 580 635 554 635 q 634 636 606 635 q 686 640 663 638 q 713 646 710 642 q 717 651 715 647 q 718 658 718 656 q 713 678 718 669 q 694 686 707 686 q 660 686 685 686 q 607 685 635 686 q 556 681 579 683 q 529 675 533 679 q 521 658 521 668 q 528 642 521 649 q 546 635 536 635 m 796 646 q 813 653 806 646 q 821 671 821 661 q 812 686 821 678 q 796 694 803 694 q 779 688 786 694 q 772 672 772 682 q 778 653 772 661 q 796 646 783 646 m 886 311 q 856 233 886 268 q 781 199 825 199 q 596 194 689 199 q 410 186 503 189 q 293 179 351 183 q 176 175 235 175 q 131 185 153 175 q 94 210 110 194 q 70 246 79 225 q 61 290 61 267 q 69 331 61 311 q 92 367 78 351 q 126 393 107 383 q 165 403 144 403 q 236 406 201 403 q 306 408 271 408 q 422 412 364 410 q 539 415 481 414 q 656 422 599 418 q 774 426 714 426 q 817 417 797 426 q 853 391 838 407 q 877 354 868 375 q 886 311 886 333 m 674 325 q 690 332 682 325 q 697 349 697 339 q 690 365 697 358 q 674 371 682 371 l 547 371 q 531 365 538 371 q 524 349 524 358 q 531 332 524 339 q 547 325 538 325 l 674 325 m 765 329 q 780 337 772 329 q 788 353 788 344 q 780 370 788 363 q 765 378 772 378 q 749 371 757 378 q 742 354 742 364 q 747 337 742 344 q 765 329 753 329 z "},">":{"ha":718,"x_min":33,"x_max":665,"o":"m 344 950 q 390 933 372 950 q 413 894 408 917 q 410 849 418 872 q 381 814 403 826 q 354 803 374 811 q 308 785 335 796 q 251 762 282 774 q 194 740 221 750 q 148 723 168 729 q 122 717 128 717 q 67 735 90 717 q 44 788 44 754 q 60 832 44 815 q 100 858 76 849 q 198 897 161 882 q 256 919 235 911 q 286 932 276 928 q 304 939 296 936 q 326 947 315 943 q 344 950 336 950 m 142 810 q 156 815 142 810 q 188 827 171 819 q 218 842 204 835 q 232 856 232 850 q 219 864 232 864 l 181 850 q 152 840 165 844 q 138 833 139 835 q 131 822 131 829 q 142 810 131 810 m 156 542 q 242 536 197 542 q 328 529 288 531 q 461 521 394 525 q 594 514 528 517 q 608 512 603 514 q 624 507 614 510 q 656 469 647 493 q 661 423 665 446 q 640 384 657 400 q 594 369 622 368 q 563 371 590 369 q 493 374 535 372 q 401 379 451 376 q 303 385 351 382 q 215 391 256 388 q 150 397 174 394 q 100 424 115 401 q 87 474 85 447 q 106 521 89 500 q 156 542 124 542 m 238 479 q 249 492 249 479 q 238 503 249 503 q 200 506 218 504 q 163 507 182 507 q 154 502 158 507 q 150 494 150 497 q 163 482 150 482 q 200 480 182 481 q 238 479 218 479 m 104 206 q 160 192 118 206 q 249 159 201 178 q 338 123 296 140 q 394 100 379 106 q 419 75 407 93 q 431 42 431 57 q 411 -12 431 11 q 358 -36 392 -36 q 340 -32 347 -36 q 322 -25 333 -28 q 294 -15 315 -22 q 244 3 272 -7 q 186 25 217 14 q 128 47 156 36 q 83 65 101 57 q 61 75 64 72 q 39 102 44 88 q 33 139 33 117 q 40 164 33 151 q 56 185 46 176 q 79 200 67 194 q 104 206 92 206 m 163 126 q 174 124 171 124 q 186 135 186 124 q 178 146 186 140 q 160 156 171 151 q 140 164 150 161 q 126 167 131 167 q 117 165 124 167 q 110 157 110 164 q 124 143 110 147 q 147 133 139 136 q 163 126 154 129 z "},"¢":{"ha":843,"x_min":46,"x_max":803,"o":"m 689 439 q 769 408 735 439 q 803 333 803 376 q 774 267 803 297 q 703 212 744 236 q 619 170 663 188 q 547 144 576 153 q 549 85 549 117 q 550 26 550 54 q 515 -50 550 -25 q 437 -74 479 -75 q 359 -49 394 -74 q 324 21 324 -25 l 324 26 q 321 78 319 53 q 319 129 322 104 q 205 178 256 143 q 119 260 154 213 q 65 365 83 308 q 46 481 46 422 q 65 590 46 538 q 117 685 83 642 q 197 761 150 728 q 299 815 243 794 q 296 883 299 847 q 293 964 293 918 q 328 1037 293 1007 q 408 1067 363 1067 q 449 1059 429 1067 q 484 1038 468 1051 q 510 1008 500 1025 q 519 971 519 990 q 521 899 519 935 q 522 829 522 864 q 578 819 544 828 q 647 794 613 810 q 712 760 682 779 q 756 721 742 742 q 769 697 765 708 q 772 668 772 686 q 764 628 772 647 q 741 595 756 610 q 706 572 726 581 q 663 564 686 564 q 612 574 638 564 q 558 598 586 585 q 499 622 529 611 q 433 632 468 632 q 369 619 399 632 q 317 585 339 607 q 284 535 296 564 q 272 474 272 506 q 281 422 272 447 q 306 375 289 396 q 347 342 322 354 q 403 329 371 329 q 455 336 428 329 q 509 353 482 343 q 560 378 536 364 q 604 406 585 392 q 608 406 607 406 q 610 407 608 407 q 689 439 646 439 m 626 760 q 609 753 617 760 q 601 738 601 746 q 609 722 601 729 q 626 714 617 714 q 643 719 636 714 q 650 733 650 724 q 626 760 650 760 m 460 799 q 442 799 451 799 q 423 797 432 799 q 408 789 414 794 q 401 774 401 783 q 409 759 401 765 q 424 753 417 753 q 462 753 443 753 q 500 753 481 754 q 532 744 515 750 q 561 739 549 739 q 578 745 572 739 q 583 760 583 751 q 568 781 583 774 q 532 793 553 789 q 490 798 511 797 q 460 799 469 799 m 417 231 q 432 238 425 231 q 439 251 439 244 q 434 268 439 261 q 417 275 429 275 q 381 281 399 275 q 348 296 363 288 q 322 310 333 304 q 306 317 311 317 q 288 310 296 317 q 281 293 281 303 q 297 269 281 281 q 337 249 314 258 q 383 235 360 240 q 417 231 406 231 z "},"€":{"ha":1094,"x_min":47,"x_max":1060,"o":"m 936 185 q 1008 174 979 193 q 1049 123 1038 154 q 1050 58 1060 92 q 1006 1 1040 24 q 950 -26 983 -14 q 880 -44 917 -37 q 807 -55 843 -51 q 744 -58 771 -58 q 608 -44 675 -58 q 481 1 540 -29 q 375 76 422 31 q 297 186 328 122 q 283 222 289 203 q 269 256 276 240 q 212 253 240 254 q 153 251 183 251 q 113 259 132 251 q 80 281 94 267 q 56 313 65 294 q 47 353 47 332 q 66 411 47 390 q 113 442 85 432 q 176 455 142 453 q 240 457 210 457 q 240 487 240 468 q 242 518 239 506 q 206 515 225 517 q 167 513 186 513 q 119 526 142 513 q 83 559 97 539 q 65 604 68 579 q 74 654 61 629 q 108 696 85 682 q 159 715 131 710 q 218 721 188 721 q 275 724 249 721 q 282 725 278 725 q 289 725 286 725 q 369 856 322 794 q 476 964 415 918 q 610 1036 536 1010 q 772 1063 685 1063 q 838 1058 803 1063 q 902 1042 872 1054 q 952 1007 932 1029 q 972 947 972 985 q 942 874 972 903 q 867 846 913 846 q 833 853 849 846 q 801 860 817 860 q 647 831 722 860 q 528 729 572 801 q 592 728 561 729 q 656 725 622 726 q 731 693 706 724 q 757 615 757 663 q 755 599 757 606 q 750 585 753 593 q 656 524 724 524 q 552 526 604 524 q 449 529 500 529 q 447 497 447 514 q 447 464 447 479 q 567 467 508 464 q 683 469 625 469 q 756 440 725 469 q 786 369 786 410 q 757 297 786 328 q 683 267 728 267 q 565 263 625 267 q 530 263 549 263 q 492 261 511 263 q 599 170 535 199 q 739 142 664 142 q 839 157 792 142 q 936 185 886 172 m 640 678 q 631 692 639 686 q 615 696 624 697 q 574 695 596 693 q 533 694 553 697 q 520 685 524 693 q 518 670 517 678 q 526 656 519 663 q 543 651 532 650 q 584 651 563 653 q 625 653 606 650 q 638 662 633 654 q 640 678 642 669 m 738 1018 q 722 1011 729 1018 q 714 997 714 1004 q 722 982 714 989 q 738 975 729 975 q 751 982 744 975 q 757 997 757 989 q 752 1012 757 1006 q 738 1018 747 1018 m 682 972 q 696 983 693 975 q 695 997 699 990 q 684 1009 692 1004 q 665 1013 676 1014 q 618 1001 646 1010 q 565 979 590 992 q 522 953 540 967 q 504 928 504 940 q 511 913 504 921 q 526 906 518 906 q 534 906 531 906 q 543 914 538 907 q 555 922 546 917 q 575 934 564 928 q 597 946 586 940 q 611 954 607 951 q 645 965 628 961 q 682 972 663 969 m 686 69 q 713 72 700 69 q 726 92 726 75 q 719 107 726 100 q 704 114 711 114 q 649 116 676 114 q 596 129 621 118 q 578 140 590 132 q 561 147 565 147 q 549 144 553 147 q 540 136 544 140 q 538 125 538 133 q 557 102 538 113 q 601 84 576 92 q 651 73 626 76 q 686 69 675 69 z "},"¥":{"ha":1025,"x_min":47,"x_max":992,"o":"m 878 1067 q 958 1034 925 1067 q 992 953 992 1001 q 990 930 992 938 q 982 907 988 922 q 963 877 978 897 q 926 831 947 857 q 879 778 904 806 q 831 724 854 750 q 788 678 807 699 q 760 649 769 658 q 772 649 765 649 q 786 650 778 650 q 867 617 832 650 q 901 538 901 585 q 867 456 901 485 q 786 422 833 428 q 693 417 740 419 q 600 406 646 414 q 593 364 596 386 q 588 321 590 342 q 684 317 636 319 q 781 311 732 314 q 865 276 836 308 q 894 190 894 243 q 885 149 894 169 q 859 115 875 129 q 822 91 843 100 q 781 83 801 82 q 682 90 732 86 q 582 93 632 93 l 582 63 q 549 -17 582 15 q 468 -50 515 -50 q 415 -38 436 -50 q 379 -7 393 -26 q 359 38 365 13 q 353 92 353 64 q 256 84 304 89 q 158 79 207 79 q 74 115 101 79 q 47 193 47 150 q 74 272 47 236 q 153 307 100 307 q 256 313 204 307 q 360 319 307 319 q 364 356 361 338 q 369 392 367 374 q 267 387 318 389 q 164 385 217 385 q 82 418 115 385 q 49 499 49 451 q 57 540 49 519 q 80 576 65 560 q 114 602 94 592 q 154 613 133 613 q 253 615 204 613 q 351 618 301 618 q 288 695 315 663 q 233 760 260 728 q 179 830 207 793 q 117 919 151 867 q 97 978 96 949 q 115 1031 99 1007 q 158 1072 131 1056 q 213 1092 185 1089 q 269 1082 242 1094 q 315 1035 297 1069 q 374 953 347 986 q 426 889 400 919 q 478 824 451 858 q 539 743 506 790 q 667 889 604 817 q 797 1032 731 961 q 833 1058 811 1049 q 878 1067 856 1067 m 360 535 q 376 542 371 535 q 382 560 382 550 q 376 573 382 567 q 361 582 369 579 q 316 586 339 585 q 267 588 293 588 q 249 581 257 588 q 242 564 242 574 q 249 547 242 554 q 267 539 257 539 q 310 536 288 539 q 356 533 333 533 l 358 533 q 360 535 360 533 m 332 214 q 350 213 339 214 q 372 213 361 211 q 389 219 382 214 q 396 235 396 224 q 389 250 396 244 q 372 258 382 256 q 350 261 361 261 q 332 261 339 261 q 310 261 324 261 q 283 258 296 261 q 262 250 271 256 q 253 233 253 244 q 259 215 253 222 q 276 208 265 208 q 303 211 290 208 q 332 214 317 214 m 711 818 q 732 830 717 818 q 763 857 747 842 q 790 887 778 872 q 803 908 803 901 q 795 925 803 918 q 778 932 788 932 q 756 920 771 932 q 726 893 742 908 q 698 863 710 878 q 686 842 686 847 q 694 825 686 832 q 711 818 701 818 z "},"×":{"ha":849,"x_min":51,"x_max":806,"o":"m 692 894 q 773 860 740 894 q 806 776 806 825 q 797 735 806 757 q 772 699 788 713 q 747 674 769 694 q 698 629 725 654 q 645 581 671 604 q 611 549 619 558 q 757 407 688 483 q 781 368 772 389 q 790 328 790 347 q 758 247 790 281 q 678 213 726 213 q 633 221 656 213 q 597 244 611 229 q 522 322 561 285 q 444 396 483 360 q 344 308 396 351 q 246 217 293 264 q 208 193 229 203 q 168 183 188 183 q 85 217 119 183 q 51 299 51 251 q 61 342 51 322 q 96 386 69 358 q 155 443 122 414 q 219 500 188 472 q 268 544 251 528 q 226 574 254 554 q 169 617 199 594 q 114 659 139 639 q 82 692 89 679 q 70 720 75 704 q 65 750 65 736 q 74 792 65 771 q 98 828 83 813 q 133 854 113 844 q 176 864 153 864 q 208 861 193 864 q 239 849 224 858 q 340 777 292 817 q 435 699 388 738 q 473 733 454 715 q 511 765 492 750 l 611 861 q 692 894 647 894 m 306 701 q 325 708 317 701 q 333 726 333 714 q 324 742 333 732 q 301 763 314 753 q 277 783 289 774 q 260 796 265 792 q 251 797 257 797 q 242 797 244 797 q 229 789 235 794 q 224 774 224 783 q 235 756 224 768 q 260 732 246 744 q 288 710 274 719 q 306 701 301 701 m 392 640 q 409 648 401 640 q 417 663 417 656 q 409 679 417 672 q 392 686 401 686 q 376 681 383 686 q 369 667 369 676 q 376 648 369 656 q 392 640 382 640 m 578 317 q 594 324 588 317 q 600 342 600 332 q 593 360 600 350 q 577 381 586 371 q 558 397 568 390 q 542 403 547 403 q 526 396 533 403 q 518 379 518 389 q 523 366 518 374 q 535 351 528 358 q 550 336 543 343 q 561 325 557 329 q 578 317 569 317 z "},"÷":{"ha":965,"x_min":54,"x_max":922,"o":"m 464 888 q 549 852 521 888 q 576 774 576 817 q 547 695 575 731 q 464 660 519 660 q 384 695 411 660 q 356 774 357 731 q 382 852 356 817 q 464 888 408 888 m 499 788 q 516 795 508 788 q 524 813 524 803 l 524 819 q 501 845 517 829 q 475 861 485 861 q 458 853 465 861 q 450 836 450 846 l 450 831 q 476 807 467 815 q 490 794 485 799 q 496 789 494 790 q 499 788 497 788 m 811 604 q 874 588 849 604 q 910 545 899 571 q 922 490 922 519 q 910 435 922 461 q 872 393 897 410 q 811 376 847 376 q 615 376 713 376 q 419 371 518 376 q 294 364 357 369 q 168 358 232 358 q 88 391 122 358 q 54 471 54 424 q 73 534 54 507 q 125 576 92 561 q 169 585 138 581 q 244 592 201 589 q 336 598 288 596 q 429 602 385 600 q 508 605 474 604 q 560 606 543 606 q 685 606 622 606 q 811 604 747 606 m 704 519 q 719 527 713 519 q 726 543 726 535 q 701 567 726 564 q 651 569 676 569 q 638 569 647 569 q 615 569 628 569 q 590 567 603 568 q 567 564 576 565 q 544 536 543 556 q 571 517 544 517 q 610 519 590 517 q 651 521 631 521 q 678 521 667 521 q 703 519 690 521 l 704 519 m 788 511 q 804 519 797 511 q 811 536 811 526 q 805 553 811 546 q 788 560 799 560 q 770 552 778 560 q 763 536 763 544 q 770 519 763 526 q 788 511 778 511 m 610 188 q 601 147 610 167 q 578 110 593 126 q 544 85 564 94 q 503 75 525 75 q 418 106 454 75 q 382 188 382 136 q 415 269 382 236 q 496 303 447 303 q 577 269 544 303 q 610 188 610 235 m 528 204 q 540 211 535 204 q 544 225 544 218 q 529 251 544 246 q 500 263 514 256 l 493 263 q 479 257 483 263 q 469 244 475 251 q 472 227 469 233 q 486 214 475 221 q 503 209 496 214 q 518 201 511 204 q 522 201 519 201 q 528 204 525 201 z "},"O":{"ha":1075,"x_min":42,"x_max":1032,"o":"m 307 997 q 458 1072 378 1056 q 619 1070 539 1088 q 774 1006 700 1053 q 903 890 847 958 q 998 724 964 815 q 1032 532 1032 632 q 987 310 1032 415 q 865 128 942 206 q 683 4 788 50 q 460 -42 578 -42 q 250 17 336 -42 q 115 167 164 75 q 53 372 65 258 q 67 593 42 485 q 101 705 79 649 q 153 814 122 761 q 222 914 183 867 q 307 997 261 961 m 500 1038 q 497 1024 497 1032 q 501 1012 497 1017 q 513 1007 506 1007 q 590 1004 557 1007 q 664 986 622 1001 q 677 980 668 985 q 694 969 686 975 q 710 960 703 964 q 718 956 717 956 q 735 960 728 956 q 742 974 742 965 q 718 999 742 986 q 665 1023 694 1013 q 606 1040 635 1033 q 564 1047 576 1047 q 532 1047 550 1047 q 500 1038 514 1046 m 472 124 q 475 131 474 126 q 476 139 476 136 q 472 151 476 146 q 460 156 467 156 q 408 158 432 156 q 357 171 385 160 q 333 182 349 174 q 314 190 318 190 q 301 186 307 190 q 294 175 294 182 q 313 151 294 161 q 356 135 332 142 q 403 124 379 128 q 436 121 426 121 q 454 121 446 121 q 472 124 463 121 m 468 188 q 541 197 503 188 q 615 222 579 206 q 683 264 651 239 q 733 321 714 289 q 740 329 736 324 q 746 338 743 335 q 715 336 731 336 q 686 336 700 336 q 576 350 636 336 q 460 390 517 364 q 358 453 404 415 q 290 540 313 492 q 279 485 281 513 q 278 429 278 457 q 283 365 278 400 q 302 297 289 329 q 336 239 315 265 q 386 200 357 213 q 426 190 401 192 q 468 188 450 188 m 468 731 q 506 635 468 674 q 595 577 543 596 q 704 561 647 558 q 799 590 761 564 q 747 718 785 660 q 651 817 710 776 q 578 853 611 843 q 522 855 546 864 q 484 815 499 846 q 468 731 469 785 m 781 921 q 794 928 789 921 q 799 939 799 935 q 781 957 799 957 q 769 952 775 957 q 763 939 763 947 q 769 927 763 933 q 781 921 775 921 z "},"N":{"ha":1036,"x_min":32,"x_max":1011,"o":"m 797 1024 q 855 1068 819 1056 q 925 1074 890 1081 q 985 1040 960 1067 q 1011 968 1010 1014 q 1008 897 1010 947 q 1002 780 1006 847 q 994 631 999 713 q 985 467 990 550 q 975 306 981 385 q 963 163 969 228 q 949 55 956 99 q 933 -1 942 11 q 892 -42 918 -29 q 835 -56 867 -56 q 781 -43 803 -56 q 736 -10 760 -31 q 663 73 696 26 q 599 163 631 119 q 442 376 518 269 q 288 590 365 483 q 284 457 285 528 q 282 314 283 386 q 275 173 281 242 q 256 44 269 104 q 215 -15 246 8 q 147 -39 183 -39 q 64 -5 96 -39 q 32 79 32 29 q 34 102 32 92 q 39 124 36 113 q 48 206 46 164 q 53 288 50 247 q 55 376 54 319 q 56 500 56 432 q 58 640 57 568 q 61 776 58 713 q 69 890 64 840 q 85 960 75 939 q 125 1009 97 989 q 185 1029 153 1029 q 253 1008 225 1029 q 300 951 281 988 q 358 875 328 913 q 415 797 388 838 q 581 568 499 682 q 749 340 664 454 q 770 654 761 499 q 783 968 779 810 q 787 997 783 979 q 797 1024 790 1014 m 422 697 q 437 703 432 697 q 442 717 442 710 q 424 743 442 718 q 383 799 406 768 q 340 855 360 829 q 315 883 319 881 q 292 861 292 883 q 301 848 292 860 q 323 817 310 836 q 352 778 336 799 q 383 739 368 757 q 408 709 397 721 q 422 697 418 697 m 458 642 q 478 657 478 642 q 472 670 478 664 q 458 676 467 676 q 446 669 450 676 q 442 657 442 663 q 458 642 442 642 z "},"M":{"ha":1261,"x_min":36,"x_max":1233,"o":"m 918 1006 q 965 1046 932 1032 q 1033 1058 999 1060 q 1097 1039 1068 1057 q 1131 983 1125 1021 q 1144 878 1142 932 q 1151 774 1147 824 q 1169 615 1160 694 q 1186 456 1178 535 q 1203 305 1193 381 q 1226 151 1214 229 q 1231 117 1228 135 q 1233 83 1233 100 q 1203 10 1233 38 q 1135 -24 1174 -18 q 1058 -11 1096 -29 q 1006 51 1021 7 q 969 331 988 192 q 935 608 950 469 q 832 470 889 536 q 717 329 775 404 q 672 277 699 297 q 604 257 644 257 q 547 272 576 257 q 504 308 518 286 l 504 311 q 403 458 453 385 q 304 606 353 531 q 285 347 293 475 q 271 90 278 218 q 253 33 271 57 q 210 -3 236 10 q 153 -16 183 -15 q 97 -6 124 -17 q 53 26 71 4 q 36 83 36 49 q 44 296 36 189 q 62 510 51 403 q 83 723 72 617 q 97 936 93 829 q 104 978 97 958 q 146 1028 118 1008 q 208 1049 174 1049 q 253 1040 229 1049 q 294 1017 278 1032 q 321 985 307 1004 q 349 946 335 967 q 376 905 363 925 q 400 869 389 885 q 507 715 454 792 q 613 560 560 638 q 773 778 696 669 q 918 1006 850 888 m 261 963 q 274 932 261 954 q 306 885 288 910 q 340 842 324 861 q 365 824 357 824 q 379 828 372 824 q 386 839 386 832 q 374 863 386 844 q 345 901 361 881 q 315 942 329 922 q 294 972 300 963 q 279 978 290 978 q 261 963 261 978 m 397 763 q 409 767 403 763 q 415 778 415 771 q 409 791 415 785 q 397 797 403 797 q 383 790 389 797 q 378 778 378 783 q 397 763 378 763 m 665 528 q 673 529 668 528 q 681 533 678 531 q 717 576 699 557 q 754 614 735 594 q 759 620 756 618 q 763 625 763 622 q 757 638 763 635 q 744 642 751 642 q 723 628 739 642 q 690 599 707 615 q 661 567 674 582 q 649 546 649 551 q 665 528 649 528 z "},"L":{"ha":792,"x_min":44,"x_max":751,"o":"m 640 207 q 724 172 696 207 q 751 93 751 136 q 724 15 751 50 q 640 -21 696 -21 q 622 -22 631 -21 q 606 -24 614 -24 q 463 -31 535 -31 q 321 -37 392 -31 q 249 -42 285 -39 q 178 -46 214 -46 q 79 -6 114 -46 q 44 100 44 35 q 46 323 44 217 q 49 533 47 429 q 53 744 51 638 q 54 965 54 850 q 90 1048 54 1021 q 168 1075 125 1075 q 247 1049 211 1075 q 282 972 282 1024 q 281 790 282 876 q 277 619 279 704 q 274 448 275 535 q 272 265 272 361 l 272 186 l 640 207 m 199 993 q 210 998 206 993 q 215 1010 215 1003 q 208 1024 215 1018 q 190 1035 200 1031 q 168 1042 179 1040 q 150 1044 157 1044 q 133 1042 140 1044 q 126 1028 126 1039 q 146 1007 126 1010 q 169 1002 160 1004 q 190 994 178 1000 q 199 993 193 993 m 232 947 q 244 953 240 947 q 248 965 249 958 q 243 976 247 971 q 232 982 239 982 q 217 976 222 982 q 213 965 213 971 q 217 953 213 958 q 232 947 221 947 m 274 122 q 342 120 306 122 q 407 124 378 118 q 420 131 414 126 q 426 142 426 136 q 411 158 426 158 q 382 158 401 158 q 342 158 363 158 q 305 158 322 158 q 281 157 288 157 q 263 139 263 153 q 274 122 263 122 z "},"K":{"ha":901,"x_min":50,"x_max":875,"o":"m 747 1064 q 800 1050 775 1064 q 840 1013 825 1036 q 859 960 856 990 q 846 900 863 931 q 794 815 825 861 q 726 722 764 769 q 646 628 689 675 q 557 540 603 581 q 633 426 594 481 q 713 315 671 372 q 746 268 726 294 q 785 214 765 242 q 825 160 806 186 q 858 113 844 133 q 872 88 868 101 q 875 58 875 74 q 842 -21 875 10 q 760 -51 808 -51 q 725 -45 742 -51 q 693 -28 708 -39 q 658 10 682 -19 q 603 83 633 40 q 538 173 572 125 q 472 265 503 221 q 417 345 442 310 q 382 397 393 381 q 334 365 358 382 q 285 333 310 349 l 276 61 q 242 -15 274 18 q 163 -47 210 -47 q 82 -15 114 -47 q 50 61 50 18 q 52 167 50 115 q 56 271 54 218 q 63 647 61 460 q 65 1021 65 835 q 97 1097 65 1065 q 176 1129 129 1129 q 256 1099 221 1129 q 290 1021 290 1068 l 290 810 q 290 704 290 757 q 289 599 289 651 q 398 693 349 647 q 490 788 447 739 q 572 890 532 836 q 653 1010 611 944 q 692 1049 668 1033 q 747 1064 715 1064 m 747 1029 q 734 1024 740 1029 q 728 1011 728 1018 q 750 994 728 994 q 769 989 758 994 q 782 974 778 982 q 799 967 786 967 q 810 971 804 967 q 815 982 815 975 q 808 999 815 990 q 789 1015 800 1008 q 767 1025 778 1021 q 747 1029 756 1029 m 211 1054 q 219 1058 215 1057 q 222 1065 222 1060 q 224 1074 224 1067 q 217 1085 224 1081 q 202 1091 211 1089 q 184 1094 193 1093 q 169 1094 175 1094 q 144 1092 158 1094 q 131 1076 131 1089 q 137 1067 131 1069 q 151 1064 143 1064 l 179 1064 q 197 1059 189 1064 q 211 1054 204 1054 m 242 1014 q 260 1033 260 1014 q 242 1049 260 1049 q 230 1044 236 1049 q 224 1033 224 1040 q 230 1019 224 1025 q 242 1014 236 1014 m 389 582 q 385 599 389 592 q 369 606 382 606 q 364 604 365 606 q 326 579 344 592 q 289 558 308 567 q 279 544 279 553 q 299 526 279 526 q 317 534 303 526 q 346 551 331 542 q 374 569 361 560 q 389 582 386 578 z "},"J":{"ha":936,"x_min":42,"x_max":888,"o":"m 888 424 q 865 253 888 332 q 800 111 843 174 q 694 6 757 49 q 551 -53 632 -36 q 415 -61 483 -67 q 285 -31 346 -56 q 172 39 224 -6 q 88 146 121 83 q 57 206 72 172 q 42 271 42 240 q 51 312 42 292 q 76 347 61 332 q 113 372 92 363 q 154 381 133 381 q 203 372 183 381 q 235 349 222 364 q 258 313 249 333 q 278 268 268 292 q 306 222 286 243 q 349 185 325 200 q 401 160 374 169 q 456 151 429 151 q 551 174 513 151 q 615 235 590 197 q 649 318 639 272 q 660 410 660 364 q 653 517 660 463 q 635 627 646 572 q 613 737 625 682 q 593 844 601 792 q 544 835 574 842 q 483 823 514 829 q 424 812 451 817 q 379 807 396 807 q 305 836 333 807 q 270 903 276 865 q 283 976 264 940 q 350 1024 301 1011 q 376 1028 363 1026 q 403 1031 389 1029 q 463 1043 424 1035 q 543 1058 501 1051 q 622 1071 585 1065 q 678 1076 658 1076 q 765 1038 735 1076 q 807 943 794 1000 q 815 895 811 919 q 822 856 819 871 q 843 751 832 804 q 864 642 854 697 q 881 533 874 588 q 888 424 888 478 m 490 89 q 529 93 501 89 q 578 107 557 97 q 600 129 600 117 q 594 142 600 138 q 581 147 588 147 q 565 142 576 147 q 528 125 543 131 q 483 119 514 119 q 444 125 464 119 q 410 131 425 131 q 393 117 393 131 q 405 101 393 107 q 433 93 417 96 q 465 90 449 90 q 490 89 482 89 m 508 985 q 548 992 524 985 q 593 1001 572 1000 q 627 1005 611 1003 q 661 1007 643 1007 q 675 1012 668 1007 q 682 1024 682 1017 q 675 1035 682 1029 q 661 1040 668 1040 q 624 1038 651 1040 q 567 1032 596 1036 q 515 1020 538 1028 q 492 1000 492 1013 q 496 990 492 994 q 508 985 500 985 m 719 985 q 730 989 724 985 q 736 997 736 993 q 733 1013 736 1006 q 719 1019 729 1019 q 706 1014 713 1019 q 700 1001 700 1008 q 706 990 700 994 q 719 985 713 985 z "},"I":{"ha":744,"x_min":31,"x_max":713,"o":"m 660 164 q 692 128 681 151 q 705 78 704 104 q 695 28 706 53 q 660 -10 685 4 q 593 -29 633 -26 q 500 -32 553 -32 q 423 -34 475 -32 q 312 -36 371 -36 q 197 -34 253 -36 q 110 -24 140 -32 q 78 -3 90 -18 q 60 33 65 13 q 55 73 54 53 q 63 110 56 93 q 101 156 76 142 q 157 175 126 171 q 220 177 188 179 q 285 175 253 175 q 285 385 285 281 q 286 594 286 489 l 286 854 q 214 849 250 853 q 142 844 178 844 q 59 878 86 844 q 31 952 32 911 q 56 1026 31 993 q 132 1060 82 1060 q 186 1061 160 1060 q 240 1065 213 1063 q 417 1072 328 1071 q 594 1074 506 1074 q 667 1047 638 1074 q 704 985 696 1019 q 697 918 713 951 q 636 872 681 885 q 609 863 624 865 q 578 860 594 860 q 544 860 561 860 q 514 861 528 861 q 513 632 514 746 q 513 406 513 518 l 513 182 q 595 182 558 182 q 660 164 632 182 m 276 125 q 282 130 279 126 q 285 136 285 133 q 278 147 285 140 q 265 154 271 154 q 230 153 246 154 q 194 151 214 151 q 182 147 189 151 q 175 138 175 142 q 194 119 175 119 q 212 119 199 119 q 239 118 225 118 q 264 119 253 118 q 276 125 275 121 m 606 1046 q 594 1040 599 1046 q 589 1028 589 1033 q 594 1016 589 1021 q 606 1011 599 1011 q 619 1016 614 1011 q 625 1028 625 1021 q 619 1040 625 1035 q 606 1046 614 1046 m 376 1007 q 456 1011 417 1007 q 535 1015 494 1015 q 553 1032 553 1015 q 547 1042 553 1036 q 535 1049 542 1049 q 474 1044 504 1046 q 414 1039 443 1042 q 399 1040 408 1039 q 381 1040 390 1040 q 366 1035 372 1039 q 360 1024 360 1032 q 365 1012 360 1017 q 376 1007 369 1007 z "},"H":{"ha":992,"x_min":24,"x_max":950,"o":"m 950 1010 q 947 975 950 993 q 943 942 944 957 q 935 872 939 907 q 931 801 932 838 q 926 665 928 733 q 925 525 925 596 l 925 435 q 938 182 928 308 q 944 124 940 154 q 949 65 949 93 q 915 -17 949 11 q 840 -47 882 -46 q 763 -21 799 -49 q 721 65 726 7 q 709 190 717 129 q 701 315 701 251 q 610 321 661 322 q 503 313 558 319 q 391 300 447 307 q 286 289 335 293 l 293 60 q 277 -1 293 24 q 235 -37 261 -25 q 180 -49 210 -49 q 125 -36 150 -49 q 83 0 100 -24 q 65 60 65 24 q 54 442 65 251 q 32 838 43 633 q 26 899 29 867 q 24 961 24 931 q 58 1041 24 1008 q 139 1074 92 1074 q 214 1043 181 1074 q 251 968 247 1013 q 259 873 256 926 q 266 760 263 819 q 272 638 269 700 q 276 518 275 576 q 483 528 381 518 q 697 543 585 538 q 698 605 697 563 q 700 701 699 647 q 704 813 701 754 q 712 923 707 871 q 723 1014 717 975 q 739 1067 729 1053 q 807 1119 764 1101 q 826 1120 817 1119 q 846 1121 836 1121 q 885 1111 867 1121 q 919 1086 904 1101 q 942 1051 933 1071 q 950 1010 950 1031 m 164 1006 q 176 1011 171 1006 q 182 1024 182 1017 q 161 1047 182 1040 q 128 1053 140 1053 q 103 1049 117 1053 q 90 1035 90 1046 q 96 1020 90 1026 q 108 1014 101 1014 q 115 1015 113 1014 q 122 1017 118 1017 l 135 1017 q 145 1015 138 1017 q 156 1010 153 1013 q 157 1008 156 1008 q 158 1008 158 1008 q 160 1007 158 1007 q 164 1006 161 1006 m 204 965 q 215 970 211 965 q 219 981 219 975 q 215 996 219 989 q 204 1003 211 1003 q 191 996 197 1003 q 185 981 185 989 q 191 969 185 974 q 204 965 197 965 m 322 442 q 374 445 347 442 q 428 451 401 449 q 440 456 435 451 q 444 467 444 460 q 440 479 444 474 q 428 485 435 485 q 404 484 422 485 q 366 482 386 483 q 329 478 346 481 q 310 474 313 476 q 303 458 303 468 q 310 448 303 454 q 322 442 317 442 m 864 1038 q 881 1054 881 1038 q 874 1071 881 1064 q 858 1082 867 1078 q 838 1088 849 1086 q 821 1090 828 1090 q 809 1088 815 1090 q 803 1078 803 1085 l 803 1074 q 815 1057 803 1061 q 838 1053 826 1053 q 851 1042 842 1047 q 864 1038 861 1038 m 896 986 q 908 991 903 986 q 914 1004 914 996 q 908 1018 914 1014 q 896 1022 903 1022 q 878 1004 878 1022 q 896 986 878 986 z "},"G":{"ha":982,"x_min":50,"x_max":940,"o":"m 899 529 q 919 479 911 508 q 931 419 926 450 q 938 357 936 388 q 940 304 940 326 q 935 260 940 285 q 924 213 931 235 q 772 13 879 82 q 519 -56 664 -56 q 447 -47 486 -56 q 379 -28 408 -39 q 224 65 288 10 q 122 188 161 119 q 67 338 83 257 q 50 511 50 419 q 77 715 50 615 q 160 892 104 814 q 303 1019 217 971 q 508 1067 389 1067 q 595 1057 551 1067 q 680 1030 639 1047 q 757 988 721 1013 q 821 932 793 963 q 866 876 844 907 q 888 810 888 844 q 853 733 888 764 q 769 703 819 703 q 716 716 742 703 q 675 756 690 729 q 621 813 654 790 q 549 844 588 836 q 469 845 510 853 q 390 813 428 838 q 329 746 351 785 q 296 663 307 707 q 282 572 285 618 q 279 485 279 526 q 286 400 279 447 q 310 318 293 353 q 346 259 324 288 q 396 209 368 231 q 458 174 424 188 q 529 161 492 161 q 662 208 614 161 q 710 332 710 256 q 708 367 710 351 q 701 401 706 383 q 611 384 660 394 q 521 374 563 374 q 478 382 499 374 q 442 405 458 390 q 417 440 426 419 q 408 482 408 460 q 446 557 408 529 q 535 599 483 585 q 641 618 586 614 q 732 622 696 622 q 830 599 788 622 q 899 529 872 576 m 478 513 q 507 522 485 513 q 556 531 529 531 q 572 549 572 531 q 556 564 572 564 q 531 563 547 564 q 500 557 515 561 q 473 546 485 553 q 461 529 461 539 q 478 513 461 513 m 749 935 q 732 918 732 935 q 736 906 732 911 q 749 901 740 901 q 762 906 756 901 q 768 918 768 911 q 762 931 768 928 q 749 935 756 935 m 519 1024 q 505 1018 511 1024 q 499 1006 499 1013 q 506 994 499 997 q 524 990 514 990 q 544 989 533 989 q 560 989 554 989 q 599 980 582 985 q 628 969 615 975 q 656 955 642 963 q 689 936 669 947 q 704 935 694 935 q 713 940 708 936 q 718 950 718 944 q 717 954 718 953 q 717 958 717 956 q 708 967 717 964 q 617 1009 661 994 q 519 1024 574 1024 m 560 99 q 565 110 565 103 q 546 126 565 126 q 488 131 514 126 q 429 150 461 136 q 399 160 417 160 q 388 142 388 154 l 388 139 q 406 121 388 129 q 450 106 425 113 q 498 96 475 100 q 529 92 521 92 q 560 99 551 92 z "},"F":{"ha":958,"x_min":38,"x_max":936,"o":"m 828 1069 q 887 1053 863 1069 q 923 1012 911 1038 q 935 956 935 986 q 924 901 936 926 q 888 859 913 876 q 828 842 864 842 q 608 847 717 842 q 389 851 499 851 l 386 851 q 394 676 390 764 q 401 500 399 589 q 476 498 428 497 q 577 498 525 499 q 673 493 629 497 q 733 478 717 489 q 776 437 761 463 q 792 379 792 411 q 783 335 792 356 q 758 298 774 314 q 721 273 742 282 q 678 264 700 264 q 619 266 647 264 q 561 268 590 268 q 485 271 524 271 q 410 274 447 271 q 413 219 411 243 q 415 173 414 196 q 417 126 417 150 q 418 72 418 103 q 384 -9 418 24 q 303 -42 350 -42 q 240 -22 268 -42 q 197 31 211 -1 q 190 69 192 50 q 189 111 189 89 q 185 156 186 138 q 185 192 185 175 q 184 228 185 210 q 182 274 183 247 l 150 274 q 90 290 115 274 q 52 332 65 307 q 38 386 39 357 q 52 440 38 415 q 96 482 67 465 q 171 500 125 499 q 167 655 168 579 q 160 807 167 731 q 155 878 158 843 q 151 950 151 914 q 163 1002 151 978 q 193 1044 174 1026 q 238 1072 213 1061 q 293 1082 264 1082 q 560 1078 428 1082 q 828 1069 693 1075 m 601 464 q 586 449 586 464 q 601 428 586 428 q 635 427 618 428 q 668 426 653 426 q 683 429 675 426 q 687 437 685 432 q 689 444 689 442 q 678 458 689 454 q 651 464 667 463 q 622 465 636 465 q 601 464 607 464 m 760 1003 q 772 1008 767 1003 q 778 1021 778 1014 q 771 1033 778 1032 q 750 1040 769 1038 q 706 1044 731 1043 q 659 1045 682 1044 q 629 1046 636 1046 q 615 1040 621 1046 q 608 1028 608 1035 q 615 1015 608 1019 q 629 1011 622 1011 q 694 1007 661 1011 q 760 1003 728 1003 m 826 993 q 838 999 832 993 q 844 1013 844 1006 q 838 1024 844 1019 q 826 1029 831 1029 q 814 1026 819 1029 q 808 1017 808 1024 q 813 1000 808 1007 q 826 993 817 993 z "},"E":{"ha":921,"x_min":38,"x_max":886,"o":"m 771 185 q 830 170 806 185 q 867 134 854 156 q 883 86 881 113 q 878 37 886 60 q 852 -3 871 14 q 804 -25 833 -21 q 787 -29 796 -28 q 771 -33 778 -31 q 661 -51 717 -44 q 549 -58 606 -58 q 410 -35 472 -58 q 303 33 347 -11 q 234 140 258 76 q 208 283 210 204 l 208 344 q 124 361 158 344 q 71 426 89 378 q 70 444 71 436 q 69 463 69 451 q 79 501 69 483 q 105 533 89 519 q 141 554 121 546 q 182 563 161 563 q 198 562 189 563 q 215 561 207 561 q 222 711 218 636 q 233 863 226 786 q 173 863 203 863 q 117 869 143 863 q 72 893 92 876 q 39 942 51 910 q 38 962 39 953 q 38 982 38 971 q 47 1019 38 1001 q 73 1051 57 1038 q 109 1074 89 1065 q 150 1082 129 1082 q 457 1078 306 1082 q 763 1072 608 1075 q 794 1069 776 1072 q 822 1060 811 1067 q 867 1001 856 1036 q 871 935 879 967 q 835 879 863 903 q 763 856 808 856 q 613 858 688 856 q 464 860 539 860 q 451 706 456 781 q 446 551 447 631 l 482 551 q 575 552 528 551 q 668 553 622 553 q 752 522 717 553 q 788 446 788 490 q 769 384 788 410 q 717 346 750 358 q 684 338 704 340 q 642 334 664 335 q 599 333 621 333 q 564 333 578 333 l 439 333 q 438 313 439 322 q 438 293 438 304 q 442 231 438 257 q 461 190 447 206 q 501 166 475 174 q 568 158 526 158 q 676 172 624 158 q 771 185 728 185 m 599 521 q 581 504 581 521 q 585 493 581 499 q 599 488 590 488 l 683 488 q 697 493 692 488 q 701 503 701 499 q 695 514 701 507 q 682 521 689 521 l 599 521 m 724 1035 q 712 1029 717 1035 q 707 1017 707 1024 q 724 1000 707 1000 q 737 1004 731 1000 q 743 1017 743 1008 q 737 1029 743 1024 q 724 1035 731 1035 m 485 1049 q 472 1044 478 1049 q 465 1032 465 1039 q 472 1021 465 1025 q 485 1017 478 1017 q 569 1010 526 1014 q 654 1006 613 1006 q 669 1012 661 1006 q 676 1025 676 1018 q 668 1037 676 1032 q 654 1042 660 1042 q 569 1047 613 1044 q 485 1049 526 1049 m 525 94 q 538 99 532 97 q 543 113 543 101 q 538 123 543 117 q 526 129 533 129 q 501 131 517 129 q 471 136 486 132 q 443 147 456 140 q 426 163 431 153 q 405 164 417 165 q 393 147 393 163 q 409 124 393 135 q 447 108 425 114 q 491 98 469 101 q 525 94 513 94 z "},"D":{"ha":1049,"x_min":15,"x_max":1008,"o":"m 425 1058 q 672 1015 565 1058 q 851 900 779 972 q 962 735 924 828 q 1004 544 1000 643 q 978 347 1008 444 q 885 166 949 249 q 726 25 822 83 q 500 -54 629 -33 q 322 -66 413 -69 q 136 -43 231 -62 q 110 -33 122 -40 q 86 -15 97 -25 q 51 60 51 17 q 86 137 51 107 q 168 167 121 167 q 183 167 176 167 q 196 164 189 167 l 197 163 q 198 220 197 190 q 199 278 199 250 q 197 547 199 413 q 185 811 194 681 q 172 809 178 810 q 158 808 165 808 q 126 804 143 804 q 50 833 85 804 q 15 908 15 863 q 31 963 15 940 q 69 999 46 985 q 122 1021 93 1014 q 181 1031 151 1028 q 183 1035 181 1033 q 186 1039 185 1036 q 226 1080 206 1067 q 282 1093 246 1093 q 328 1085 310 1093 q 363 1063 346 1076 l 368 1056 q 397 1058 383 1057 q 425 1058 410 1058 m 739 944 q 726 941 732 944 q 719 929 719 938 q 726 917 719 922 q 739 911 732 911 q 756 929 756 911 q 739 944 756 944 m 489 1017 q 477 1010 483 1017 q 471 996 471 1003 q 476 987 471 993 q 488 981 482 981 q 533 981 511 981 q 579 979 556 981 q 607 972 590 978 q 640 960 624 967 q 667 949 656 954 q 679 944 678 944 q 699 961 699 944 q 677 984 699 974 q 627 1002 656 994 q 572 1013 599 1010 q 536 1017 546 1017 l 489 1017 m 440 81 q 481 85 451 81 q 540 99 510 90 q 594 117 571 107 q 618 140 618 128 q 600 156 618 156 q 580 149 597 156 q 538 135 563 143 q 488 120 514 126 q 440 114 461 114 q 427 108 433 114 q 421 96 421 103 q 427 85 421 90 q 440 81 433 81 m 422 150 q 433 151 429 151 q 442 151 438 151 q 573 192 514 158 q 676 276 632 225 q 745 388 719 326 q 777 513 771 450 q 768 637 783 576 q 714 744 753 697 q 610 819 675 790 q 454 847 546 847 q 431 846 443 847 q 406 844 418 844 q 408 816 408 831 q 410 789 408 801 q 422 150 435 475 z "},"C":{"ha":963,"x_min":35,"x_max":926,"o":"m 810 414 q 891 382 856 414 q 926 304 926 350 q 914 249 926 276 q 888 197 901 221 q 815 97 856 143 q 724 18 774 51 q 616 -33 674 -15 q 492 -51 558 -51 q 344 -19 413 -51 q 222 67 276 14 q 127 186 167 119 q 65 322 88 253 q 53 372 58 343 q 43 429 47 400 q 37 486 39 458 q 35 536 35 514 q 63 735 35 633 q 146 919 90 836 q 285 1054 201 1001 q 479 1107 368 1107 q 599 1091 538 1107 q 715 1046 660 1075 q 814 974 769 1017 q 886 879 858 932 q 907 830 897 856 q 917 776 917 804 q 917 763 917 771 q 914 746 917 754 q 908 733 911 739 q 901 721 904 726 q 886 698 897 708 q 861 679 875 688 q 833 666 847 671 q 807 661 819 661 q 736 685 767 661 q 693 746 706 708 q 692 755 692 750 q 689 764 692 760 q 603 866 658 838 q 489 888 547 894 q 384 845 428 879 q 313 761 340 811 q 271 652 285 711 q 257 538 257 593 q 266 450 257 496 q 292 361 275 404 q 336 279 310 318 q 397 214 363 240 q 494 175 447 175 q 582 199 542 175 q 656 267 622 224 q 711 358 689 310 q 753 399 724 383 q 810 414 783 414 m 611 1036 q 599 1030 604 1036 q 594 1017 594 1024 q 599 1006 594 1011 q 611 1001 604 1001 q 625 1006 619 1001 q 631 1017 631 1011 q 611 1036 631 1036 m 482 1076 q 447 1072 472 1076 q 395 1060 422 1068 q 347 1042 368 1053 q 326 1017 326 1031 q 333 1006 326 1011 q 346 1001 339 1001 q 370 1008 356 1001 q 403 1021 385 1014 q 444 1034 422 1028 q 490 1040 467 1040 q 522 1034 506 1040 q 556 1028 539 1028 q 563 1029 561 1028 q 572 1036 569 1029 q 574 1046 574 1043 q 562 1060 574 1054 q 534 1069 550 1065 q 503 1074 518 1072 q 482 1076 488 1076 m 603 150 q 582 169 603 169 q 555 156 575 169 q 515 143 535 143 l 478 143 q 467 148 476 146 q 457 150 458 150 q 440 133 440 150 q 447 119 440 125 q 462 112 453 114 q 480 109 471 110 q 496 108 489 108 q 523 111 507 108 q 555 119 539 114 q 584 131 571 124 q 603 150 597 139 z "},"B":{"ha":971,"x_min":31,"x_max":929,"o":"m 764 564 q 885 458 840 518 q 929 306 929 399 q 913 218 929 260 q 872 139 897 176 q 785 51 836 86 q 677 -4 735 17 q 557 -34 619 -25 q 436 -43 494 -43 q 413 -42 425 -43 q 389 -42 400 -42 q 358 -60 376 -53 q 322 -67 339 -67 q 274 -56 294 -67 q 236 -25 254 -44 q 178 -17 207 -22 q 124 1 149 -11 q 85 36 100 14 q 69 96 69 58 q 104 178 69 146 q 188 210 139 210 q 200 209 194 210 q 210 208 206 208 q 200 483 210 346 q 174 754 190 619 q 159 750 165 753 q 144 747 153 747 q 76 772 103 747 q 33 835 49 797 q 31 857 31 849 q 44 917 31 894 q 78 955 57 940 q 128 976 100 969 q 186 990 156 983 q 200 1005 190 999 q 221 1015 210 1011 q 243 1022 232 1019 q 261 1024 254 1024 q 281 1022 271 1024 q 301 1017 292 1021 q 426 1039 364 1031 q 550 1047 488 1047 q 640 1042 594 1047 q 728 1022 686 1036 q 808 982 771 1007 q 872 918 844 957 q 900 861 890 892 q 910 797 910 831 q 899 728 910 763 q 868 662 888 693 q 822 606 849 631 q 764 564 794 581 m 756 939 q 744 936 749 939 q 739 926 739 933 q 742 913 739 919 q 756 906 746 906 q 769 911 763 906 q 775 924 775 917 q 768 935 775 931 q 756 939 761 939 m 394 804 q 405 733 401 769 q 411 661 408 697 q 508 671 460 660 q 593 699 556 682 q 653 738 631 717 q 674 776 676 758 q 640 806 672 794 q 536 818 608 818 q 464 815 500 818 q 394 804 428 811 m 421 135 q 432 121 421 125 q 458 115 443 117 q 489 114 474 114 q 511 114 504 114 q 520 119 517 114 q 524 132 524 125 q 514 147 524 142 q 490 153 504 151 q 462 153 476 154 q 439 153 447 153 q 427 147 433 153 q 421 135 421 142 m 606 213 q 667 256 644 229 q 691 311 690 283 q 669 363 692 339 q 593 399 646 388 q 510 405 553 407 q 433 399 467 403 q 435 291 433 343 q 438 185 438 239 q 520 191 475 185 q 606 213 565 197 m 696 933 q 706 939 700 936 q 713 949 713 942 q 710 951 713 950 q 708 956 708 953 q 685 975 708 967 q 633 988 663 983 q 574 996 603 993 q 536 999 546 999 q 520 998 531 999 q 499 995 510 997 q 481 988 489 993 q 472 975 472 983 q 496 957 472 957 q 521 962 501 961 q 550 963 540 963 q 619 955 586 963 q 688 933 653 947 l 682 936 q 690 933 686 933 q 696 933 693 933 m 810 453 q 822 458 817 453 q 826 469 826 463 q 814 490 826 481 q 785 506 801 499 q 751 517 768 513 q 726 521 735 521 l 725 521 q 708 507 708 521 q 713 494 708 497 q 726 486 718 490 q 754 481 742 486 q 781 469 767 476 q 789 465 786 467 q 793 461 792 464 l 792 464 q 800 457 794 461 q 810 453 806 453 z "},"A":{"ha":892,"x_min":46,"x_max":850,"o":"m 488 1071 q 645 1027 579 1071 q 757 913 711 983 q 813 775 794 853 q 840 612 832 697 q 849 441 849 526 q 850 282 850 356 q 846 170 850 225 q 839 61 842 115 q 806 -15 838 17 q 725 -46 774 -46 q 644 -15 678 -46 q 611 61 611 17 q 613 115 611 88 q 618 171 615 143 q 535 169 575 171 q 456 164 496 167 q 373 158 415 161 q 281 150 331 154 q 283 103 281 126 q 285 59 286 81 q 277 17 285 38 q 250 -21 269 -3 q 214 -44 235 -36 q 169 -53 193 -53 q 107 -35 133 -53 q 65 11 81 -18 q 56 56 56 32 q 54 140 56 100 q 51 220 53 181 q 47 300 49 260 q 46 385 46 340 q 53 538 46 461 q 81 686 61 614 q 137 826 101 758 q 229 953 172 893 q 281 999 251 978 q 345 1037 311 1021 q 416 1062 379 1053 q 488 1071 453 1071 m 296 301 q 353 308 317 300 q 419 314 389 315 q 432 317 426 313 q 438 329 438 322 q 433 341 439 336 q 421 347 428 346 q 356 344 390 349 q 293 335 322 340 q 278 318 278 332 q 283 307 276 313 q 296 301 290 301 m 278 360 q 449 376 364 371 q 622 382 535 382 q 626 492 624 425 q 621 628 628 560 q 594 754 614 696 q 531 840 574 813 q 452 844 496 861 q 378 792 408 828 q 326 708 346 753 q 296 616 307 664 q 281 519 285 568 q 278 425 278 471 l 278 360 m 646 938 q 659 942 653 938 q 665 953 665 946 q 660 964 665 958 q 572 1022 621 1004 q 464 1040 522 1040 q 451 1035 457 1040 q 444 1024 444 1029 q 451 1011 444 1015 q 464 1007 457 1007 q 541 997 500 1007 q 610 964 582 988 l 608 964 q 626 949 613 960 q 646 938 640 938 m 696 900 q 708 903 701 900 q 714 913 714 907 q 710 927 714 921 q 696 933 706 933 q 683 929 689 933 q 676 918 676 925 q 683 906 676 911 q 696 900 689 900 z "},"±":{"ha":846,"x_min":39,"x_max":813,"o":"m 683 722 q 765 683 738 718 q 792 606 792 647 q 765 530 792 564 q 683 496 738 496 l 514 496 q 512 425 514 463 q 498 356 510 388 q 462 303 486 324 q 394 282 438 282 q 313 315 346 282 q 279 394 279 347 q 283 438 279 415 q 286 485 286 461 q 225 482 254 485 q 165 479 196 479 q 123 488 143 479 q 87 513 103 497 q 62 549 71 528 q 53 593 53 569 q 62 635 53 615 q 86 671 71 656 q 122 697 101 686 q 165 708 142 707 q 225 711 196 710 q 286 713 254 713 q 276 785 283 749 q 268 857 268 821 q 277 899 268 878 q 301 935 286 919 q 337 962 317 951 q 379 972 357 972 q 416 966 397 972 q 451 949 435 960 q 479 922 468 938 q 494 888 490 906 q 504 822 503 856 q 508 756 506 788 q 511 739 511 746 q 511 722 511 732 l 683 722 m 600 626 q 616 634 608 626 q 624 650 624 642 q 618 668 624 661 q 600 675 613 675 l 514 681 q 498 674 506 681 q 490 657 490 667 q 497 639 490 646 q 514 632 503 632 l 600 626 m 689 626 q 706 634 699 626 q 714 650 714 642 q 706 667 714 660 q 689 675 699 675 q 667 654 667 675 q 672 635 667 643 q 689 626 678 626 m 714 217 q 788 183 764 217 q 813 109 813 150 q 788 35 813 68 q 714 1 763 1 q 539 1 626 1 q 364 -4 451 1 q 253 -10 310 -4 q 140 -15 197 -15 q 101 -7 119 -15 q 69 16 83 1 q 47 49 56 31 q 39 90 39 68 q 56 151 39 125 q 101 190 72 176 q 141 199 113 194 q 208 206 169 203 q 290 211 247 208 q 373 215 333 214 q 444 217 413 217 q 489 218 475 218 q 600 218 544 218 q 714 217 656 218 m 618 136 q 631 144 625 136 q 638 160 638 151 q 631 174 638 169 q 615 181 625 179 q 594 183 606 183 q 571 183 582 183 q 539 183 564 183 q 496 179 514 182 q 474 153 474 171 q 499 135 475 135 q 534 136 517 135 q 571 138 551 138 q 595 138 585 138 q 617 136 606 138 l 618 136 m 693 129 q 708 136 701 129 q 714 153 714 143 q 708 168 714 161 q 693 175 701 175 q 676 167 683 175 q 669 153 669 160 q 676 136 669 143 q 693 129 683 129 z "},":":{"ha":399,"x_min":63,"x_max":290,"o":"m 290 633 q 263 559 290 588 q 197 524 235 531 q 124 535 160 518 q 71 597 88 553 q 66 649 63 622 q 84 699 69 676 q 122 735 99 721 q 175 749 144 749 q 256 715 222 749 q 290 633 290 681 m 192 650 q 209 634 200 636 q 225 638 218 632 q 235 652 232 643 q 235 669 239 661 q 219 694 229 682 q 193 713 208 707 q 171 713 181 717 q 161 692 161 708 q 172 672 161 683 q 192 650 183 661 m 290 183 q 263 109 290 138 q 197 74 235 81 q 124 85 160 68 q 71 147 88 103 q 66 199 63 172 q 84 249 69 226 q 122 285 99 271 q 175 299 144 299 q 256 265 222 299 q 290 183 290 231 m 192 200 q 209 184 200 186 q 225 188 218 182 q 235 202 232 193 q 235 219 239 211 q 219 244 229 232 q 193 263 208 257 q 171 263 181 267 q 161 242 161 258 q 172 222 161 233 q 192 200 183 211 z "},"™":{"ha":797,"x_min":39,"x_max":763,"o":"m 346 999 q 334 972 346 983 q 307 960 322 960 q 267 961 288 960 q 226 963 247 963 q 222 897 222 933 q 224 826 222 861 q 231 760 226 790 q 238 714 235 731 q 231 692 240 701 q 210 678 221 682 q 204 677 207 678 q 199 676 201 676 q 175 687 185 676 q 163 713 165 697 q 155 757 158 729 q 149 819 151 785 q 148 891 147 854 q 151 964 149 928 q 115 963 132 964 q 78 963 97 963 q 50 974 61 963 q 39 1000 39 985 q 49 1026 39 1014 q 74 1038 60 1038 q 101 1038 88 1038 q 128 1039 114 1039 q 307 1035 217 1039 q 326 1031 318 1035 q 346 999 346 1018 m 285 1013 q 290 1018 290 1013 q 285 1024 290 1024 q 260 1025 272 1024 q 238 1026 249 1026 q 228 1027 232 1026 q 219 1028 224 1028 q 215 1024 215 1028 q 219 1017 215 1018 q 244 1013 231 1014 q 271 1013 258 1013 l 285 1013 m 304 1013 q 310 1018 310 1013 q 304 1024 310 1024 q 297 1018 297 1024 q 304 1013 297 1013 m 658 1025 q 674 1038 663 1033 q 696 1042 685 1042 q 717 1035 707 1042 q 728 1017 726 1029 q 733 982 732 1000 q 735 949 733 964 q 740 896 738 922 q 746 843 743 869 q 752 794 749 819 q 760 743 756 769 q 761 732 760 738 q 763 721 763 726 q 753 697 763 706 q 730 686 743 688 q 704 690 717 685 q 688 711 692 696 q 675 803 681 757 q 664 894 669 849 q 630 849 649 871 q 592 801 611 826 q 577 785 586 792 q 556 778 568 778 q 536 783 546 778 q 522 794 526 788 l 522 796 q 489 844 506 819 q 457 893 472 869 q 451 808 453 850 q 446 724 449 765 q 433 698 446 707 q 406 689 421 689 q 380 697 392 689 q 368 721 368 704 q 377 861 368 792 q 389 1001 386 931 q 390 1015 389 1010 q 425 1039 401 1039 q 440 1036 432 1039 q 453 1028 447 1033 q 471 1005 461 1019 q 488 979 481 990 q 523 928 506 954 q 558 878 540 903 q 611 950 586 914 q 658 1025 636 986 m 442 1010 q 446 999 442 1007 q 456 984 450 992 q 468 970 463 976 q 476 964 474 964 q 483 969 483 964 q 479 977 483 971 q 470 990 475 983 q 460 1004 465 997 q 453 1014 454 1011 q 449 1015 453 1015 q 442 1010 442 1015 m 488 944 q 493 950 493 944 q 488 956 493 956 q 481 950 481 956 q 488 944 481 944 m 575 867 q 581 869 578 867 q 592 883 586 876 q 604 896 597 889 q 607 899 607 899 q 601 904 607 904 q 594 900 599 904 q 583 890 589 896 q 574 880 578 885 q 569 874 569 875 q 575 867 569 867 z "},"”":{"ha":578,"x_min":50,"x_max":521,"o":"m 79 960 q 79 1019 69 993 q 109 1060 89 1044 q 156 1079 129 1075 q 206 1074 182 1083 q 249 1043 231 1065 q 274 983 268 1021 q 274 897 278 949 q 253 797 269 846 q 207 714 236 749 q 135 679 178 679 q 74 696 97 679 q 50 750 50 713 q 61 799 50 776 q 82 846 72 822 q 94 897 92 869 q 79 960 96 925 m 210 956 q 226 963 219 956 q 233 979 233 969 q 223 1016 233 994 q 197 1042 213 1038 q 175 1042 186 1044 q 164 1019 164 1039 q 171 1004 164 1014 q 182 989 178 994 q 186 978 185 983 q 190 967 188 972 q 196 959 192 963 q 210 956 200 956 m 322 960 q 323 1019 314 993 q 352 1060 332 1044 q 399 1079 372 1075 q 449 1074 425 1083 q 492 1043 474 1065 q 517 983 511 1021 q 517 897 521 949 q 496 797 513 846 q 450 714 479 749 q 378 679 421 679 q 317 696 340 679 q 293 750 293 713 q 304 799 293 776 q 325 846 315 822 q 337 897 335 869 q 322 960 339 925 m 453 956 q 469 963 463 956 q 476 979 476 969 q 466 1016 476 994 q 440 1042 456 1038 q 418 1042 429 1044 q 407 1019 407 1039 q 414 1004 407 1014 q 425 989 421 994 q 429 978 428 983 q 433 967 431 972 q 439 959 435 963 q 453 956 443 956 z "},"“":{"ha":578,"x_min":51,"x_max":522,"o":"m 493 854 q 492 795 501 821 q 463 754 483 769 q 417 735 443 739 q 366 740 390 731 q 323 771 342 749 q 299 831 304 793 q 299 917 294 865 q 319 1017 303 968 q 365 1100 336 1065 q 438 1135 393 1135 q 499 1118 475 1135 q 522 1064 522 1101 q 511 1015 522 1038 q 490 968 500 992 q 478 917 481 944 q 493 854 476 889 m 363 858 q 346 851 353 858 q 339 835 339 844 q 349 798 339 819 q 375 772 360 776 q 397 772 386 769 q 408 794 408 775 q 401 810 408 800 q 390 825 394 819 q 386 836 388 831 q 383 847 385 842 q 376 855 381 851 q 363 858 372 858 m 250 854 q 249 795 258 821 q 220 754 240 769 q 174 735 200 739 q 123 740 147 731 q 80 771 99 749 q 56 831 61 793 q 56 917 51 865 q 76 1017 60 968 q 122 1100 93 1065 q 194 1135 150 1135 q 256 1118 232 1135 q 279 1064 279 1101 q 268 1015 279 1038 q 247 968 257 992 q 235 917 238 944 q 250 854 233 889 m 119 858 q 103 851 110 858 q 96 835 96 844 q 106 798 96 819 q 132 772 117 776 q 154 772 143 769 q 165 794 165 775 q 158 810 165 800 q 147 825 151 819 q 143 836 144 831 q 140 847 142 842 q 133 855 138 851 q 119 858 129 858 z "},"’":{"ha":322,"x_min":50,"x_max":278,"o":"m 79 960 q 79 1019 69 993 q 109 1060 89 1044 q 156 1079 129 1075 q 206 1074 182 1083 q 249 1043 231 1065 q 274 983 268 1021 q 274 897 278 949 q 253 797 269 846 q 207 714 236 749 q 135 679 178 679 q 74 696 97 679 q 50 750 50 713 q 61 799 50 776 q 82 846 72 822 q 94 897 92 869 q 79 960 96 925 m 210 956 q 226 963 219 956 q 233 979 233 969 q 223 1016 233 994 q 197 1042 213 1038 q 175 1042 186 1044 q 164 1019 164 1039 q 171 1004 164 1014 q 182 989 178 994 q 186 978 185 983 q 190 967 188 972 q 196 959 192 963 q 210 956 200 956 z "},"‘":{"ha":322,"x_min":51,"x_max":279,"o":"m 250 854 q 249 795 258 821 q 220 754 240 769 q 174 735 200 739 q 123 740 147 731 q 80 771 99 749 q 56 831 61 793 q 56 917 51 865 q 76 1017 60 968 q 122 1100 93 1065 q 194 1135 150 1135 q 256 1118 232 1135 q 279 1064 279 1101 q 268 1015 279 1038 q 247 968 257 992 q 235 917 238 944 q 250 854 233 889 m 119 858 q 103 851 110 858 q 96 835 96 844 q 106 798 96 819 q 132 772 117 776 q 154 772 143 769 q 165 794 165 775 q 158 810 165 800 q 147 825 151 819 q 143 836 144 831 q 140 847 142 842 q 133 855 138 851 q 119 858 129 858 z "},"£":{"ha":1046,"x_min":43,"x_max":1006,"o":"m 894 190 q 978 155 951 186 q 1005 88 1006 124 q 976 22 1004 51 q 894 -7 949 -7 q 835 -5 867 -7 q 776 0 804 -3 q 674 5 725 3 q 569 7 622 7 q 515 6 553 7 q 436 1 478 4 q 358 -6 394 -1 q 310 -15 322 -10 q 251 -33 281 -26 q 189 -43 221 -40 l 186 -46 l 186 -43 q 158 -47 171 -47 q 76 -19 110 -47 q 43 50 43 10 q 60 99 43 78 q 101 137 75 125 q 156 155 126 149 q 217 167 186 161 q 272 189 247 174 q 313 233 297 204 q 328 313 328 261 l 328 332 q 252 329 290 329 q 176 329 214 329 q 95 357 129 329 q 61 425 61 385 q 81 480 61 451 q 133 514 100 508 q 165 522 144 519 q 210 524 186 524 q 256 525 233 525 q 293 525 279 525 q 266 644 272 581 q 269 768 260 707 q 303 885 279 829 q 369 984 328 942 q 466 1052 410 1026 q 594 1078 522 1078 q 703 1062 649 1078 q 806 1018 757 1046 q 894 954 854 990 q 957 876 933 918 q 980 831 969 853 q 990 782 990 810 q 982 748 990 765 q 960 717 974 731 q 926 694 946 703 q 885 685 907 685 q 826 695 847 685 q 790 722 804 706 q 767 758 776 738 q 743 800 757 779 q 707 840 729 821 q 646 872 685 858 q 577 874 606 882 q 530 845 549 867 q 502 791 511 824 q 493 719 493 758 q 503 624 493 671 q 525 529 514 576 q 626 528 575 529 q 729 528 678 528 q 812 497 785 528 q 840 430 839 467 q 815 363 840 393 q 738 332 789 332 q 674 333 706 332 q 608 333 642 333 l 556 333 q 553 267 556 299 q 542 203 551 235 q 718 199 631 203 q 894 190 806 194 m 703 1024 q 686 1017 693 1024 q 679 1001 679 1010 q 688 989 679 996 q 703 982 696 982 q 720 987 713 982 q 728 999 728 992 q 721 1017 728 1010 q 703 1024 714 1024 m 207 85 q 240 92 218 85 q 284 111 263 100 q 322 135 306 122 q 338 157 338 147 q 330 172 338 165 q 314 178 322 178 q 297 171 304 178 q 251 144 274 154 q 200 126 229 133 q 188 117 193 124 q 183 106 183 111 q 191 91 183 97 q 207 85 199 85 m 440 939 q 459 950 450 939 q 482 974 468 961 q 517 999 496 988 q 572 1010 539 1010 q 595 1008 583 1010 q 617 1001 607 1007 q 638 1006 629 1001 q 647 1025 647 1011 q 638 1038 647 1033 q 617 1047 629 1043 q 592 1051 604 1050 q 572 1051 579 1051 q 482 1029 519 1051 q 419 971 444 1007 q 414 960 414 963 q 440 939 414 939 m 531 478 q 538 464 531 469 q 554 458 544 458 l 642 458 q 659 464 651 458 q 667 478 667 469 q 659 492 667 485 q 642 499 651 499 l 554 499 q 538 492 544 499 q 531 478 531 485 z "},"":{"ha":8683,"x_min":43,"x_max":8601,"o":"m 560 393 q 495 387 536 390 q 406 381 454 383 q 308 375 358 378 q 215 370 257 372 q 146 367 174 368 q 114 365 118 365 q 68 381 85 364 q 47 419 51 397 q 52 465 43 442 q 85 503 61 489 q 100 508 94 506 q 114 510 106 510 q 247 517 181 513 q 381 525 314 522 q 467 533 421 526 q 556 539 513 539 q 604 517 586 539 q 624 470 622 496 q 610 421 625 444 q 560 393 594 397 m 676 133 q 671 97 676 111 q 649 68 665 82 q 626 58 644 65 q 581 40 608 50 q 524 19 554 31 q 465 -2 493 8 q 415 -20 436 -12 q 386 -31 393 -28 q 368 -38 375 -33 q 350 -43 361 -43 q 298 -19 318 -43 q 278 36 278 6 q 290 69 278 51 q 314 94 301 88 q 347 108 324 99 q 399 130 369 118 q 460 154 428 142 q 522 177 493 167 q 574 194 551 188 q 606 201 596 201 q 653 181 629 201 q 676 133 676 160 m 404 936 q 422 929 413 933 q 453 917 432 925 q 511 894 475 908 q 608 857 547 881 q 649 830 633 846 q 665 786 665 814 q 642 732 665 751 q 588 713 619 713 q 560 719 581 713 q 514 736 540 726 q 458 758 488 746 q 401 782 428 771 q 354 801 374 793 q 329 811 335 808 q 298 848 306 825 q 296 893 290 871 q 319 932 301 915 q 364 949 336 949 q 382 945 372 949 q 404 936 392 942 m 547 479 q 560 492 560 479 q 556 499 560 494 q 547 503 553 503 q 509 501 528 503 q 471 499 490 500 q 461 489 461 499 q 471 476 461 476 q 509 477 490 476 q 547 479 528 478 m 578 821 q 572 831 578 826 q 557 838 569 832 q 529 849 544 843 l 490 863 q 478 854 478 863 q 492 840 478 849 q 522 825 506 832 q 553 813 539 818 q 567 807 567 807 q 578 821 578 807 m 586 138 q 600 151 600 143 q 593 160 600 158 q 582 161 586 161 q 569 158 578 161 q 549 151 560 156 q 531 140 539 146 q 524 129 524 135 q 536 118 524 118 q 547 121 542 118 q 563 128 556 125 q 586 138 571 131 m 1651 301 q 1636 213 1651 256 q 1596 133 1621 171 q 1508 46 1560 81 q 1399 -10 1457 11 q 1278 -40 1340 -31 q 1157 -49 1217 -49 q 1133 -48 1146 -49 q 1110 -47 1121 -47 q 1078 -66 1097 -58 q 1042 -74 1060 -74 q 994 -62 1014 -74 q 956 -31 975 -51 q 897 -22 926 -28 q 842 -4 867 -17 q 803 31 818 8 q 788 90 788 53 q 823 174 788 142 q 907 206 858 206 q 919 205 914 206 q 929 204 925 204 q 919 478 929 342 q 893 751 910 615 q 878 747 885 750 q 863 743 872 743 q 794 769 821 743 q 753 833 768 794 q 750 854 750 844 q 763 915 750 892 q 798 953 776 939 q 848 975 819 968 q 907 989 876 982 q 921 1003 911 997 q 942 1014 931 1010 q 964 1020 953 1018 q 982 1022 975 1022 q 1001 1021 990 1022 q 1021 1015 1011 1019 q 1146 1038 1083 1029 q 1269 1046 1208 1046 q 1362 1040 1315 1046 q 1451 1020 1408 1035 q 1531 981 1493 1006 q 1596 918 1568 957 q 1623 859 1613 890 q 1633 794 1633 828 q 1622 726 1633 761 q 1591 660 1611 692 q 1544 603 1571 629 q 1486 561 1517 578 q 1607 455 1563 514 q 1651 301 1651 396 m 1132 658 q 1229 668 1181 657 q 1315 697 1278 679 q 1376 735 1353 714 q 1397 774 1399 756 q 1362 803 1394 792 q 1257 815 1329 815 q 1184 812 1219 815 q 1115 803 1149 808 q 1126 731 1122 767 q 1132 658 1129 696 m 1232 108 q 1240 114 1236 108 q 1244 126 1244 119 q 1235 141 1244 136 q 1211 147 1225 146 q 1183 148 1197 149 q 1160 147 1168 147 q 1148 142 1154 147 q 1142 129 1142 136 q 1153 115 1142 119 q 1179 110 1164 111 q 1209 108 1194 108 q 1232 108 1224 108 m 1315 396 q 1231 401 1274 403 q 1156 396 1189 399 q 1158 287 1156 338 q 1160 179 1160 236 q 1241 185 1196 179 q 1326 208 1286 192 q 1388 252 1365 225 q 1413 308 1411 279 q 1391 360 1414 336 q 1315 396 1368 385 m 1433 947 q 1431 949 1433 949 q 1429 953 1429 950 q 1406 973 1429 965 q 1353 986 1383 981 q 1295 994 1324 992 q 1257 996 1267 996 q 1241 995 1251 996 q 1220 992 1231 994 q 1201 986 1210 990 q 1193 974 1193 982 q 1217 956 1193 956 q 1241 960 1221 960 q 1269 961 1261 961 q 1341 953 1307 961 q 1410 932 1375 944 l 1404 933 q 1412 932 1408 932 q 1418 932 1415 932 q 1428 936 1422 933 q 1433 947 1433 939 m 1549 467 q 1536 486 1549 476 q 1507 502 1524 496 q 1474 513 1490 508 q 1447 517 1457 517 q 1429 503 1429 517 q 1434 491 1429 494 q 1447 483 1439 488 q 1476 478 1464 483 q 1503 467 1489 474 q 1511 463 1508 464 q 1515 458 1514 461 l 1514 461 q 1522 453 1517 458 q 1532 449 1528 449 q 1544 454 1539 449 q 1549 467 1549 460 m 1460 926 q 1463 912 1460 919 q 1476 904 1467 904 q 1490 910 1483 904 q 1497 922 1497 915 q 1490 933 1497 929 q 1476 936 1483 936 q 1465 934 1471 936 q 1460 926 1460 932 m 2275 886 q 2378 817 2333 860 q 2453 722 2422 775 q 2499 609 2483 669 q 2515 486 2515 549 q 2505 376 2515 433 q 2474 265 2494 319 q 2421 164 2453 211 q 2346 82 2389 117 q 2292 47 2318 61 q 2235 19 2265 33 q 2176 1 2208 8 q 2111 -7 2143 -7 q 1950 34 2021 -7 q 1830 142 1879 75 q 1754 291 1781 208 q 1728 457 1728 374 q 1741 580 1728 517 q 1781 702 1754 643 q 1848 810 1807 761 q 1943 892 1889 860 q 2024 917 1981 908 q 2110 925 2067 925 q 2195 915 2153 925 q 2275 886 2238 906 m 2158 233 q 2216 274 2192 247 q 2256 335 2240 301 q 2280 406 2272 369 q 2288 476 2288 443 q 2278 556 2288 517 q 2242 628 2269 596 q 2136 699 2188 693 q 2045 672 2085 704 q 1982 581 2006 639 q 1958 463 1958 524 q 1980 342 1958 401 q 2047 246 2001 283 q 2099 222 2069 225 q 2158 233 2128 218 m 2092 179 q 2086 192 2089 188 q 2074 197 2083 197 l 2076 197 q 2022 217 2053 204 q 2006 228 2015 221 q 1989 235 1997 235 q 1974 217 1974 235 q 1986 197 1974 207 q 2015 178 1999 186 q 2049 164 2032 169 q 2074 158 2065 158 q 2087 165 2082 158 q 2092 179 2092 172 m 2318 803 q 2317 810 2318 806 q 2314 815 2317 815 q 2239 867 2285 847 q 2149 886 2193 886 q 2132 871 2132 886 q 2149 853 2132 853 q 2178 849 2161 853 q 2212 840 2194 846 q 2244 825 2229 833 q 2267 807 2258 817 l 2269 807 l 2271 806 q 2285 790 2278 797 q 2300 783 2293 783 q 2318 803 2318 783 m 2365 768 q 2359 781 2365 775 q 2346 788 2353 788 q 2334 781 2339 788 q 2329 768 2329 774 q 2334 756 2329 760 q 2346 751 2339 751 q 2359 756 2353 751 q 2365 768 2365 760 m 3332 376 q 3290 216 3332 289 q 3183 90 3249 143 q 3035 8 3118 38 q 2872 -21 2953 -21 q 2825 -18 2850 -21 q 2781 -8 2800 -15 q 2757 -17 2767 -11 q 2733 -24 2747 -24 q 2638 20 2667 -24 q 2608 126 2608 64 q 2596 183 2600 139 q 2590 284 2592 228 q 2587 395 2588 340 q 2586 483 2586 450 q 2589 559 2586 507 q 2598 677 2592 611 q 2613 814 2604 743 q 2633 947 2621 885 q 2658 1053 2644 1008 q 2689 1111 2672 1099 q 2726 1133 2708 1125 q 2768 1142 2744 1142 q 2852 1108 2819 1142 q 2885 1022 2885 1075 q 2878 983 2885 1003 q 2867 944 2871 964 q 2856 894 2863 922 q 2844 838 2850 867 q 2835 781 2839 808 q 2831 731 2831 753 q 2859 739 2843 735 q 2892 747 2875 743 q 2926 751 2910 750 q 2954 753 2943 753 q 3101 724 3032 753 q 3221 643 3169 694 q 3302 524 3272 592 q 3332 376 3332 456 m 2831 1033 q 2844 1040 2840 1033 q 2849 1053 2849 1046 q 2841 1072 2849 1061 q 2822 1091 2833 1082 q 2800 1107 2811 1100 q 2782 1117 2789 1114 q 2768 1115 2771 1117 q 2761 1104 2765 1114 q 2760 1102 2761 1103 q 2758 1099 2758 1101 q 2772 1083 2758 1088 q 2793 1071 2785 1078 q 2813 1049 2807 1064 q 2831 1033 2818 1033 m 2957 524 q 2917 518 2939 524 q 2876 503 2896 513 q 2840 479 2856 493 q 2815 449 2824 465 l 2815 376 q 2817 297 2815 336 q 2825 218 2819 258 q 2849 212 2839 215 q 2872 208 2860 208 q 2938 217 2904 208 q 3001 241 2971 225 q 3056 281 3031 257 q 3094 335 3081 304 q 3101 405 3107 371 q 3075 465 3094 439 q 3025 508 3056 492 q 2957 524 2994 524 m 2946 165 l 2946 167 q 2942 178 2946 172 q 2932 183 2939 183 q 2892 183 2913 183 q 2849 183 2872 182 l 2847 183 q 2835 178 2839 183 q 2831 167 2831 172 q 2838 153 2831 158 q 2855 147 2844 149 q 2876 146 2865 146 q 2893 146 2886 146 q 2910 147 2901 146 q 2931 147 2919 147 q 2937 151 2933 150 q 2942 154 2940 151 q 2945 158 2944 157 q 2946 165 2946 160 m 3133 658 q 3114 683 3133 672 q 3068 701 3094 693 q 3017 712 3042 708 q 2982 715 2992 715 q 2945 712 2964 715 q 2926 689 2926 708 q 2944 678 2933 678 q 2965 680 2954 678 q 2986 682 2975 682 q 3033 676 3011 682 q 3071 662 3054 669 q 3099 648 3088 654 q 3113 642 3110 642 q 3133 658 3133 642 m 3175 615 q 3171 633 3175 625 q 3157 640 3167 640 q 3144 634 3150 640 q 3139 621 3139 628 q 3145 609 3139 614 q 3157 604 3151 604 q 3169 608 3163 604 q 3175 615 3175 611 m 4176 178 q 4198 134 4186 154 q 4210 86 4210 114 q 4174 4 4210 36 q 4090 -28 4139 -28 q 4039 -14 4061 -28 q 4001 21 4017 0 q 3975 67 3986 42 q 3956 117 3964 93 q 3931 90 3942 103 q 3907 65 3919 78 q 3813 0 3863 25 q 3703 -25 3764 -25 q 3547 19 3608 -25 q 3449 133 3485 63 q 3403 290 3414 203 q 3405 464 3393 378 q 3447 627 3417 550 q 3522 753 3476 704 q 3632 833 3567 804 q 3768 863 3697 863 q 3940 822 3857 863 q 4082 710 4024 782 q 4133 631 4110 676 q 4156 540 4156 586 q 4149 458 4156 501 q 4143 371 4143 414 q 4150 272 4143 322 q 4176 178 4157 222 m 3857 371 q 3892 475 3888 426 q 3882 560 3896 524 q 3840 617 3868 596 q 3779 640 3811 639 q 3715 622 3747 642 q 3660 557 3682 603 q 3633 477 3640 521 q 3625 396 3625 433 q 3647 263 3625 304 q 3704 224 3669 222 q 3780 264 3739 225 q 3857 371 3821 303 m 3794 186 q 3778 206 3794 206 q 3763 198 3768 206 q 3751 190 3757 190 q 3735 179 3746 183 q 3712 172 3724 175 q 3692 164 3700 168 q 3683 154 3683 160 q 3689 140 3683 146 q 3703 133 3694 133 q 3728 138 3713 133 q 3758 149 3743 142 q 3783 166 3772 157 q 3794 186 3794 175 m 3947 760 q 3929 783 3947 772 q 3888 803 3911 794 q 3842 818 3865 813 q 3810 824 3819 824 q 3785 821 3799 824 q 3771 803 3771 818 q 3778 792 3771 796 q 3792 788 3785 788 l 3794 788 q 3799 790 3797 790 l 3801 790 l 3826 790 q 3849 785 3836 790 q 3874 772 3861 779 q 3899 756 3888 764 q 3918 743 3911 749 q 3921 742 3919 743 q 3924 742 3922 742 l 3925 740 q 3941 747 3935 740 q 3947 760 3947 753 m 4000 725 q 3996 738 4000 732 q 3983 743 3992 743 q 3971 738 3976 743 q 3965 725 3965 732 q 3971 712 3965 715 q 3983 708 3976 708 q 4000 725 4000 708 m 5563 300 q 5550 244 5563 272 q 5525 193 5538 217 q 5451 92 5493 139 q 5360 13 5410 46 q 5251 -40 5310 -21 q 5126 -58 5193 -58 q 4978 -26 5047 -58 q 4855 60 4910 7 q 4760 181 4800 114 q 4699 318 4721 249 q 4685 367 4690 339 q 4675 425 4679 396 q 4669 483 4671 454 q 4667 533 4667 511 q 4694 732 4667 631 q 4778 917 4722 833 q 4919 1053 4835 1000 q 5114 1107 5003 1107 q 5235 1091 5174 1107 q 5351 1045 5296 1075 q 5450 973 5406 1015 q 5522 878 5494 931 q 5544 828 5533 854 q 5554 775 5554 803 q 5553 760 5554 768 q 5550 743 5553 751 q 5544 730 5547 736 q 5538 718 5540 724 q 5522 695 5533 706 q 5498 676 5511 685 q 5471 663 5485 668 q 5444 658 5457 658 q 5372 683 5403 658 q 5328 743 5342 707 q 5327 752 5328 747 q 5324 761 5326 757 q 5238 864 5294 835 q 5124 886 5182 893 q 5019 843 5063 878 q 4947 758 4975 808 q 4904 649 4918 708 q 4890 533 4890 590 q 4899 446 4890 492 q 4926 356 4908 400 q 4969 274 4943 313 q 5032 208 4996 235 q 5130 169 5082 169 q 5219 194 5178 169 q 5292 263 5260 219 q 5347 354 5325 306 q 5390 395 5360 379 q 5447 411 5419 411 q 5490 402 5469 411 q 5527 378 5511 393 q 5553 343 5543 364 q 5563 300 5563 322 m 4960 1015 q 4967 1005 4960 1010 q 4981 1000 4974 1000 q 5005 1006 4990 1000 q 5038 1020 5019 1013 q 5079 1034 5057 1028 q 5125 1040 5101 1040 q 5158 1034 5142 1040 q 5190 1028 5174 1028 l 5197 1028 q 5207 1035 5204 1028 q 5210 1044 5210 1042 q 5197 1058 5210 1053 q 5169 1067 5185 1064 q 5138 1073 5153 1071 q 5115 1075 5122 1075 q 5081 1071 5106 1075 q 5028 1059 5056 1067 q 4981 1040 5001 1051 q 4960 1015 4960 1029 m 5218 164 q 5190 151 5211 164 q 5150 138 5169 138 l 5113 138 q 5102 143 5111 142 q 5090 144 5093 144 q 5075 128 5075 144 q 5081 114 5075 119 q 5097 106 5088 108 q 5115 103 5106 104 q 5131 103 5124 103 q 5159 106 5143 103 q 5191 113 5175 108 q 5220 126 5207 118 q 5239 144 5233 133 q 5218 164 5239 164 m 5229 1015 q 5235 1005 5229 1010 q 5246 1000 5240 1000 q 5261 1005 5256 1000 q 5267 1015 5267 1010 q 5246 1036 5267 1036 q 5235 1029 5240 1036 q 5229 1015 5229 1022 m 6322 858 q 6331 839 6328 849 q 6335 815 6335 829 q 6336 793 6335 806 q 6338 771 6338 781 q 6353 615 6343 692 q 6364 458 6364 538 q 6355 338 6364 397 q 6324 223 6346 278 q 6266 121 6301 168 q 6179 39 6231 74 q 6076 -6 6128 11 q 5972 -22 6024 -22 q 5867 0 5919 -21 q 5765 67 5815 21 q 5702 147 5726 101 q 5664 241 5678 192 q 5644 342 5650 290 q 5639 444 5639 394 q 5642 501 5639 464 q 5651 582 5644 538 q 5665 675 5657 626 q 5683 765 5672 724 q 5705 839 5693 807 q 5731 883 5717 871 q 5811 918 5765 918 q 5891 883 5858 918 q 5924 799 5924 847 q 5917 762 5924 783 q 5908 722 5911 740 q 5868 421 5868 574 q 5871 368 5868 396 q 5881 313 5874 340 q 5901 263 5889 286 q 5935 224 5914 239 q 6015 210 5979 197 q 6078 257 6050 224 q 6122 349 6110 296 q 6135 471 6135 401 q 6131 556 6135 511 q 6124 640 6126 600 q 6113 728 6119 683 q 6107 815 6107 774 q 6139 897 6107 864 q 6219 931 6171 931 q 6282 911 6253 931 q 6322 858 6311 892 m 5846 831 q 5861 822 5854 822 q 5874 828 5868 822 q 5881 842 5881 835 q 5870 863 5881 853 q 5846 879 5860 872 q 5817 890 5832 886 q 5792 894 5801 894 q 5780 888 5785 894 q 5775 875 5775 882 q 5780 864 5775 867 q 5792 858 5785 861 q 5819 849 5807 854 q 5846 831 5831 843 m 5867 790 q 5872 776 5867 782 q 5883 770 5876 771 q 5894 774 5889 769 q 5900 786 5900 778 q 5894 800 5900 794 q 5883 807 5889 806 q 5872 804 5876 808 q 5867 790 5867 800 m 6078 193 q 6044 185 6069 193 q 5976 175 6018 176 q 5965 171 5969 178 q 5960 158 5960 164 q 5960 151 5960 156 q 5964 144 5961 147 q 5968 142 5965 143 q 5976 139 5971 142 l 5989 139 q 6037 144 6014 139 q 6083 161 6060 149 q 6093 166 6090 161 q 6094 177 6096 171 q 6088 188 6093 183 q 6078 193 6083 193 m 6219 871 q 6253 859 6242 871 q 6275 847 6264 847 q 6292 864 6292 847 q 6283 882 6292 874 q 6262 897 6274 890 q 6238 906 6250 903 q 6219 908 6226 908 q 6208 905 6214 908 q 6201 894 6201 901 q 6205 878 6201 886 q 6219 871 6208 871 m 6276 810 q 6282 799 6276 803 q 6295 794 6288 794 q 6308 798 6303 794 q 6314 810 6314 801 q 6308 825 6314 819 q 6295 831 6303 831 q 6282 825 6288 831 q 6276 810 6276 819 m 7210 692 q 7253 512 7258 604 q 7203 338 7247 419 q 7081 194 7158 257 q 6911 103 7004 131 q 6847 86 6878 93 q 6785 78 6817 79 q 6769 77 6775 78 q 6756 71 6763 76 q 6765 25 6758 56 q 6780 -39 6772 -6 q 6793 -102 6788 -72 q 6799 -144 6799 -132 q 6784 -199 6799 -175 q 6744 -242 6769 -222 q 6716 -251 6729 -246 q 6686 -257 6703 -257 q 6607 -227 6636 -257 q 6569 -150 6578 -197 q 6499 264 6521 54 q 6488 686 6476 474 l 6475 689 q 6413 728 6438 697 q 6389 799 6389 758 q 6435 889 6389 857 q 6488 913 6454 903 q 6560 929 6522 924 q 6635 938 6599 935 q 6697 940 6672 940 q 6847 925 6771 940 q 6991 878 6922 910 q 7117 801 7060 847 q 7210 692 7174 754 m 6939 650 q 6826 697 6888 682 q 6718 713 6764 713 q 6712 644 6711 681 q 6713 576 6713 607 q 6717 440 6713 508 q 6724 301 6721 371 q 6833 317 6778 301 q 6933 367 6889 332 q 6996 433 6972 396 q 7022 508 7019 469 q 7006 583 7025 546 q 6939 650 6986 621 m 6860 275 q 6853 285 6860 282 q 6839 289 6847 289 q 6803 283 6824 289 q 6761 276 6783 276 q 6748 277 6756 276 q 6733 278 6740 278 q 6719 274 6725 278 q 6714 263 6714 271 q 6726 245 6714 246 q 6751 244 6739 244 q 6777 245 6760 244 q 6813 249 6794 246 q 6846 258 6832 253 q 6860 275 6860 264 m 6776 882 q 6784 867 6776 871 q 6802 861 6792 863 q 6825 860 6813 860 q 6846 861 6838 861 q 6897 849 6869 858 q 6944 831 6924 840 q 6969 817 6958 824 q 6993 807 6981 810 q 6997 806 6996 807 q 6999 806 6997 806 l 7001 806 q 7015 810 7008 806 q 7021 822 7021 814 q 7017 832 7021 829 q 7011 838 7014 835 q 6905 884 6961 869 q 6792 899 6849 899 q 6781 894 6786 899 q 6776 882 6776 889 m 7075 792 q 7070 805 7075 799 q 7056 811 7065 811 q 7044 804 7049 811 q 7040 792 7040 797 q 7056 775 7040 775 q 7075 792 7075 775 m 7710 499 q 7789 432 7750 469 q 7857 354 7828 394 q 7900 232 7896 296 q 7879 113 7904 168 q 7803 16 7854 57 q 7681 -39 7751 -25 q 7624 -46 7658 -43 q 7550 -47 7589 -49 q 7472 -39 7511 -46 q 7401 -17 7433 -32 q 7350 22 7369 -1 q 7331 82 7331 46 q 7340 123 7331 104 q 7366 156 7350 142 q 7403 178 7382 169 q 7447 186 7424 186 l 7474 186 q 7524 173 7500 179 q 7574 164 7547 167 q 7619 168 7596 161 q 7656 190 7642 175 q 7670 225 7669 204 q 7650 271 7671 246 q 7601 315 7632 293 q 7537 362 7571 338 q 7467 415 7503 386 q 7404 478 7432 443 q 7358 558 7376 514 q 7340 657 7340 601 q 7366 772 7340 718 q 7435 867 7392 826 q 7538 932 7479 908 q 7660 956 7596 956 q 7732 948 7692 956 q 7808 923 7772 940 q 7867 879 7843 906 q 7890 815 7890 853 q 7860 743 7890 775 q 7783 711 7829 711 q 7749 717 7764 711 q 7720 728 7733 722 q 7695 740 7707 735 q 7671 746 7683 746 q 7633 740 7651 746 q 7599 724 7614 735 q 7574 697 7583 714 q 7564 657 7564 679 q 7579 608 7564 631 q 7617 565 7594 585 q 7665 529 7640 546 q 7710 499 7690 513 m 7669 110 q 7660 125 7669 121 q 7643 129 7651 129 q 7624 128 7633 129 q 7603 126 7614 126 q 7570 131 7586 126 q 7539 136 7554 136 q 7523 130 7531 136 q 7515 114 7515 124 q 7526 95 7515 101 q 7550 86 7536 89 q 7578 83 7564 83 q 7603 82 7593 82 q 7622 82 7611 82 q 7644 85 7633 82 q 7662 93 7654 88 q 7669 110 7669 99 m 7558 858 q 7592 867 7568 858 q 7639 875 7615 875 q 7680 869 7658 875 q 7714 863 7701 863 q 7739 886 7739 863 q 7733 898 7739 892 q 7718 904 7728 904 q 7680 917 7699 915 q 7642 919 7661 919 q 7615 918 7633 919 q 7578 913 7596 917 q 7546 903 7560 910 q 7532 883 7532 896 q 7540 866 7532 874 q 7558 858 7547 858 m 7771 854 q 7778 838 7771 844 q 7796 831 7785 831 q 7810 838 7803 831 q 7817 854 7817 844 q 7810 868 7817 861 q 7796 875 7803 875 q 7778 868 7786 875 q 7771 854 7771 861 m 8331 94 q 8354 69 8343 88 q 8365 36 8365 51 q 8346 -19 8365 6 q 8294 -43 8326 -43 q 8276 -38 8283 -43 q 8258 -31 8269 -33 q 8229 -20 8250 -28 q 8180 -2 8208 -12 q 8121 19 8151 8 q 8063 40 8090 31 q 8017 58 8036 50 q 7996 68 7999 65 q 7974 97 7979 82 q 7968 133 7968 111 q 7992 181 7968 160 q 8039 201 8015 201 q 8094 187 8053 201 q 8184 154 8136 172 q 8274 118 8232 136 q 8331 94 8315 100 m 8315 811 q 8290 801 8310 808 q 8243 782 8269 793 q 8187 758 8217 771 q 8131 736 8157 746 q 8084 719 8104 726 q 8058 713 8064 713 q 8002 732 8025 713 q 7979 786 7979 751 q 7994 830 7979 814 q 8035 857 8010 846 q 8133 894 8096 881 q 8190 917 8169 908 q 8222 929 8211 925 q 8239 936 8232 933 q 8262 945 8251 942 q 8281 949 8272 949 q 8326 932 8308 949 q 8349 893 8343 915 q 8346 848 8354 871 q 8315 811 8338 825 m 8264 525 q 8397 517 8331 522 q 8531 510 8464 513 q 8544 508 8539 510 q 8560 503 8550 506 q 8592 465 8583 489 q 8597 419 8601 442 q 8576 381 8593 397 q 8531 365 8560 364 q 8499 367 8526 365 q 8429 370 8471 368 q 8337 375 8388 372 q 8238 381 8286 378 q 8149 387 8190 383 q 8085 393 8108 390 q 8035 421 8050 397 q 8021 470 8019 444 q 8040 517 8022 496 q 8089 539 8057 539 q 8177 533 8132 539 q 8264 525 8222 526 m 8108 118 q 8121 129 8121 118 q 8113 140 8121 135 q 8096 151 8106 146 q 8076 158 8086 156 q 8063 161 8067 161 q 8053 160 8060 161 q 8046 151 8046 158 q 8058 138 8046 142 q 8082 128 8075 131 q 8096 121 8089 125 q 8108 118 8104 118 m 8168 854 q 8154 863 8168 863 l 8115 849 q 8088 838 8100 843 q 8074 831 8075 832 q 8065 821 8065 826 q 8078 807 8065 807 q 8092 813 8078 807 q 8124 825 8107 818 q 8154 840 8140 832 q 8168 854 8168 849 m 8183 489 q 8172 499 8183 499 q 8134 501 8153 500 q 8096 503 8115 503 q 8089 499 8093 503 q 8085 492 8085 494 q 8096 479 8085 479 q 8134 477 8115 478 q 8172 476 8153 476 q 8183 489 8183 476 z "},"@":{"ha":1246,"x_min":46,"x_max":1208,"o":"m 661 1115 q 869 1082 769 1115 q 1044 986 968 1049 q 1164 833 1119 924 q 1208 629 1208 743 q 1186 504 1208 567 q 1123 392 1164 442 q 1024 313 1082 343 q 894 282 965 282 q 858 284 879 282 q 815 291 838 286 q 774 304 793 296 q 744 325 756 313 q 604 245 681 258 q 462 261 528 232 q 351 356 396 290 q 307 510 307 421 q 338 635 307 575 q 419 738 368 694 q 536 805 471 782 q 671 819 601 828 q 738 803 706 815 q 797 774 771 792 q 840 731 824 756 q 856 674 856 706 q 854 645 856 658 q 851 618 853 632 q 865 522 844 550 q 914 499 886 494 q 966 536 942 503 q 990 625 990 569 q 966 742 990 690 q 898 831 942 794 q 795 886 854 867 q 667 906 736 906 q 498 869 572 906 q 372 773 424 833 q 293 633 321 713 q 265 469 265 554 q 281 335 265 396 q 333 228 297 274 q 425 158 368 183 q 564 133 482 133 q 736 153 653 133 q 899 206 819 172 q 932 221 913 211 q 972 240 951 231 q 1013 257 993 250 q 1046 264 1032 264 q 1122 231 1092 264 q 1153 156 1153 199 q 1138 106 1153 132 q 1100 67 1124 79 q 967 8 1043 38 q 808 -42 892 -21 q 638 -72 725 -62 q 469 -71 551 -81 q 316 -29 388 -61 q 192 65 244 3 q 83 251 119 146 q 46 461 46 356 q 90 708 46 590 q 214 917 133 826 q 408 1061 294 1007 q 661 1115 521 1115 m 471 111 q 452 106 460 111 q 442 93 444 100 q 442 78 439 86 q 457 67 446 71 q 513 56 483 58 q 567 54 542 54 q 603 56 578 54 q 649 64 629 57 q 664 88 667 71 q 639 104 661 104 q 603 101 619 104 q 567 99 586 99 q 519 103 542 99 q 471 111 496 108 m 801 1010 q 818 1015 811 1010 q 825 1029 825 1021 q 809 1053 825 1043 q 772 1069 793 1063 q 730 1078 751 1075 q 699 1081 708 1081 q 681 1080 692 1081 q 658 1077 669 1079 q 639 1069 647 1075 q 631 1054 631 1064 q 638 1038 631 1044 q 657 1031 646 1031 q 666 1032 658 1031 q 675 1036 674 1033 l 724 1036 q 744 1032 732 1036 q 767 1023 756 1028 q 788 1014 779 1018 q 801 1010 797 1010 m 522 486 q 535 455 522 460 q 567 460 549 450 q 601 493 585 471 q 624 544 617 515 q 612 609 635 601 q 551 571 589 617 q 522 486 522 535 m 610 738 q 627 736 617 738 q 647 735 638 735 q 663 740 656 736 q 669 756 669 744 q 662 768 669 764 q 644 774 654 772 q 623 777 633 776 q 606 778 613 778 q 544 769 572 778 q 485 749 517 760 q 474 723 469 738 q 497 708 479 708 q 513 713 501 708 q 539 723 524 718 q 573 733 554 728 q 610 738 592 738 m 692 743 q 699 729 692 735 q 715 724 706 724 q 731 728 724 724 q 738 743 738 732 q 731 760 738 754 q 715 765 724 765 q 699 760 706 765 q 692 743 692 754 z "},"^":{"ha":694,"x_min":49,"x_max":657,"o":"m 357 1019 q 406 1039 379 1036 q 457 1033 432 1042 q 503 1006 482 1025 q 536 958 524 986 q 544 893 542 926 q 552 826 547 860 q 568 762 557 793 q 600 703 579 731 q 633 669 615 686 q 653 629 650 651 q 651 578 657 604 q 633 533 646 553 q 597 499 619 513 q 543 486 574 486 q 489 501 514 486 q 442 540 464 517 q 404 589 421 563 q 376 639 388 615 q 333 590 357 619 q 281 534 308 561 q 224 488 254 507 q 164 469 194 469 q 119 478 140 469 q 83 503 99 488 q 58 540 67 519 q 49 583 49 560 q 57 628 49 607 q 82 665 65 650 q 160 739 124 701 q 226 821 196 776 q 279 901 254 861 q 328 983 304 940 q 340 1003 332 994 q 357 1019 347 1011 m 461 811 q 476 836 476 819 q 474 867 476 849 q 471 900 471 885 q 471 920 471 911 q 474 939 471 929 q 476 951 475 943 q 476 960 476 958 q 470 976 476 971 q 456 982 464 982 q 440 977 447 982 q 429 963 432 972 q 423 927 424 947 q 422 897 422 907 q 422 871 422 886 q 426 842 422 856 q 437 820 429 829 q 461 811 444 811 m 501 728 q 517 733 510 728 q 525 749 525 739 q 519 768 525 760 q 501 776 514 776 q 484 769 490 776 q 478 752 478 761 q 484 735 478 743 q 501 728 490 728 z "}}}
